<svg width="668" height="459" viewBox="0 0 668 459" fill="none" xmlns="http://www.w3.org/2000/svg">
<path d="M100.78 449.235C156.439 449.235 201.56 446.2 201.56 442.456C201.56 438.713 156.439 435.677 100.78 435.677C45.1208 435.677 0 438.713 0 442.456C0 446.2 45.1208 449.235 100.78 449.235Z" fill="white"/>
<path opacity="0.2" d="M100.78 449.235C156.439 449.235 201.56 446.2 201.56 442.456C201.56 438.713 156.439 435.677 100.78 435.677C45.1208 435.677 0 438.713 0 442.456C0 446.2 45.1208 449.235 100.78 449.235Z" fill="#5468FF"/>
<path d="M126.603 101.594C134.856 93.8932 147.718 93.9835 156.575 100.979C171.109 112.449 198.198 133.681 206.947 139.556C219.104 147.691 273.173 178.648 273.173 178.648L267.271 191.51C267.271 191.51 199.671 167.648 190.054 161.023C180.437 154.397 125.221 125.863 122.265 113.118C121.198 108.626 123.259 104.721 126.603 101.594Z" fill="#5468FF"/>
<path d="M256.171 174.463C257.274 174.68 261.965 176.334 262.372 174.345C262.851 171.995 257.979 170.856 256.524 171.037C254.436 171.299 252.339 170.757 249.7 171.435C247.621 171.968 245.659 172.492 243.562 172.999C242.414 173.27 241.52 174.183 240.417 174.635C239.513 174.996 237.778 176.144 236.295 176.135C235.749 176.091 235.208 176 234.677 175.864C234.596 176.117 234.596 176.379 234.506 176.623C233.399 179.52 232.138 182.357 230.728 185.119C232.473 185.301 234.233 185.301 235.979 185.119C237.062 184.971 238.164 185.13 239.161 185.58C240.137 185.924 241.122 186.294 242.107 186.647C242.887 187.011 243.694 187.313 244.52 187.551C245.271 187.695 246.635 187.659 246.78 186.719C246.776 186.265 246.673 185.817 246.476 185.408C246.279 184.998 245.994 184.637 245.641 184.351C244.593 183.447 241.041 183.673 241.709 181.639C242.148 180.732 242.763 179.921 243.517 179.253C244.214 178.556 245.1 178.078 246.066 177.879C248.004 177.221 250.071 177.039 252.095 177.346C253.369 177.554 254.526 177.753 255.71 177.012C256.614 176.442 257.012 175.828 255.846 175.05C255.445 174.78 255.018 174.55 254.571 174.363C255.107 174.34 255.643 174.373 256.171 174.463Z" fill="white"/>
<path d="M366.903 313.738C521.98 313.738 647.695 304.046 647.695 292.091C647.695 280.135 521.98 270.443 366.903 270.443C211.825 270.443 86.1105 280.135 86.1105 292.091C86.1105 304.046 211.825 313.738 366.903 313.738Z" fill="white"/>
<path opacity="0.1" d="M366.903 313.738C521.98 313.738 647.695 304.046 647.695 292.091C647.695 280.135 521.98 270.443 366.903 270.443C211.825 270.443 86.1105 280.135 86.1105 292.091C86.1105 304.046 211.825 313.738 366.903 313.738Z" fill="#5468FF"/>
<path d="M508.872 4.90827L492.955 0.208208C492.372 0.026498 491.759 -0.0372199 491.151 0.0207774C490.544 0.0787747 489.954 0.257323 489.416 0.545985C488.878 0.834647 488.403 1.22763 488.019 1.70195C487.635 2.17627 487.35 2.72241 487.179 3.30844L485.136 10.2229C478.955 9.85946 472.756 10.516 466.788 12.1662L463.344 5.83924C462.757 4.77494 461.772 3.98697 460.604 3.6481C459.437 3.30922 458.183 3.44711 457.117 4.03152L442.537 11.9674C441.473 12.5547 440.685 13.5401 440.346 14.7075C440.007 15.8749 440.145 17.1291 440.73 18.195L444.173 24.522C439.552 28.623 435.637 33.457 432.586 38.83L425.717 36.7873C424.549 36.4425 423.293 36.5754 422.223 37.1567C421.154 37.7381 420.359 38.7203 420.013 39.8875L415.313 55.8045C415.143 56.3819 415.088 56.9873 415.151 57.5861C415.215 58.1849 415.395 58.7653 415.683 59.2941C415.971 59.8229 416.361 60.2898 416.829 60.6681C417.297 61.0464 417.836 61.3287 418.414 61.4988L425.328 63.5415C424.964 69.7228 425.621 75.9219 427.271 81.8898L420.944 85.3335C419.88 85.9208 419.092 86.9062 418.753 88.0736C418.414 89.241 418.552 90.4952 419.137 91.5611L427.063 106.14C427.651 107.205 428.636 107.993 429.804 108.331C430.971 108.67 432.225 108.532 433.291 107.948L439.618 104.504C443.728 109.133 448.575 113.052 453.962 116.101L451.919 123.015C451.575 124.183 451.708 125.439 452.289 126.509C452.87 127.578 453.852 128.373 455.02 128.719L470.937 133.419C471.514 133.589 472.12 133.644 472.718 133.581C473.317 133.517 473.897 133.337 474.426 133.049C474.955 132.761 475.422 132.371 475.8 131.903C476.179 131.434 476.461 130.896 476.631 130.318L478.674 123.404C484.852 123.768 491.048 123.112 497.013 121.461L500.457 127.788C501.044 128.852 502.029 129.64 503.197 129.979C504.364 130.318 505.618 130.18 506.684 129.595L521.263 121.66C522.328 121.072 523.116 120.087 523.455 118.919C523.793 117.752 523.656 116.498 523.071 115.432L519.627 109.105C524.255 104.994 528.174 100.147 531.224 94.7607L538.138 96.8034C539.306 97.1482 540.562 97.0154 541.632 96.434C542.701 95.8527 543.496 94.8704 543.842 93.7032L548.542 77.7863C548.887 76.6189 548.754 75.3623 548.172 74.2928C547.591 73.2233 546.609 72.4285 545.442 72.0829L538.527 70.0402C538.891 63.8619 538.235 57.6657 536.584 51.701L542.911 48.2573C543.975 47.67 544.763 46.6846 545.102 45.5171C545.441 44.3497 545.303 43.0956 544.718 42.0297L536.792 27.4505C536.204 26.3862 535.219 25.5982 534.052 25.2593C532.884 24.9205 531.63 25.0583 530.564 25.6428L524.237 29.0865C520.127 24.4576 515.28 20.5394 509.893 17.49L511.936 10.5755C512.271 9.41772 512.138 8.17455 511.564 7.11428C510.991 6.05401 510.024 5.26167 508.872 4.90827ZM488.462 44.5786C492.861 45.8783 496.776 48.4533 499.712 51.978C502.648 55.5026 504.472 59.8186 504.955 64.3802C505.438 68.9417 504.557 73.544 502.424 77.605C500.291 81.6661 497.002 85.0034 492.972 87.1952C488.943 89.3869 484.354 90.3345 479.786 89.9183C475.218 89.502 470.876 87.7405 467.309 84.8565C463.742 81.9725 461.11 78.0956 459.746 73.7159C458.383 69.3363 458.348 64.6506 459.647 60.2515C460.51 57.3302 461.94 54.6076 463.855 52.239C465.77 49.8704 468.133 47.9022 470.809 46.4468C473.484 44.9914 476.421 44.0773 479.45 43.7568C482.479 43.4362 485.541 43.7155 488.462 44.5786Z" fill="#5468FF"/>
<path d="M491.382 34.6904C485.025 32.8098 478.253 32.8573 471.923 34.8268C465.593 36.7964 459.989 40.5994 455.822 45.7548C451.654 50.9101 449.109 57.186 448.509 63.7882C447.909 70.3904 449.281 77.0221 452.452 82.8442C455.622 88.6663 460.449 93.417 466.32 96.4951C472.191 99.5733 478.844 100.841 485.436 100.136C492.028 99.4324 498.263 96.7887 503.352 92.5399C508.44 88.2911 512.155 82.6282 514.024 76.2678C516.529 67.7519 515.552 58.5897 511.306 50.7939C507.061 42.9981 499.895 37.2062 491.382 34.6904ZM488.463 44.5786C492.862 45.8783 496.777 48.4533 499.712 51.978C502.648 55.5026 504.472 59.8186 504.955 64.3802C505.438 68.9417 504.557 73.544 502.424 77.605C500.291 81.666 497.002 85.0034 492.973 87.1951C488.943 89.3869 484.354 90.3345 479.786 89.9182C475.218 89.502 470.876 87.7405 467.309 84.8565C463.742 81.9725 461.11 78.0956 459.747 73.7159C458.383 69.3363 458.348 64.6506 459.648 60.2514C460.511 57.3302 461.94 54.6076 463.855 52.239C465.77 49.8704 468.133 47.9022 470.809 46.4468C473.485 44.9914 476.421 44.0773 479.45 43.7568C482.479 43.4362 485.542 43.7155 488.463 44.5786Z" fill="white"/>
<path d="M376.963 8.15307L367.626 5.44149C366.943 5.24414 366.21 5.32303 365.584 5.66115C364.959 5.99927 364.491 6.56958 364.282 7.24921L363.089 11.3075C359.459 11.0933 355.819 11.4781 352.315 12.4464L350.29 8.73153C349.946 8.11647 349.377 7.65931 348.702 7.45686C348.027 7.25441 347.3 7.32257 346.675 7.6469L338.043 12.2927C337.429 12.6379 336.974 13.2081 336.773 13.8828C336.573 14.5575 336.642 15.2838 336.967 15.9082L338.992 19.623C336.275 22.0376 333.976 24.8838 332.186 28.047L328.127 26.8448C327.444 26.6475 326.711 26.7264 326.086 27.0645C325.46 27.4026 324.992 27.9729 324.783 28.6525L322.045 38.0527C321.847 38.7358 321.926 39.4691 322.264 40.0946C322.602 40.7202 323.173 41.1878 323.852 41.3969L327.911 42.5991C327.705 46.2205 328.096 49.8512 329.068 53.3459L325.389 55.3886C324.775 55.7338 324.32 56.304 324.119 56.9787C323.919 57.6534 323.988 58.3797 324.313 59.0041L328.968 67.5636C329.313 68.1771 329.883 68.6323 330.558 68.8331C331.233 69.0338 331.959 68.9643 332.583 68.6392L336.298 66.6146C338.712 69.3317 341.559 71.6313 344.722 73.4206L343.52 77.4789C343.323 78.162 343.402 78.8954 343.74 79.5209C344.078 80.1464 344.648 80.6141 345.328 80.8232L354.674 83.5799C355.357 83.7773 356.09 83.6984 356.716 83.3603C357.341 83.0222 357.809 82.4519 358.018 81.7722L359.22 77.7139C362.847 77.9283 366.484 77.5435 369.985 76.5751L372.01 80.2899C372.355 80.9034 372.925 81.3586 373.6 81.5594C374.274 81.7601 375.001 81.6906 375.625 81.3655L384.185 76.7106C384.798 76.3655 385.253 75.7953 385.454 75.1206C385.655 74.4459 385.585 73.7196 385.26 73.0952L383.236 69.3804C385.952 66.9656 388.252 64.1195 390.042 60.9564L394.1 62.1585C394.784 62.3586 395.52 62.2811 396.148 61.9427C396.775 61.6044 397.244 61.0325 397.453 60.3508L400.21 51.0049C400.407 50.3218 400.329 49.5885 399.99 48.963C399.652 48.3374 399.082 47.8698 398.402 47.6607L394.344 46.4585C394.558 42.832 394.174 39.195 393.205 35.6936L396.92 33.669C397.534 33.3238 397.989 32.7536 398.19 32.0789C398.39 31.4042 398.321 30.6779 397.996 30.0535L393.341 21.494C392.996 20.8805 392.425 20.4253 391.751 20.2245C391.076 20.0238 390.35 20.0933 389.725 20.4184L386.011 22.443C383.596 19.7261 380.75 17.4264 377.587 15.637L378.789 11.5787C378.898 11.234 378.938 10.8708 378.905 10.5106C378.872 10.1504 378.768 9.80034 378.598 9.48112C378.428 9.16191 378.195 8.87996 377.914 8.65188C377.634 8.4238 377.31 8.2542 376.963 8.15307ZM365.005 31.4635C367.589 32.2235 369.89 33.7327 371.617 35.8003C373.344 37.868 374.419 40.4012 374.706 43.0798C374.993 45.7583 374.48 48.4618 373.23 50.8485C371.981 53.2352 370.052 55.1978 367.687 56.4882C365.323 57.7786 362.628 58.3389 359.945 58.0981C357.262 57.8574 354.711 56.8264 352.613 55.1357C350.516 53.4449 348.967 51.1702 348.163 48.5993C347.358 46.0283 347.334 43.2766 348.094 40.6919C348.598 38.9755 349.435 37.3752 350.558 35.9824C351.681 34.5897 353.067 33.4317 354.638 32.5748C356.208 31.7178 357.932 31.1786 359.711 30.9879C361.49 30.7973 363.289 30.9589 365.005 31.4635Z" fill="#5468FF"/>
<path d="M366.722 25.6516C362.99 24.5486 359.015 24.5774 355.3 25.7343C351.584 26.8912 348.295 29.1243 345.85 32.1509C343.404 35.1775 341.911 38.8617 341.559 42.7372C341.208 46.6127 342.014 50.5053 343.876 53.9224C345.738 57.3396 348.571 60.1276 352.018 61.9338C355.465 63.74 359.37 64.4832 363.239 64.0692C367.108 63.6553 370.768 62.1028 373.755 59.6083C376.741 57.1138 378.921 53.7894 380.018 50.0558C381.486 45.0565 380.911 39.6789 378.418 35.1034C375.925 30.5279 371.719 27.1286 366.722 25.6516ZM365.005 31.4544C367.589 32.2138 369.89 33.7223 371.617 35.7894C373.344 37.8564 374.42 40.3891 374.708 43.0673C374.996 45.7455 374.483 48.4489 373.235 50.8358C371.986 53.2227 370.058 55.1858 367.694 56.4771C365.33 57.7683 362.637 58.3297 359.954 58.0903C357.271 57.8508 354.719 56.8212 352.621 55.1317C350.523 53.4422 348.973 51.1686 348.167 48.5984C347.362 46.0282 347.336 43.2767 348.093 40.6918C348.598 38.9754 349.435 37.3751 350.558 35.9823C351.681 34.5896 353.067 33.4316 354.637 32.5747C356.208 31.7177 357.932 31.1785 359.711 30.9878C361.489 30.7972 363.288 30.9588 365.005 31.4634V31.4544Z" fill="white"/>
<path opacity="0.2" d="M491.382 34.6904C485.025 32.8098 478.253 32.8573 471.923 34.8268C465.593 36.7964 459.989 40.5994 455.822 45.7548C451.654 50.9101 449.109 57.186 448.509 63.7882C447.909 70.3904 449.281 77.0221 452.452 82.8442C455.622 88.6663 460.449 93.417 466.32 96.4951C472.191 99.5733 478.844 100.841 485.436 100.136C492.028 99.4324 498.263 96.7887 503.352 92.5399C508.44 88.2911 512.155 82.6282 514.024 76.2678C516.529 67.7519 515.552 58.5897 511.306 50.7939C507.061 42.9981 499.895 37.2062 491.382 34.6904ZM488.463 44.5786C492.862 45.8783 496.777 48.4533 499.712 51.978C502.648 55.5026 504.472 59.8186 504.955 64.3802C505.438 68.9417 504.557 73.544 502.424 77.605C500.291 81.666 497.002 85.0034 492.973 87.1951C488.943 89.3869 484.354 90.3345 479.786 89.9182C475.218 89.502 470.876 87.7405 467.309 84.8565C463.742 81.9725 461.11 78.0956 459.747 73.7159C458.383 69.3363 458.348 64.6506 459.648 60.2514C460.511 57.3302 461.94 54.6076 463.855 52.239C465.77 49.8704 468.133 47.9022 470.809 46.4468C473.485 44.9914 476.421 44.0773 479.45 43.7568C482.479 43.4362 485.542 43.7155 488.463 44.5786Z" fill="#5468FF"/>
<path opacity="0.2" d="M366.722 25.6516C362.99 24.5486 359.015 24.5774 355.3 25.7343C351.584 26.8912 348.295 29.1243 345.85 32.1509C343.404 35.1775 341.911 38.8617 341.559 42.7372C341.208 46.6127 342.014 50.5053 343.876 53.9224C345.738 57.3396 348.571 60.1276 352.018 61.9338C355.465 63.74 359.37 64.4832 363.239 64.0692C367.108 63.6553 370.768 62.1028 373.755 59.6083C376.741 57.1138 378.921 53.7894 380.018 50.0558C381.486 45.0565 380.911 39.6789 378.418 35.1034C375.925 30.5279 371.719 27.1286 366.722 25.6516ZM365.005 31.4544C367.589 32.2138 369.89 33.7223 371.617 35.7894C373.344 37.8564 374.42 40.3891 374.708 43.0673C374.996 45.7455 374.483 48.4489 373.235 50.8358C371.986 53.2227 370.058 55.1858 367.694 56.4771C365.33 57.7683 362.637 58.3297 359.954 58.0903C357.271 57.8508 354.719 56.8212 352.621 55.1317C350.523 53.4422 348.973 51.1686 348.167 48.5984C347.362 46.0282 347.336 43.2767 348.093 40.6918C348.598 38.9754 349.435 37.3751 350.558 35.9823C351.681 34.5896 353.067 33.4316 354.637 32.5747C356.208 31.7177 357.932 31.1785 359.711 30.9878C361.489 30.7972 363.288 30.9588 365.005 31.4634V31.4544Z" fill="#5468FF"/>
<path d="M475.429 86.6348V227.456H224.265V86.6348C224.265 83.89 225.355 81.2577 227.296 79.3168C229.237 77.376 231.869 76.2856 234.614 76.2856H465.098C467.839 76.2904 470.467 77.3829 472.404 79.3232C474.341 81.2636 475.429 83.8932 475.429 86.6348Z" fill="#5468FF"/>
<path opacity="0.2" d="M475.429 86.6348V227.456H224.265V86.6348C224.265 83.89 225.355 81.2577 227.296 79.3168C229.237 77.376 231.869 76.2856 234.614 76.2856H465.098C467.839 76.2904 470.467 77.3829 472.404 79.3232C474.341 81.2636 475.429 83.8932 475.429 86.6348Z" fill="#000D44"/>
<path d="M464.429 88.1172H235.265V227.465H464.429V88.1172Z" fill="white"/>
<path opacity="0.2" d="M464.429 88.1172H235.265V227.465H464.429V88.1172Z" fill="#5468FF"/>
<path d="M382.693 277.358H316.992L324.205 253.153H376.222L382.693 277.358Z" fill="#5468FF"/>
<path opacity="0.2" d="M382.693 277.358H316.992L324.205 253.153H376.222L382.693 277.358Z" fill="#000D44"/>
<path d="M475.429 227.456V242.821C475.429 244.18 475.161 245.526 474.641 246.782C474.121 248.037 473.359 249.178 472.398 250.139C471.437 251.1 470.296 251.863 469.04 252.383C467.785 252.903 466.439 253.171 465.08 253.171H234.596C231.851 253.171 229.219 252.08 227.278 250.139C225.337 248.199 224.247 245.566 224.247 242.821V227.456H475.429Z" fill="#5468FF"/>
<path d="M324.205 253.153L321.864 260.989H378.318L376.221 253.153H324.205Z" fill="#5468FF"/>
<path d="M391.605 289.461H308.08C306.474 289.461 304.933 288.823 303.798 287.687C302.662 286.551 302.024 285.011 302.024 283.405C302.024 281.799 302.662 280.258 303.798 279.123C304.933 277.987 306.474 277.349 308.08 277.349H391.614C393.22 277.349 394.761 277.987 395.896 279.123C397.032 280.258 397.67 281.799 397.67 283.405C397.67 284.201 397.513 284.989 397.208 285.724C396.903 286.46 396.456 287.128 395.893 287.69C395.33 288.253 394.661 288.698 393.925 289.002C393.19 289.306 392.401 289.462 391.605 289.461Z" fill="#5468FF"/>
<path d="M395.6 187.117C393.854 185.387 391.66 184.18 389.264 183.631C386.869 183.081 384.368 183.212 382.042 184.007L326.817 129.053C327.592 126.713 327.696 124.203 327.118 121.806C326.54 119.41 325.302 117.224 323.545 115.495C320.598 112.594 317.57 112.566 312.527 112.169C312.275 112.145 312.023 112.2 311.804 112.325C311.585 112.451 311.411 112.642 311.305 112.871C311.199 113.1 311.166 113.356 311.212 113.604C311.257 113.852 311.379 114.08 311.56 114.257L316.594 119.219C316.707 119.332 316.797 119.467 316.859 119.615C316.92 119.763 316.952 119.922 316.952 120.082C316.952 120.242 316.92 120.401 316.859 120.549C316.797 120.697 316.707 120.832 316.594 120.945L310.267 127.372C310.154 127.485 310.019 127.575 309.871 127.636C309.723 127.698 309.564 127.729 309.404 127.729C309.244 127.729 309.085 127.698 308.937 127.636C308.789 127.575 308.654 127.485 308.541 127.372L302.711 121.623C302.531 121.445 302.3 121.327 302.05 121.286C301.8 121.245 301.544 121.283 301.316 121.394C301.089 121.506 300.902 121.685 300.781 121.907C300.66 122.13 300.611 122.384 300.641 122.635C301.165 127.661 301.78 131.086 305.007 134.277C306.781 136.021 309.012 137.229 311.442 137.762C313.873 138.294 316.404 138.13 318.745 137.287L373.881 192.178C373.055 194.537 372.914 197.081 373.476 199.516C374.037 201.951 375.278 204.176 377.053 205.935C380.289 209.126 383.714 209.695 388.749 210.147C389.002 210.175 389.257 210.123 389.479 209.999C389.701 209.875 389.879 209.685 389.987 209.455C390.096 209.225 390.13 208.967 390.085 208.716C390.039 208.466 389.917 208.236 389.734 208.059L383.904 202.31C383.791 202.197 383.701 202.063 383.64 201.914C383.578 201.766 383.547 201.608 383.547 201.447C383.547 201.287 383.578 201.128 383.64 200.98C383.701 200.832 383.791 200.697 383.904 200.584L390.231 194.158C390.345 194.044 390.479 193.954 390.627 193.893C390.775 193.831 390.934 193.8 391.094 193.8C391.255 193.8 391.414 193.831 391.562 193.893C391.71 193.954 391.844 194.044 391.958 194.158L396.992 199.12C397.171 199.296 397.4 199.413 397.648 199.454C397.896 199.495 398.15 199.459 398.376 199.35C398.603 199.241 398.79 199.065 398.913 198.846C399.036 198.627 399.088 198.375 399.062 198.126C398.601 193.028 398.547 189.991 395.6 187.117Z" fill="#5468FF"/>
<path d="M373.194 151.288C365.963 154.451 355.921 158.726 351.311 170.052L340.094 158.808C351.438 154.225 355.74 144.22 358.913 136.971C362.085 129.722 382.413 115.142 386.417 113C386.646 112.879 386.885 112.776 387.131 112.693C390.945 111.346 395.094 115.152 395.094 115.152C395.094 115.152 398.89 119.309 397.534 123.124C397.452 123.37 397.349 123.608 397.227 123.838C395.076 127.824 380.451 148.133 373.194 151.288Z" fill="#5468FF"/>
<path opacity="0.2" d="M373.194 151.288C365.963 154.451 355.921 158.726 351.311 170.052L340.094 158.808C351.438 154.225 355.74 144.22 358.913 136.971C362.085 129.722 382.413 115.142 386.417 113C386.646 112.879 386.885 112.776 387.131 112.693C390.945 111.346 395.094 115.152 395.094 115.152C395.094 115.152 398.89 119.309 397.534 123.124C397.452 123.37 397.349 123.608 397.227 123.838C395.076 127.824 380.451 148.133 373.194 151.288Z" fill="#000D44"/>
<path d="M397.534 123.133C396.483 122.672 395.325 122.513 394.189 122.672C393.052 122.832 391.983 123.304 391.099 124.036C387.936 126.585 385.992 124.235 385.992 124.235C385.992 124.235 383.651 122.292 386.2 119.129C386.932 118.245 387.405 117.175 387.564 116.039C387.724 114.903 387.564 113.744 387.104 112.693C390.918 111.346 395.067 115.152 395.067 115.152C395.067 115.152 398.89 119.327 397.534 123.133Z" fill="white"/>
<path d="M397.534 123.133C396.483 122.672 395.325 122.513 394.189 122.672C393.052 122.832 391.983 123.304 391.099 124.036C387.936 126.585 385.992 124.235 385.992 124.235C385.992 124.235 383.651 122.292 386.2 119.129C386.932 118.245 387.405 117.175 387.564 116.039C387.724 114.903 387.564 113.744 387.104 112.693C390.918 111.346 395.067 115.152 395.067 115.152C395.067 115.152 398.89 119.327 397.534 123.133Z" fill="#5468FF"/>
<path d="M351.311 170.061L345.12 175.168C344.535 175.653 343.789 175.901 343.03 175.864C342.27 175.827 341.552 175.508 341.017 174.969L335.15 169.085C334.613 168.548 334.295 167.829 334.26 167.07C334.225 166.311 334.475 165.566 334.961 164.981L340.086 158.808L351.311 170.061Z" fill="#5468FF"/>
<path d="M366.623 149.932C365.619 150.646 362.013 148.124 362.013 148.124C362.013 148.124 359.545 144.509 360.25 143.515C366.93 134.151 378.174 124.046 380.37 123.63C382.567 123.214 385.043 125.203 385.043 125.203C385.043 125.203 387.077 127.661 386.625 129.857C386.173 132.054 376.005 143.28 366.623 149.932Z" fill="white"/>
<path opacity="0.2" d="M366.623 149.932C365.619 150.646 362.013 148.124 362.013 148.124C362.013 148.124 359.545 144.509 360.25 143.515C366.93 134.151 378.174 124.046 380.37 123.63C382.567 123.214 385.043 125.203 385.043 125.203C385.043 125.203 387.077 127.661 386.625 129.857C386.173 132.054 376.005 143.28 366.623 149.932Z" fill="#5468FF"/>
<path d="M375.872 138.628C381.265 133.249 384.677 127.925 383.492 126.737C382.308 125.55 376.976 128.948 371.583 134.328C366.19 139.708 362.778 145.032 363.962 146.219C365.147 147.407 370.479 144.008 375.872 138.628Z" fill="white"/>
<path d="M375.872 138.628C381.265 133.249 384.677 127.925 383.492 126.737C382.308 125.55 376.976 128.948 371.583 134.328C366.19 139.708 362.778 145.032 363.962 146.219C365.147 147.407 370.479 144.008 375.872 138.628Z" fill="#5468FF"/>
<path d="M336.262 170.197L310.981 195.378L308.568 196.851L307.122 198.469L311.424 202.781L313.042 201.343L314.579 198.984L339.841 173.785L336.262 170.197Z" fill="#5468FF"/>
<path opacity="0.2" d="M336.262 170.197L310.981 195.378L308.568 196.851L307.122 198.469L311.424 202.781L313.042 201.343L314.579 198.984L339.841 173.785L336.262 170.197Z" fill="#000D44"/>
<path d="M307.149 206.396L303.551 202.79L307.121 198.469L311.424 202.781L307.149 206.396Z" fill="#5468FF"/>
<path d="M390.001 123.006C390.761 122.248 390.763 121.017 390.005 120.258C389.247 119.498 388.016 119.496 387.256 120.254C386.497 121.012 386.495 122.243 387.253 123.002C388.011 123.762 389.241 123.764 390.001 123.006Z" fill="white"/>
<path d="M569.304 214.693H442.962V305.856H569.304V214.693Z" fill="#5468FF"/>
<path opacity="0.3" d="M569.304 214.693H442.962V305.856H569.304V214.693Z" fill="#000D44"/>
<path d="M509.17 232.047H448.024V235.301H509.17V232.047Z" fill="white"/>
<path d="M505.871 230.385H451.314V236.974H505.871V230.385Z" fill="white"/>
<path d="M504.524 232.282H502.057V235.075H504.524V232.282Z" fill="#5468FF"/>
<path d="M496.29 232.282H493.823V235.075H496.29V232.282Z" fill="#5468FF"/>
<path d="M488.065 232.282H485.597V235.075H488.065V232.282Z" fill="#5468FF"/>
<path d="M479.831 232.282H477.363V235.075H479.831V232.282Z" fill="#5468FF"/>
<path d="M471.597 232.282H469.129V235.075H471.597V232.282Z" fill="#5468FF"/>
<path d="M463.362 232.282H460.895V235.075H463.362V232.282Z" fill="#5468FF"/>
<path d="M455.128 232.282H452.661V235.075H455.128V232.282Z" fill="#5468FF"/>
<path d="M509.17 221.798H448.024V225.052H509.17V221.798Z" fill="white"/>
<path d="M505.871 220.135H451.314V226.724H505.871V220.135Z" fill="white"/>
<path d="M504.524 222.033H502.057V224.826H504.524V222.033Z" fill="#5468FF"/>
<path d="M496.29 222.033H493.823V224.826H496.29V222.033Z" fill="#5468FF"/>
<path d="M488.065 222.033H485.597V224.826H488.065V222.033Z" fill="#5468FF"/>
<path d="M479.831 222.033H477.363V224.826H479.831V222.033Z" fill="#5468FF"/>
<path d="M471.597 222.033H469.129V224.826H471.597V222.033Z" fill="#5468FF"/>
<path d="M463.362 222.033H460.895V224.826H463.362V222.033Z" fill="#5468FF"/>
<path d="M455.128 222.033H452.661V224.826H455.128V222.033Z" fill="#5468FF"/>
<path d="M538.825 219.059H516.925V226.615H538.825V219.059Z" fill="white"/>
<path d="M520.368 221.554H518.371V224.103H520.368V221.554Z" fill="#5468FF"/>
<path d="M523.207 221.554H521.209V224.103H523.207V221.554Z" fill="#5468FF"/>
<path d="M526.045 221.554H524.047V224.103H526.045V221.554Z" fill="#5468FF"/>
<path d="M528.883 221.554H526.885V224.103H528.883V221.554Z" fill="#5468FF"/>
<path d="M531.721 221.554H529.724V224.103H531.721V221.554Z" fill="#5468FF"/>
<path d="M534.559 221.554H532.562V224.103H534.559V221.554Z" fill="#5468FF"/>
<path d="M537.388 221.554H535.391V224.103H537.388V221.554Z" fill="#5468FF"/>
<path d="M538.825 230.457H516.925V238.013H538.825V230.457Z" fill="white"/>
<path d="M520.368 232.951H518.371V235.5H520.368V232.951Z" fill="#5468FF"/>
<path d="M523.207 232.951H521.209V235.5H523.207V232.951Z" fill="#5468FF"/>
<path d="M526.045 232.951H524.047V235.5H526.045V232.951Z" fill="#5468FF"/>
<path d="M528.883 232.951H526.885V235.5H528.883V232.951Z" fill="#5468FF"/>
<path d="M531.721 232.951H529.724V235.5H531.721V232.951Z" fill="#5468FF"/>
<path d="M534.559 232.951H532.562V235.5H534.559V232.951Z" fill="#5468FF"/>
<path d="M537.388 232.951H535.391V235.5H537.388V232.951Z" fill="#5468FF"/>
<path d="M504.488 249.636H458.626V295.498H504.488V249.636Z" fill="white"/>
<path d="M466.092 255.882H464.465V257.509H466.092V255.882Z" fill="#5468FF"/>
<path d="M469.346 255.882H467.719V257.509H469.346V255.882Z" fill="#5468FF"/>
<path d="M472.6 255.882H470.973V257.509H472.6V255.882Z" fill="#5468FF"/>
<path d="M475.854 255.882H474.227V257.509H475.854V255.882Z" fill="#5468FF"/>
<path d="M479.117 255.882H477.49V257.509H479.117V255.882Z" fill="#5468FF"/>
<path d="M482.37 255.882H480.743V257.509H482.37V255.882Z" fill="#5468FF"/>
<path d="M485.624 255.882H483.997V257.509H485.624V255.882Z" fill="#5468FF"/>
<path d="M488.878 255.882H487.251V257.509H488.878V255.882Z" fill="#5468FF"/>
<path d="M492.132 255.882H490.505V257.509H492.132V255.882Z" fill="#5468FF"/>
<path d="M495.395 255.882H493.768V257.509H495.395V255.882Z" fill="#5468FF"/>
<path d="M498.649 255.882H497.022V257.509H498.649V255.882Z" fill="#5468FF"/>
<path d="M466.092 258.323H464.465V259.95H466.092V258.323Z" fill="#5468FF"/>
<path d="M469.346 258.323H467.719V259.95H469.346V258.323Z" fill="#5468FF"/>
<path d="M472.6 258.323H470.973V259.95H472.6V258.323Z" fill="#5468FF"/>
<path d="M475.854 258.323H474.227V259.95H475.854V258.323Z" fill="#5468FF"/>
<path d="M479.117 258.323H477.49V259.95H479.117V258.323Z" fill="#5468FF"/>
<path d="M482.37 258.323H480.743V259.95H482.37V258.323Z" fill="#5468FF"/>
<path d="M485.624 258.323H483.997V259.95H485.624V258.323Z" fill="#5468FF"/>
<path d="M488.878 258.323H487.251V259.95H488.878V258.323Z" fill="#5468FF"/>
<path d="M492.132 258.323H490.505V259.95H492.132V258.323Z" fill="#5468FF"/>
<path d="M495.395 258.323H493.768V259.95H495.395V258.323Z" fill="#5468FF"/>
<path d="M498.649 258.323H497.022V259.95H498.649V258.323Z" fill="#5468FF"/>
<path d="M466.092 260.763H464.465V262.39H466.092V260.763Z" fill="#5468FF"/>
<path d="M469.346 260.763H467.719V262.39H469.346V260.763Z" fill="#5468FF"/>
<path d="M472.6 260.763H470.973V262.39H472.6V260.763Z" fill="#5468FF"/>
<path d="M475.854 260.763H474.227V262.39H475.854V260.763Z" fill="#5468FF"/>
<path d="M479.117 260.763H477.49V262.39H479.117V260.763Z" fill="#5468FF"/>
<path d="M482.37 260.763H480.743V262.39H482.37V260.763Z" fill="#5468FF"/>
<path d="M485.624 260.763H483.997V262.39H485.624V260.763Z" fill="#5468FF"/>
<path d="M488.878 260.763H487.251V262.39H488.878V260.763Z" fill="#5468FF"/>
<path d="M492.132 260.763H490.505V262.39H492.132V260.763Z" fill="#5468FF"/>
<path d="M495.395 260.763H493.768V262.39H495.395V260.763Z" fill="#5468FF"/>
<path d="M498.649 260.763H497.022V262.39H498.649V260.763Z" fill="#5468FF"/>
<path d="M466.092 263.203H464.465V264.83H466.092V263.203Z" fill="#5468FF"/>
<path d="M469.346 263.203H467.719V264.83H469.346V263.203Z" fill="#5468FF"/>
<path d="M472.6 263.203H470.973V264.83H472.6V263.203Z" fill="#5468FF"/>
<path d="M475.854 263.203H474.227V264.83H475.854V263.203Z" fill="#5468FF"/>
<path d="M479.117 263.203H477.49V264.83H479.117V263.203Z" fill="#5468FF"/>
<path d="M482.37 263.203H480.743V264.83H482.37V263.203Z" fill="#5468FF"/>
<path d="M485.624 263.203H483.997V264.83H485.624V263.203Z" fill="#5468FF"/>
<path d="M488.878 263.203H487.251V264.83H488.878V263.203Z" fill="#5468FF"/>
<path d="M492.132 263.203H490.505V264.83H492.132V263.203Z" fill="#5468FF"/>
<path d="M495.395 263.203H493.768V264.83H495.395V263.203Z" fill="#5468FF"/>
<path d="M498.649 263.203H497.022V264.83H498.649V263.203Z" fill="#5468FF"/>
<path d="M466.092 265.644H464.465V267.271H466.092V265.644Z" fill="#5468FF"/>
<path d="M469.346 265.644H467.719V267.271H469.346V265.644Z" fill="#5468FF"/>
<path d="M472.6 265.644H470.973V267.271H472.6V265.644Z" fill="#5468FF"/>
<path d="M475.854 265.644H474.227V267.271H475.854V265.644Z" fill="#5468FF"/>
<path d="M479.117 265.644H477.49V267.271H479.117V265.644Z" fill="#5468FF"/>
<path d="M482.37 265.644H480.743V267.271H482.37V265.644Z" fill="#5468FF"/>
<path d="M485.624 265.644H483.997V267.271H485.624V265.644Z" fill="#5468FF"/>
<path d="M488.878 265.644H487.251V267.271H488.878V265.644Z" fill="#5468FF"/>
<path d="M492.132 265.644H490.505V267.271H492.132V265.644Z" fill="#5468FF"/>
<path d="M495.395 265.644H493.768V267.271H495.395V265.644Z" fill="#5468FF"/>
<path d="M498.649 265.644H497.022V267.271H498.649V265.644Z" fill="#5468FF"/>
<path d="M466.092 268.084H464.465V269.711H466.092V268.084Z" fill="#5468FF"/>
<path d="M469.346 268.084H467.719V269.711H469.346V268.084Z" fill="#5468FF"/>
<path d="M472.6 268.084H470.973V269.711H472.6V268.084Z" fill="#5468FF"/>
<path d="M475.854 268.084H474.227V269.711H475.854V268.084Z" fill="#5468FF"/>
<path d="M479.117 268.084H477.49V269.711H479.117V268.084Z" fill="#5468FF"/>
<path d="M482.37 268.084H480.743V269.711H482.37V268.084Z" fill="#5468FF"/>
<path d="M485.624 268.084H483.997V269.711H485.624V268.084Z" fill="#5468FF"/>
<path d="M488.878 268.084H487.251V269.711H488.878V268.084Z" fill="#5468FF"/>
<path d="M492.132 268.084H490.505V269.711H492.132V268.084Z" fill="#5468FF"/>
<path d="M495.395 268.084H493.768V269.711H495.395V268.084Z" fill="#5468FF"/>
<path d="M498.649 268.084H497.022V269.711H498.649V268.084Z" fill="#5468FF"/>
<path d="M466.092 270.525H464.465V272.152H466.092V270.525Z" fill="#5468FF"/>
<path d="M469.346 270.525H467.719V272.152H469.346V270.525Z" fill="#5468FF"/>
<path d="M472.6 270.525H470.973V272.152H472.6V270.525Z" fill="#5468FF"/>
<path d="M475.854 270.525H474.227V272.152H475.854V270.525Z" fill="#5468FF"/>
<path d="M479.117 270.525H477.49V272.152H479.117V270.525Z" fill="#5468FF"/>
<path d="M482.37 270.525H480.743V272.152H482.37V270.525Z" fill="#5468FF"/>
<path d="M485.624 270.525H483.997V272.152H485.624V270.525Z" fill="#5468FF"/>
<path d="M488.878 270.525H487.251V272.152H488.878V270.525Z" fill="#5468FF"/>
<path d="M492.132 270.525H490.505V272.152H492.132V270.525Z" fill="#5468FF"/>
<path d="M495.395 270.525H493.768V272.152H495.395V270.525Z" fill="#5468FF"/>
<path d="M498.649 270.525H497.022V272.152H498.649V270.525Z" fill="#5468FF"/>
<path d="M466.092 272.974H464.465V274.601H466.092V272.974Z" fill="#5468FF"/>
<path d="M469.346 272.974H467.719V274.601H469.346V272.974Z" fill="#5468FF"/>
<path d="M472.6 272.974H470.973V274.601H472.6V272.974Z" fill="#5468FF"/>
<path d="M475.854 272.974H474.227V274.601H475.854V272.974Z" fill="#5468FF"/>
<path d="M479.117 272.974H477.49V274.601H479.117V272.974Z" fill="#5468FF"/>
<path d="M482.37 272.974H480.743V274.601H482.37V272.974Z" fill="#5468FF"/>
<path d="M485.624 272.974H483.997V274.601H485.624V272.974Z" fill="#5468FF"/>
<path d="M488.878 272.974H487.251V274.601H488.878V272.974Z" fill="#5468FF"/>
<path d="M492.132 272.974H490.505V274.601H492.132V272.974Z" fill="#5468FF"/>
<path d="M495.395 272.974H493.768V274.601H495.395V272.974Z" fill="#5468FF"/>
<path d="M498.649 272.974H497.022V274.601H498.649V272.974Z" fill="#5468FF"/>
<path d="M466.092 275.415H464.465V277.041H466.092V275.415Z" fill="#5468FF"/>
<path d="M469.346 275.415H467.719V277.041H469.346V275.415Z" fill="#5468FF"/>
<path d="M472.6 275.415H470.973V277.041H472.6V275.415Z" fill="#5468FF"/>
<path d="M475.854 275.415H474.227V277.041H475.854V275.415Z" fill="#5468FF"/>
<path d="M479.117 275.415H477.49V277.041H479.117V275.415Z" fill="#5468FF"/>
<path d="M482.37 275.415H480.743V277.041H482.37V275.415Z" fill="#5468FF"/>
<path d="M485.624 275.415H483.997V277.041H485.624V275.415Z" fill="#5468FF"/>
<path d="M488.878 275.415H487.251V277.041H488.878V275.415Z" fill="#5468FF"/>
<path d="M492.132 275.415H490.505V277.041H492.132V275.415Z" fill="#5468FF"/>
<path d="M495.395 275.415H493.768V277.041H495.395V275.415Z" fill="#5468FF"/>
<path d="M498.649 275.415H497.022V277.041H498.649V275.415Z" fill="#5468FF"/>
<path d="M466.092 277.855H464.465V279.482H466.092V277.855Z" fill="#5468FF"/>
<path d="M469.346 277.855H467.719V279.482H469.346V277.855Z" fill="#5468FF"/>
<path d="M472.6 277.855H470.973V279.482H472.6V277.855Z" fill="#5468FF"/>
<path d="M475.854 277.855H474.227V279.482H475.854V277.855Z" fill="#5468FF"/>
<path d="M479.117 277.855H477.49V279.482H479.117V277.855Z" fill="#5468FF"/>
<path d="M482.37 277.855H480.743V279.482H482.37V277.855Z" fill="#5468FF"/>
<path d="M485.624 277.855H483.997V279.482H485.624V277.855Z" fill="#5468FF"/>
<path d="M488.878 277.855H487.251V279.482H488.878V277.855Z" fill="#5468FF"/>
<path d="M492.132 277.855H490.505V279.482H492.132V277.855Z" fill="#5468FF"/>
<path d="M495.395 277.855H493.768V279.482H495.395V277.855Z" fill="#5468FF"/>
<path d="M498.649 277.855H497.022V279.482H498.649V277.855Z" fill="#5468FF"/>
<path d="M466.092 280.295H464.465V281.922H466.092V280.295Z" fill="#5468FF"/>
<path d="M469.346 280.295H467.719V281.922H469.346V280.295Z" fill="#5468FF"/>
<path d="M472.6 280.295H470.973V281.922H472.6V280.295Z" fill="#5468FF"/>
<path d="M475.854 280.295H474.227V281.922H475.854V280.295Z" fill="#5468FF"/>
<path d="M479.117 280.295H477.49V281.922H479.117V280.295Z" fill="#5468FF"/>
<path d="M482.37 280.295H480.743V281.922H482.37V280.295Z" fill="#5468FF"/>
<path d="M485.624 280.295H483.997V281.922H485.624V280.295Z" fill="#5468FF"/>
<path d="M488.878 280.295H487.251V281.922H488.878V280.295Z" fill="#5468FF"/>
<path d="M492.132 280.295H490.505V281.922H492.132V280.295Z" fill="#5468FF"/>
<path d="M495.395 280.295H493.768V281.922H495.395V280.295Z" fill="#5468FF"/>
<path d="M498.649 280.295H497.022V281.922H498.649V280.295Z" fill="#5468FF"/>
<path d="M466.092 282.736H464.465V284.363H466.092V282.736Z" fill="#5468FF"/>
<path d="M469.346 282.736H467.719V284.363H469.346V282.736Z" fill="#5468FF"/>
<path d="M472.6 282.736H470.973V284.363H472.6V282.736Z" fill="#5468FF"/>
<path d="M475.854 282.736H474.227V284.363H475.854V282.736Z" fill="#5468FF"/>
<path d="M479.117 282.736H477.49V284.363H479.117V282.736Z" fill="#5468FF"/>
<path d="M482.37 282.736H480.743V284.363H482.37V282.736Z" fill="#5468FF"/>
<path d="M485.624 282.736H483.997V284.363H485.624V282.736Z" fill="#5468FF"/>
<path d="M488.878 282.736H487.251V284.363H488.878V282.736Z" fill="#5468FF"/>
<path d="M492.132 282.736H490.505V284.363H492.132V282.736Z" fill="#5468FF"/>
<path d="M495.395 282.736H493.768V284.363H495.395V282.736Z" fill="#5468FF"/>
<path d="M498.649 282.736H497.022V284.363H498.649V282.736Z" fill="#5468FF"/>
<path d="M466.092 285.176H464.465V286.803H466.092V285.176Z" fill="#5468FF"/>
<path d="M469.346 285.176H467.719V286.803H469.346V285.176Z" fill="#5468FF"/>
<path d="M472.6 285.176H470.973V286.803H472.6V285.176Z" fill="#5468FF"/>
<path d="M475.854 285.176H474.227V286.803H475.854V285.176Z" fill="#5468FF"/>
<path d="M479.117 285.176H477.49V286.803H479.117V285.176Z" fill="#5468FF"/>
<path d="M482.37 285.176H480.743V286.803H482.37V285.176Z" fill="#5468FF"/>
<path d="M485.624 285.176H483.997V286.803H485.624V285.176Z" fill="#5468FF"/>
<path d="M488.878 285.176H487.251V286.803H488.878V285.176Z" fill="#5468FF"/>
<path d="M492.132 285.176H490.505V286.803H492.132V285.176Z" fill="#5468FF"/>
<path d="M495.395 285.176H493.768V286.803H495.395V285.176Z" fill="#5468FF"/>
<path d="M498.649 285.176H497.022V286.803H498.649V285.176Z" fill="#5468FF"/>
<path d="M466.092 287.617H464.465V289.244H466.092V287.617Z" fill="#5468FF"/>
<path d="M469.346 287.617H467.719V289.244H469.346V287.617Z" fill="#5468FF"/>
<path d="M472.6 287.617H470.973V289.244H472.6V287.617Z" fill="#5468FF"/>
<path d="M475.854 287.617H474.227V289.244H475.854V287.617Z" fill="#5468FF"/>
<path d="M479.117 287.617H477.49V289.244H479.117V287.617Z" fill="#5468FF"/>
<path d="M482.37 287.617H480.743V289.244H482.37V287.617Z" fill="#5468FF"/>
<path d="M485.624 287.617H483.997V289.244H485.624V287.617Z" fill="#5468FF"/>
<path d="M488.878 287.617H487.251V289.244H488.878V287.617Z" fill="#5468FF"/>
<path d="M492.132 287.617H490.505V289.244H492.132V287.617Z" fill="#5468FF"/>
<path d="M495.395 287.617H493.768V289.244H495.395V287.617Z" fill="#5468FF"/>
<path d="M498.649 287.617H497.022V289.244H498.649V287.617Z" fill="#5468FF"/>
<path d="M488.878 265.237H474.227V279.889H488.878V265.237Z" fill="#5468FF"/>
<path d="M460.353 256.768H452.995L449.976 250.676H442.962V249.519H450.69L453.709 255.602H460.353V256.768Z" fill="white"/>
<path d="M460.353 268.328H452.995L449.976 262.236H442.962V261.079H450.69L453.709 267.171H460.353V268.328Z" fill="white"/>
<path d="M460.353 279.889H452.995L449.976 273.806H442.962V272.649H450.69L453.709 278.732H460.353V279.889Z" fill="white"/>
<path d="M460.353 291.458H452.995L449.976 285.366H442.962V284.209H450.69L453.709 290.301H460.353V291.458Z" fill="white"/>
<path d="M513.409 261.387H520.766V260.23H514.123L511.104 254.138H503.376V255.295H510.39L513.409 261.387Z" fill="white"/>
<path d="M513.409 272.947H520.766V271.799H514.123L511.104 265.707H503.376V266.864H510.39L513.409 272.947Z" fill="white"/>
<path d="M513.409 284.517H520.766V283.36H514.123L511.104 277.268H503.376V278.425H510.39L513.409 284.517Z" fill="white"/>
<path d="M513.409 296.077H520.766V294.92H514.123L511.104 288.837H503.376V289.994H510.39L513.409 296.077Z" fill="white"/>
<path d="M521.498 254.807H519.058V301.346H521.498V254.807Z" fill="white"/>
<path d="M531.857 254.807H529.416V301.346H531.857V254.807Z" fill="white"/>
<path d="M530.637 258.847H520.622V297.315H530.637V258.847Z" fill="white"/>
<path d="M529.76 291.738H521.49V294.224H529.76V291.738Z" fill="#5468FF"/>
<path d="M529.76 286.776H521.49V289.253H529.76V286.776Z" fill="#5468FF"/>
<path d="M529.76 281.805H521.49V284.291H529.76V281.805Z" fill="#5468FF"/>
<path d="M529.76 276.843H521.49V279.319H529.76V276.843Z" fill="#5468FF"/>
<path d="M529.76 271.881H521.49V274.366H529.76V271.881Z" fill="#5468FF"/>
<path d="M529.76 266.909H521.49V269.395H529.76V266.909Z" fill="#5468FF"/>
<path d="M529.76 261.947H521.49V264.424H529.76V261.947Z" fill="#5468FF"/>
<path d="M539.178 261.387H531.821V260.23H538.464L541.483 254.138H549.211V255.295H542.197L539.178 261.387Z" fill="white"/>
<path d="M539.178 272.947H531.821V271.799H538.464L541.483 265.707H549.211V266.864H542.197L539.178 272.947Z" fill="white"/>
<path d="M539.178 284.517H531.821V283.36H538.464L541.483 277.268H549.211V278.425H542.197L539.178 284.517Z" fill="white"/>
<path d="M539.178 296.077H531.821V294.92H538.464L541.483 288.837H549.211V289.994H542.197L539.178 296.077Z" fill="white"/>
<path d="M307.808 289.09H189.069V303.498H307.808V289.09Z" fill="#5468FF"/>
<path d="M307.808 121.009H189.069V289.09H307.808V121.009Z" fill="#5468FF"/>
<path opacity="0.3" d="M307.808 121.009H189.069V289.09H307.808V121.009Z" fill="#000D44"/>
<path opacity="0.2" d="M299.728 129.089H197.158V281H299.728V129.089Z" fill="#000D44"/>
<path d="M241.149 144.925H210.003V149.11H241.149V144.925Z" fill="white"/>
<path d="M256.858 144.925H248.742V149.11H256.858V144.925Z" fill="white"/>
<path d="M271.871 144.925H263.755V149.11H271.871V144.925Z" fill="white"/>
<path d="M286.875 144.925H278.758V149.11H286.875V144.925Z" fill="white"/>
<path d="M205.953 144.925H201.768V149.11H205.953V144.925Z" fill="white"/>
<path d="M295.1 144.925H290.916V149.11H295.1V144.925Z" fill="white"/>
<path d="M241.149 214.043H210.003V218.228H241.149V214.043Z" fill="white"/>
<path d="M256.858 214.043H248.742V218.228H256.858V214.043Z" fill="white"/>
<path d="M271.871 214.043H263.755V218.228H271.871V214.043Z" fill="white"/>
<path d="M286.875 214.043H278.758V218.228H286.875V214.043Z" fill="white"/>
<path d="M205.953 214.043H201.768V218.228H205.953V214.043Z" fill="white"/>
<path d="M295.1 214.043H290.916V218.228H295.1V214.043Z" fill="white"/>
<path d="M225.576 162.658H210.003V166.843H225.576V162.658Z" fill="white"/>
<path d="M256.858 162.658H230.574V166.843H256.858V162.658Z" fill="white"/>
<path d="M271.871 162.658H263.755V166.843H271.871V162.658Z" fill="white"/>
<path d="M286.875 162.658H278.758V166.843H286.875V162.658Z" fill="white"/>
<path d="M205.953 162.658H201.768V166.843H205.953V162.658Z" fill="white"/>
<path d="M295.1 162.658H290.916V166.843H295.1V162.658Z" fill="white"/>
<path d="M225.576 262.779H210.003V266.964H225.576V262.779Z" fill="white"/>
<path d="M256.858 262.779H230.574V266.964H256.858V262.779Z" fill="white"/>
<path d="M271.871 262.779H263.755V266.964H271.871V262.779Z" fill="white"/>
<path d="M286.875 262.779H278.758V266.964H286.875V262.779Z" fill="white"/>
<path d="M205.953 262.779H201.768V266.964H205.953V262.779Z" fill="white"/>
<path d="M295.1 262.779H290.916V266.964H295.1V262.779Z" fill="white"/>
<path d="M225.576 229.797H210.003V233.982H225.576V229.797Z" fill="white"/>
<path d="M256.858 229.797H230.574V233.982H256.858V229.797Z" fill="white"/>
<path d="M271.871 229.797H263.755V233.982H271.871V229.797Z" fill="white"/>
<path d="M286.875 229.797H278.758V233.982H286.875V229.797Z" fill="white"/>
<path d="M205.953 229.797H201.768V233.982H205.953V229.797Z" fill="white"/>
<path d="M295.1 229.797H290.916V233.982H295.1V229.797Z" fill="white"/>
<path d="M255.728 200.196H286.875V196.011H255.728V200.196Z" fill="white"/>
<path d="M240.019 200.196H248.136V196.011H240.019V200.196Z" fill="white"/>
<path d="M225.006 200.196H233.123V196.011H225.006V200.196Z" fill="white"/>
<path d="M210.002 200.196H218.119V196.011H210.002V200.196Z" fill="white"/>
<path d="M290.925 200.196H295.11V196.011H290.925V200.196Z" fill="white"/>
<path d="M201.777 200.196H205.962V196.011H201.777V200.196Z" fill="white"/>
<path d="M271.302 182.462H286.875V178.277H271.302V182.462Z" fill="white"/>
<path d="M240.019 182.462H266.303V178.277H240.019V182.462Z" fill="white"/>
<path d="M225.006 182.462H233.123V178.277H225.006V182.462Z" fill="white"/>
<path d="M210.002 182.462H218.119V178.277H210.002V182.462Z" fill="white"/>
<path d="M290.925 182.462H295.11V178.277H290.925V182.462Z" fill="white"/>
<path d="M201.777 182.462H205.962V178.277H201.777V182.462Z" fill="white"/>
<path d="M271.302 251.896H286.875V247.711H271.302V251.896Z" fill="white"/>
<path d="M240.019 251.896H266.303V247.711H240.019V251.896Z" fill="white"/>
<path d="M225.006 251.896H233.123V247.711H225.006V251.896Z" fill="white"/>
<path d="M210.002 251.896H218.119V247.711H210.002V251.896Z" fill="white"/>
<path d="M290.925 251.896H295.11V247.711H290.925V251.896Z" fill="white"/>
<path d="M201.777 251.896H205.962V247.711H201.777V251.896Z" fill="white"/>
<path d="M173.595 56.3921C173.748 56.8621 173.875 57.2959 174.047 57.8021C175.534 62.2021 177.46 66.4414 179.795 70.4561C181.278 72.8242 184.152 75.2375 185.3 77.5424C185.759 78.4586 186.278 79.3433 186.854 80.1906C183.103 85.6138 173.369 100.076 171.01 106.348C171.01 106.348 152.634 96.4058 149.2 85.5596C149.191 85.5053 166.68 67.9434 173.595 56.3921Z" fill="#EFAB89"/>
<path d="M118.306 416.028C118.306 416.028 118.875 436.816 122.129 439.663C125.383 442.511 166.752 443.749 170.314 439.953C173.875 436.156 171.787 429.766 162.902 427.299C153.384 424.659 148.711 427.244 142.755 424.759C136.799 422.273 138.371 412.873 138.371 412.873L118.306 416.028Z" fill="#000D44"/>
<path d="M15.7089 415.323C15.7089 415.323 12.5183 435.578 15.6637 438.543C18.8091 441.507 60.9469 444.815 64.6437 441.164C68.3405 437.512 66.5057 431.05 57.7292 428.239C48.3201 425.229 43.7646 427.136 37.6907 424.931C32.9183 423.195 36.1361 413.542 36.1361 413.542L15.7089 415.323Z" fill="#000D44"/>
<path d="M46.2867 298.734C45.5496 260.005 48.4425 221.293 54.9276 183.104C61.8059 183.357 68.7114 184.007 75.5807 187.099C88.2347 192.847 100.889 198.361 113.597 203.892C103.293 225.205 80.7417 294.775 78.0302 309.336C74.6497 327.413 36.7962 419.824 36.7962 419.824L13.8925 416.94C14.254 402.054 46.368 303.714 46.2867 298.734Z" fill="#1B255E"/>
<path d="M76.159 192.169C85.0891 195.179 101.322 199.5 113.597 203.919C122.138 225.503 147.374 276.454 148.684 299.493C150.131 324.91 141.336 421.216 141.336 421.216H115.124C115.124 421.216 112.693 312.671 109.023 305.694C96.9206 282.7 83.5435 264.469 75.942 250.161C63.1886 226.154 58.8591 210.744 56.6176 199.545C55.6233 194.583 51.2939 177.952 59.7088 172.745C66.6594 174.634 68.6931 189.647 76.159 192.169Z" fill="#1B255E"/>
<path d="M120.105 213.645C120.105 213.645 99.8311 202.681 80.0366 197.285C65.4755 193.317 62.4024 192.043 48.7812 191.862C48.4854 191.859 48.1954 191.779 47.9402 191.629C47.6851 191.479 47.4738 191.265 47.3274 191.008C47.181 190.751 47.1046 190.46 47.106 190.164C47.1073 189.868 47.1863 189.578 47.3351 189.322C55.3252 175.846 93.3776 112.494 111.898 96.7761C132.686 79.1148 151.92 82.6759 151.92 82.6759C151.92 82.6759 161.962 96.8032 173.188 101.657C173.188 101.657 166.219 144.138 157.425 161.221C148.63 178.304 120.105 213.645 120.105 213.645Z" fill="#5468FF"/>
<path d="M201.117 83.3721C196.95 86.8791 191.88 89.4641 186.963 91.9226C186.569 92.1875 186.126 92.3705 185.66 92.4606C185.194 92.5506 184.715 92.546 184.251 92.4468C183.667 92.1695 183.174 91.7303 182.832 91.1814C179.718 86.9029 177.152 82.251 175.195 77.3344C173.702 74.0324 172.727 70.5205 172.302 66.9219C172.162 64.4497 172.235 61.9701 172.519 59.5103C172.903 53.7672 173.64 48.0531 174.725 42.4003C175.701 37.8087 176.921 31.4003 181.323 28.7972C182.985 27.9104 184.766 27.2652 186.61 26.881C192.503 25.3806 198.939 24.1695 204.489 26.6189C209.388 28.8063 212.623 33.4792 215.859 37.7545C217.857 40.3937 220.071 43.3403 219.737 46.6394C219.505 48.0931 219.019 49.4945 218.3 50.779C216.365 54.747 214.341 58.6878 212.723 62.8003C210.725 67.871 209.315 73.258 206.26 77.7682C204.811 79.863 203.08 81.7487 201.117 83.3721Z" fill="#F5B58F"/>
<path d="M197.674 46.4676C198.425 47.0942 199.08 47.8282 199.617 48.6459C202.292 52.4021 205.544 55.7119 209.252 58.4528C210.716 59.5374 212.397 60.5678 214.214 60.4142C216.365 60.2334 217.992 58.4618 219.954 57.5489C222.855 56.1932 226.344 56.7807 229.3 55.5695C231.041 54.8011 232.471 53.4671 233.358 51.7837C234.246 50.1004 234.539 48.1666 234.189 46.2959C233.484 43.0149 230.827 40.3847 230.285 37.0766C229.742 33.7685 231.505 29.8457 229.986 26.7364C228.73 24.1424 225.675 23.0126 222.855 22.4431C220.035 21.8737 216.989 21.5393 214.72 19.7316C212.452 17.9238 211.222 14.5525 208.529 13.1696C206.206 11.9765 203.431 12.5549 200.819 12.6544C195.079 12.8803 189.394 10.6388 183.646 11.2443C179.073 11.7537 174.878 14.0229 171.95 17.5713C170.458 19.379 170.214 21.9641 169.347 24.1514C168.37 26.6138 167.134 28.9651 165.659 31.1653C164.005 33.6238 162.044 36.0191 161.519 38.9476C161.296 41.2215 161.586 43.5165 162.369 45.6632C163.78 50.4642 165.51 55.1657 167.548 59.7363C168.181 61.1553 169.039 62.728 170.558 63.0715C171.175 63.1526 171.803 63.0868 172.391 62.8795C172.978 62.6722 173.508 62.3292 173.938 61.8784C174.788 61.093 175.461 60.1353 175.912 59.0692C176.362 58.003 176.58 56.853 176.55 55.696C176.46 52.9845 175.041 50.2277 176.135 47.7692C176.465 47.1571 176.936 46.6315 177.508 46.2351C178.079 45.8386 178.737 45.5825 179.426 45.4875C180.115 45.3924 180.817 45.461 181.475 45.6879C182.133 45.9147 182.728 46.2933 183.212 46.793C184.219 48.238 184.633 50.014 184.369 51.7552C184.099 53.4769 183.981 55.219 184.016 56.9614C184.125 58.0009 184.577 59.1849 185.589 59.4561C186.026 59.53 186.476 59.4694 186.877 59.2821C187.279 59.0949 187.615 58.7899 187.84 58.4076C188.276 57.6378 188.581 56.8009 188.743 55.931C189.587 52.785 191.132 49.8709 193.263 47.4077C193.824 46.6189 194.647 46.0552 195.586 45.8169C195.96 45.7744 196.339 45.8104 196.698 45.9224C197.058 46.0345 197.39 46.2202 197.674 46.4676Z" fill="#000D44"/>
<path d="M219.439 236.232C220.454 236.06 221.482 235.978 222.512 235.988C224.509 236.648 227.844 235.69 229.245 235.157C232.427 233.955 237.29 231.84 240.562 232.445C242.469 232.78 253.866 235.437 251.064 240.119C250.694 240.743 249.257 241.728 248.895 241.574C247.729 241.131 244.448 239.938 244.448 239.938C245.487 240.303 246.502 240.735 247.485 241.231C247.928 241.547 248.769 241.927 249.058 242.379C249.682 243.346 248.733 245.434 247.738 245.777C246.744 246.121 246.003 245.126 245.171 244.674H245.226C246.012 245.298 247.729 245.741 246.672 248.145C245.488 250.857 244.665 249.139 243.526 248.85C243.103 248.724 242.692 248.561 242.297 248.362C243.105 248.753 243.892 249.184 244.656 249.655C245.723 250.558 243.364 253.776 241.249 253.505C239.956 253.342 236.874 251.471 236.142 251.697C232.65 252.37 229.036 251.937 225.802 250.459C224.735 249.98 222.611 249.139 221.554 248.57C219.326 247.311 217.21 245.866 215.227 244.25C216.98 240.905 219.791 240.047 219.439 236.232Z" fill="white"/>
<path d="M218.498 248.687L228.594 233.548C228.594 233.548 201.225 192.124 190.497 170.974C179.768 149.824 173.088 111.69 161.636 105.77C150.185 99.8493 135.831 102.57 137.422 121.686C139.013 140.803 167.349 174.598 172.194 184.351C177.038 194.104 212.677 242.415 218.498 248.687Z" fill="#5468FF"/>
<path opacity="0.15" d="M573.226 459.178C625.361 459.178 667.625 456.94 667.625 454.179C667.625 451.419 625.361 449.181 573.226 449.181C521.091 449.181 478.828 451.419 478.828 454.179C478.828 456.94 521.091 459.178 573.226 459.178Z" fill="#5468FF"/>
<path d="M610.854 426.151C610.854 426.151 611.929 434.051 612.065 435.19C612.2 436.328 624.05 434.494 624.05 434.494L625.008 425.093C625.008 425.093 612.336 425.039 610.854 426.151Z" fill="#F5B58F"/>
<path d="M611.911 434.232C611.911 434.232 608.16 438.986 604.527 441.065C600.893 443.144 595.19 443.957 593.048 446.108C591.502 447.654 587.408 454.324 602.484 454.198C617.561 454.071 624.828 455.102 626.445 452.58C628.063 450.058 624.104 433.698 624.104 433.698C624.104 433.698 620.444 434.774 611.911 434.232Z" fill="#000D44"/>
<path d="M528.838 426.151C528.838 426.151 529.914 434.051 530.049 435.19C530.185 436.328 542.034 434.494 542.034 434.494L542.992 425.093C542.992 425.093 530.311 425.039 528.838 426.151Z" fill="#F5B58F"/>
<path d="M529.923 434.232C529.923 434.232 526.172 438.986 522.538 441.065C518.905 443.144 505.546 444.843 503.403 446.985C501.858 448.531 499.282 454.776 520.495 454.216C535.572 453.8 542.839 455.12 544.457 452.598C546.075 450.076 542.116 433.716 542.116 433.716C538.078 434.285 533.994 434.458 529.923 434.232Z" fill="#000D44"/>
<path d="M606.868 234.813C610.705 244.29 612.501 254.469 612.137 264.686C611.342 280.955 615.283 298.752 616.892 315.745C618.699 334.726 626.039 379.53 626.301 389.662C626.563 399.795 625.162 432.144 625.162 432.144L610.447 432.496C610.447 432.496 598.091 354.096 594.892 346.096C591.692 338.097 575.82 288.964 575.287 282.564C574.754 276.165 606.868 234.813 606.868 234.813Z" fill="#1B255E"/>
<path d="M545.876 232.852C545.876 232.852 536.946 277.502 535.879 287.445C534.812 297.387 534.071 335.62 533.565 341.848C533.059 348.075 530.013 423.267 527.166 432.514H543.571C543.571 432.514 560.392 377.83 560.392 351.98C560.392 326.13 571.545 303.651 578.749 286.586C585.953 269.521 602.43 266.484 606.859 234.822C606.868 234.813 551.868 222.801 545.876 232.852Z" fill="#1B255E"/>
<path d="M596.112 113.091C601.435 104.052 602.963 92.1034 604.31 81.7361C604.942 76.8553 606.054 69.9047 602.628 66.8587C598.95 63.5867 598.597 58.5432 594.376 56.0124C590.155 53.4816 584.434 53.3008 580.439 56.166" fill="#000D44"/>
<path d="M581.361 144.961C579.427 145.108 577.483 144.865 575.645 144.246C573.807 143.626 572.112 142.643 570.662 141.356C569.211 140.068 568.035 138.502 567.202 136.75C566.369 134.998 565.898 133.097 565.815 131.159C565.489 123.305 565.2 115.36 565.2 115.36C565.2 115.36 553.287 114.275 552.392 102.498C551.498 90.7206 551.805 63.5054 551.805 63.5054C558.325 60.1965 565.61 58.6882 572.908 59.1363C580.206 59.5844 587.253 61.9726 593.319 66.0543L592.704 107.541L592.768 129.858C592.686 137.332 588.818 144.365 581.361 144.961Z" fill="#F5B58F"/>
<path d="M564.07 88.072C566.095 85.5502 569.403 84.5379 572.124 86.2643C573.46 87.1866 574.425 88.5534 574.847 90.1211C575.269 91.6887 575.121 93.3553 574.429 94.8238C573.823 95.9144 572.997 96.8676 572.005 97.6236C571.013 98.3796 569.874 98.922 568.662 99.2166C567.576 99.453 566.615 100.082 565.963 100.982C565.311 101.882 565.014 102.992 565.128 104.097C565.471 107.053 570.397 108.156 572.63 110.596C576.092 114.392 583.684 116.019 588.791 116.571C593.898 117.122 593.211 117.203 596.112 113.064C598.068 110.26 599.064 106.899 598.95 103.483L599.411 77.4065C599.598 74.2744 599.388 71.1312 598.788 68.0516C598.168 64.9463 596.399 62.1895 593.834 60.3326C590.96 58.4526 587.327 58.308 584.064 57.2595C579.978 55.9489 576.498 53.2554 572.675 51.3121C568.852 49.3688 564.161 48.2119 560.337 50.1552C557.626 51.5471 555.755 54.2949 553.107 55.8314C549.301 58.0097 544.113 57.5307 542.26 63.1436C541.64 65.0976 541.669 67.1998 542.342 69.1362C544.945 76.7557 554.399 79.8017 561.196 76.4846C561.332 77.7771 560.066 80.6513 561.44 84.7277C561.874 86.0293 562.037 88.0178 564.079 88.0449" fill="#000D44"/>
<path d="M566.194 95.4203C566.149 95.4203 566.149 95.6463 566.357 95.9265C566.519 96.1214 566.72 96.2801 566.948 96.3922C567.175 96.5043 567.423 96.5674 567.677 96.5773C568.996 96.6948 570.668 95.2757 570.723 93.3144C570.746 92.8592 570.679 92.4039 570.523 91.9754C570.368 91.5469 570.129 91.154 569.819 90.8197C569.337 90.2922 568.707 89.9234 568.011 89.7622C566.8 89.5091 566.095 89.9611 566.149 90.0424C566.203 90.1237 566.872 89.9882 567.848 90.3407C568.463 90.5397 568.996 90.9347 569.365 91.4652C569.734 91.9958 569.918 92.6326 569.891 93.2782C569.902 93.9177 569.687 94.5406 569.283 95.0367C568.88 95.5329 568.314 95.8705 567.686 95.9898C566.718 96.053 566.285 95.348 566.194 95.4203Z" fill="#EFAB89"/>
<path d="M562.281 126.369L565.345 120.06L592.786 119.056L596.157 127.245H562.715" fill="#5468FF"/>
<path opacity="0.2" d="M562.281 126.369L565.345 120.06L592.786 119.056L596.157 127.245H562.715" fill="#000D44"/>
<path d="M491.563 183.312H511.447L529.199 186.023L518.263 211.051L487.414 188.717L488.562 186.846C489.371 185.518 490.384 184.325 491.563 183.312Z" fill="#F5B58F"/>
<path d="M470.765 183.321C470.955 182.363 463.724 144.771 461.726 134.44C461.665 134.123 461.675 133.797 461.754 133.484C461.834 133.171 461.982 132.88 462.188 132.631C462.393 132.382 462.652 132.182 462.944 132.045C463.236 131.907 463.555 131.836 463.878 131.837H517.205C517.697 131.838 518.173 132.004 518.559 132.309C518.944 132.614 519.216 133.04 519.329 133.518L530.248 179.542L557.156 181.549L556.252 183.357L470.765 183.321Z" fill="#5468FF"/>
<path opacity="0.2" d="M470.765 183.321C470.955 182.363 463.724 144.771 461.726 134.44C461.665 134.123 461.675 133.797 461.754 133.484C461.834 133.171 461.982 132.88 462.188 132.631C462.393 132.382 462.652 132.182 462.944 132.045C463.236 131.907 463.555 131.836 463.878 131.837H517.205C517.697 131.838 518.173 132.004 518.559 132.309C518.944 132.614 519.216 133.04 519.329 133.518L530.248 179.542L557.156 181.549L556.252 183.357L470.765 183.321Z" fill="#000D44"/>
<path d="M473.106 179.985L464.474 134.404L516.889 134.72L528.395 180.049L473.106 179.985Z" fill="white"/>
<path opacity="0.05" d="M464.519 134.44L473.133 179.958L528.358 180.021L516.861 134.756L464.519 134.44Z" fill="#5468FF"/>
<path opacity="0.25" d="M476.767 168.787C476.992 168.84 477.222 168.864 477.454 168.859L479.415 168.922L486.646 169.031C492.747 169.094 501.171 169.13 510.471 169.13H518.543L518.434 168.723L513.771 150.646L512.342 145.386C512.195 144.745 511.999 144.116 511.755 143.506C511.829 144.159 511.952 144.806 512.125 145.44L513.364 150.755L517.802 168.832L518.118 168.425H510.471C501.171 168.425 492.738 168.425 486.646 168.524L479.415 168.633L477.454 168.696C477.222 168.696 476.991 168.727 476.767 168.787Z" fill="#5468FF"/>
<path opacity="0.25" d="M514.729 167.06L513.753 162.667H507.01L507.868 167.06H514.729Z" fill="#5468FF"/>
<path opacity="0.25" d="M505.564 167.06L503.521 158.41H496.778L498.694 167.06H505.564Z" fill="#5468FF"/>
<path opacity="0.25" d="M496.39 167.06L495.413 162.667H488.662L489.529 167.06H496.39Z" fill="#5468FF"/>
<path opacity="0.25" d="M487.215 167.06L483.356 150.248H476.613L480.355 167.06H487.215Z" fill="#5468FF"/>
<path opacity="0.25" d="M509.441 171.977C509.441 172.167 510.67 172.303 512.153 172.285C513.635 172.267 514.864 172.104 514.864 171.923C514.864 171.742 513.653 171.598 512.153 171.616C510.652 171.634 509.432 171.751 509.441 171.977Z" fill="#5468FF"/>
<path opacity="0.25" d="M500.547 171.959C500.547 172.149 501.776 172.285 503.259 172.267C504.741 172.249 505.97 172.086 505.97 171.905C505.97 171.724 504.759 171.58 503.259 171.598C501.758 171.616 500.538 171.751 500.547 171.959Z" fill="#5468FF"/>
<path opacity="0.25" d="M491.699 171.941C491.699 172.131 492.928 172.266 494.41 172.248C495.892 172.23 497.122 172.067 497.122 171.887C497.122 171.706 495.911 171.561 494.41 171.579C492.91 171.597 491.653 171.751 491.699 171.941Z" fill="#5468FF"/>
<path opacity="0.25" d="M482.768 171.932C482.768 172.122 483.997 172.257 485.48 172.239C486.962 172.221 488.191 172.058 488.191 171.878C488.191 171.697 486.98 171.552 485.48 171.57C483.979 171.588 482.759 171.751 482.768 171.932Z" fill="#5468FF"/>
<path opacity="0.25" d="M503.394 141.879C507.563 141.879 510.942 141.729 510.942 141.544C510.942 141.36 507.563 141.21 503.394 141.21C499.226 141.21 495.847 141.36 495.847 141.544C495.847 141.729 499.226 141.879 503.394 141.879Z" fill="#5468FF"/>
<path opacity="0.25" d="M507.127 140.008C508.974 140.008 510.472 139.858 510.472 139.673C510.472 139.489 508.974 139.339 507.127 139.339C505.28 139.339 503.783 139.489 503.783 139.673C503.783 139.858 505.28 140.008 507.127 140.008Z" fill="#5468FF"/>
<path d="M627.919 205.908L602.285 195.721L608.007 174.49L628.895 181.585L627.919 205.908Z" fill="#5468FF"/>
<path d="M519.302 211.638C512.912 208.466 511.276 200.846 514.394 194.465L540.95 137.703C541.568 136.295 542.495 135.044 543.661 134.042C546.641 131.393 550.119 129.364 553.891 128.073C557.664 126.781 561.656 126.254 565.634 126.522L593.328 125.799C593.328 125.799 615.084 125.799 623.246 142.972C623.842 144.229 636.487 169.311 644.83 185.842C645.742 187.644 646.262 189.618 646.356 191.635C646.45 193.652 646.116 195.666 645.376 197.544C644.636 199.423 643.506 201.123 642.061 202.533C640.616 203.944 638.889 205.032 636.993 205.727C633.595 206.975 629.849 206.888 626.512 205.482C623.176 204.076 620.497 201.457 619.016 198.153L609.977 177.961L608.549 185.192C605.982 198.225 604.644 218.634 608.07 231.659C608.749 234.139 609.105 236.698 609.127 239.269V239.577L543.571 236.829L548.994 199.707L550.666 176.966L536.738 205.691C535.989 207.236 534.941 208.617 533.655 209.755C532.37 210.892 530.871 211.764 529.246 212.318C527.621 212.873 525.903 213.1 524.19 212.987C522.477 212.873 520.803 212.421 519.266 211.656L519.302 211.638Z" fill="#5468FF"/>
<path d="M559.488 161.547C557.87 174.607 558.584 173.613 555.872 186.493C554.534 192.82 552.908 199.436 548.533 204.218L550.693 176.939L559.488 161.547Z" fill="#5468FF"/>
<path d="M620.119 198.433C620.741 199.43 621.465 200.36 622.279 201.208C621.784 200.145 621.194 199.128 620.516 198.171C619.368 196.363 617.805 193.805 616.105 190.94C614.406 188.075 612.969 182.805 611.911 180.998C611.4 179.945 610.795 178.941 610.104 177.997C610.458 179.118 610.927 180.199 611.505 181.224C612.463 183.167 613.855 188.454 615.545 191.329" fill="#5468FF"/>
<path d="M548.235 134.404C548.235 134.512 549.392 134.937 551.1 136.004C553.331 137.374 555.232 139.217 556.671 141.404C558.11 143.591 559.05 146.067 559.425 148.658C559.723 150.655 559.632 151.921 559.75 151.921C560.018 150.832 560.067 149.702 559.895 148.594C559.636 145.896 558.723 143.302 557.235 141.037C555.746 138.772 553.727 136.904 551.353 135.597C550.403 134.996 549.343 134.591 548.235 134.404Z" fill="#5468FF"/>
<path d="M611.18 177.676C614.809 161.403 617.604 148.178 617.424 148.138C617.244 148.098 614.156 161.257 610.527 177.53C606.899 193.804 604.103 207.028 604.284 207.068C604.464 207.109 607.552 193.949 611.18 177.676Z" fill="#5468FF"/>
<path d="M487.387 188.708L474.859 183.321H491.545L487.902 188.039" fill="#F5B58F"/>
<path d="M536.195 206.721C536.597 206.172 536.951 205.588 537.253 204.977C537.894 203.838 538.789 202.166 539.874 200.096C542.052 195.956 544.935 190.154 548.099 183.781C551.262 177.409 554.164 171.616 556.315 167.467L558.864 162.55C559.216 161.974 559.519 161.37 559.768 160.742C559.351 161.279 558.983 161.85 558.665 162.45C557.987 163.571 557.056 165.216 555.953 167.268C553.694 171.362 550.72 177.111 547.557 183.537L539.503 199.942L537.072 204.914C536.729 205.49 536.435 206.095 536.195 206.721Z" fill="#5468FF"/>
<path opacity="0.1" d="M620.119 198.433C620.741 199.43 621.465 200.36 622.279 201.208C621.784 200.145 621.194 199.128 620.516 198.171C619.368 196.363 617.805 193.805 616.105 190.94C614.406 188.075 612.969 182.805 611.911 180.998C611.4 179.945 610.795 178.941 610.104 177.997C610.458 179.118 610.927 180.199 611.505 181.224C612.463 183.167 613.855 188.454 615.545 191.329" fill="#000D44"/>
<path opacity="0.1" d="M548.235 134.404C548.235 134.512 549.392 134.937 551.1 136.004C553.331 137.374 555.232 139.217 556.671 141.404C558.11 143.591 559.05 146.067 559.425 148.658C559.723 150.655 559.632 151.921 559.75 151.921C560.018 150.832 560.067 149.702 559.895 148.594C559.636 145.896 558.723 143.302 557.235 141.037C555.746 138.772 553.727 136.904 551.353 135.597C550.403 134.996 549.343 134.591 548.235 134.404Z" fill="#000D44"/>
<path opacity="0.1" d="M611.18 177.676C614.809 161.403 617.604 148.178 617.424 148.138C617.244 148.098 614.156 161.257 610.527 177.53C606.899 193.804 604.103 207.028 604.284 207.068C604.464 207.109 607.552 193.949 611.18 177.676Z" fill="#000D44"/>
<path opacity="0.1" d="M536.195 206.721C536.597 206.172 536.951 205.588 537.253 204.977C537.894 203.838 538.789 202.166 539.874 200.096C542.052 195.956 544.935 190.154 548.099 183.781C551.262 177.409 554.164 171.616 556.315 167.467L558.864 162.55C559.216 161.974 559.519 161.37 559.768 160.742C559.351 161.279 558.983 161.85 558.665 162.45C557.987 163.571 557.056 165.216 555.953 167.268C553.694 171.362 550.72 177.111 547.557 183.537L539.503 199.942L537.072 204.914C536.729 205.49 536.435 206.095 536.195 206.721Z" fill="#000D44"/>
</svg>
