<svg id="favicon" xmlns="http://www.w3.org/2000/svg" width="39" height="39.085" viewBox="0 0 39 39.085">
  <path id="Path_10" data-name="Path 10" d="M38.352,11.3l-5.2-5.2-.184-.122a1.768,1.768,0,0,0-1.285-.306l-7.955.673C17.363,1.086,9.408-1.178,2.861.6A3.044,3.044,0,0,0,.6,2.86c-1.775,6.486.49,14.5,5.691,20.683l-.8,8.138a2.364,2.364,0,0,0,.673,1.652l5.018,5.079a2.519,2.519,0,0,0,1.469.673,1.213,1.213,0,0,0,.673-.184,2.719,2.719,0,0,0,1.469-1.775l.8-6.486c.8.306,1.652.734,2.448.979a3.366,3.366,0,0,0,.979.184,3.064,3.064,0,0,0,2.264-.979L30.7,21.4a3.62,3.62,0,0,0,.8-3.427c-.306-.8-.673-1.652-.979-2.448l6.67-.8a2.333,2.333,0,0,0,1.652-1.469A1.614,1.614,0,0,0,38.352,11.3ZM11.979,34.435,8.858,31.314l.49-4.712c1.163.979,2.264,1.774,3.427,2.631Zm7.159-5.691A25.324,25.324,0,0,1,10.02,22.87C4.513,17.363,1.882,9.714,3.534,3.656c6.18-1.591,13.646.857,19.214,6.547a26.233,26.233,0,0,1,5.874,9.117Zm9.913-16.093A42.735,42.735,0,0,0,26.42,9.224l4.712-.306,3.121,3.121Z" fill="#2f80ed"/>
  <path id="Path_11" data-name="Path 11" d="M34.436,24.522a1.709,1.709,0,0,0-1.775.184c-.673.49-3.733,3.549-4.222,4.039-4.222,4.222-4.222,4.222-3.916,5.2a1.42,1.42,0,0,0,.49.8c2.142,2.142,5.2,2.631,7.649,2.631a19.562,19.562,0,0,0,3.243-.306,1.718,1.718,0,0,0,1.285-1.285c0-.306,1.469-7.343-2.264-10.892A4.881,4.881,0,0,0,34.436,24.522Zm-.306,9.607a10.927,10.927,0,0,1-5.691-.673c1.285-1.469,3.549-3.549,4.9-4.9A13.537,13.537,0,0,1,34.13,34.129Z" fill="#2f80ed"/>
  <path id="Path_12" data-name="Path 12" d="M15.711,10.2a5.507,5.507,0,1,0,5.507,5.507A5.446,5.446,0,0,0,15.711,10.2Zm0,7.771a2.264,2.264,0,1,1,2.264-2.264A2.151,2.151,0,0,1,15.711,17.975Z" fill="#2f80ed"/>
</svg>
