<svg width="507" height="497" viewBox="0 0 507 497" fill="none" xmlns="http://www.w3.org/2000/svg">
<g clip-path="url(#clip0)">
<path d="M0.526367 221.369C0.526367 217.868 4.86913 215.03 10.2237 215.03H496.568C501.94 215.03 506.265 217.868 506.265 221.369V232.92H470.52V495.124H458.594V232.893H50.6875V495.438H38.7606V232.893H0.526367V221.369Z" fill="white"/>
<path opacity="0.5" d="M0.526367 221.369C0.526367 217.868 4.86913 215.03 10.2237 215.03H496.568C501.94 215.03 506.265 217.868 506.265 221.369V232.92H470.52V495.124H458.594V232.893H50.6875V495.438H38.7606V232.893H0.526367V221.369Z" fill="#5468FF"/>
<path d="M194.035 79.3118H142.674V215.209H194.035V79.3118Z" fill="#5468FF"/>
<path opacity="0.2" d="M194.035 79.3118H142.674V215.209H194.035V79.3118Z" fill="#000D44"/>
<path d="M70.96 26.9748V167.555L120.673 166.758L172.715 165.925L189.146 165.657L241.742 164.815L273.565 164.304V26.9748C273.563 24.7797 272.689 22.6753 271.136 21.1239C269.583 19.5726 267.478 18.7012 265.283 18.7012H79.2515C78.1638 18.7 77.0865 18.9131 76.0812 19.3282C75.0759 19.7434 74.1621 20.3525 73.3922 21.1208C72.6223 21.889 72.0112 22.8014 71.5939 23.8059C71.1765 24.8103 70.9611 25.8871 70.96 26.9748Z" fill="#5468FF"/>
<path opacity="0.2" d="M70.96 26.9748V167.555L120.673 166.758L172.715 165.925L189.146 165.657L241.742 164.815L273.565 164.304V26.9748C273.563 24.7797 272.689 22.6753 271.136 21.1239C269.583 19.5726 267.478 18.7012 265.283 18.7012H79.2515C78.1638 18.7 77.0865 18.9131 76.0812 19.3282C75.0759 19.7434 74.1621 20.3525 73.3922 21.1208C72.6223 21.889 72.0112 22.8014 71.5939 23.8059C71.1765 24.8103 70.9611 25.8871 70.96 26.9748Z" fill="#000D44"/>
<path d="M265.229 29.9208H79.2964C78.8711 29.9208 78.5264 30.2655 78.5264 30.6908V155.825C78.5264 156.25 78.8711 156.595 79.2964 156.595H265.229C265.655 156.595 265.999 156.25 265.999 155.825V30.6908C265.999 30.2655 265.655 29.9208 265.229 29.9208Z" fill="white"/>
<path d="M70.96 163.651H273.503V174.19C273.503 177.811 272.064 181.285 269.503 183.845C266.942 186.406 263.469 187.845 259.848 187.845H84.615C80.9935 187.845 77.5203 186.406 74.9594 183.845C72.3986 181.285 70.96 177.811 70.96 174.19V163.651Z" fill="#5468FF"/>
<path d="M213.707 215.737H129.018C127.772 215.737 126.576 215.242 125.694 214.36C124.813 213.479 124.317 212.283 124.317 211.036C124.317 209.789 124.813 208.594 125.694 207.712C126.576 206.83 127.772 206.335 129.018 206.335H213.707C214.953 206.335 216.149 206.83 217.031 207.712C217.912 208.594 218.408 209.789 218.408 211.036C218.408 212.283 217.912 213.479 217.031 214.36C216.149 215.242 214.953 215.737 213.707 215.737Z" fill="#5468FF"/>
<path d="M227.962 476.231C227.217 476.151 226.508 475.87 225.911 475.416C225.911 475.551 225.831 475.694 225.795 475.819C225.661 476.353 225.644 476.909 225.743 477.451C225.843 477.992 226.057 478.506 226.372 478.957C226.687 479.409 227.095 479.787 227.568 480.068C228.042 480.348 228.57 480.524 229.117 480.583C237.131 481.459 245.186 481.911 253.248 481.935C265.605 481.935 275.947 481.451 279.153 481.281C279.429 481.27 279.69 481.149 279.878 480.946C280.065 480.743 280.165 480.474 280.156 480.198C280.156 479.455 280.093 478.309 280.021 476.947C276.27 477.127 265.757 477.583 253.266 477.583C244.814 477.559 236.369 477.107 227.962 476.231Z" fill="white"/>
<path d="M259.937 462.11C259.937 462.11 238.321 462.818 232.322 465.414C228.803 466.946 226.896 471.682 225.92 475.416C226.516 475.87 227.225 476.151 227.97 476.231C236.376 477.119 244.822 477.583 253.275 477.619C265.811 477.619 276.278 477.171 280.03 476.983C279.86 473.402 279.501 468.235 278.776 463.552C272.46 463.998 266.112 463.512 259.937 462.11Z" fill="#000D44"/>
<path d="M173.484 476.106C173.336 476.085 173.19 476.056 173.046 476.016C172.974 476.294 172.893 476.58 172.84 476.831C172.743 477.24 172.735 477.665 172.816 478.078C172.896 478.49 173.063 478.881 173.306 479.224C173.549 479.567 173.863 479.854 174.225 480.067C174.588 480.28 174.992 480.413 175.41 480.457C184.185 481.414 193.005 481.907 201.833 481.935C214.861 481.935 225.759 481.442 229.027 481.281C229.296 481.27 229.55 481.152 229.733 480.954C229.915 480.756 230.013 480.494 230.003 480.225C230.003 479.481 229.94 478.344 229.869 476.983C225.392 477.18 214.566 477.583 201.86 477.583C189.906 477.619 178.848 476.661 173.484 476.106Z" fill="white"/>
<path d="M208.836 462.11C208.836 462.11 186.2 462.818 179.914 465.414C176.019 467.026 174.013 472.255 173.046 476.016C173.19 476.056 173.337 476.086 173.485 476.106C178.857 476.661 189.898 477.619 201.869 477.619C214.566 477.619 225.365 477.216 229.878 477.019C229.673 472.522 229.234 468.039 228.562 463.588C221.949 464.022 215.309 463.524 208.836 462.11Z" fill="#000D44"/>
<path d="M326.932 270.375C277.586 268.907 249.327 280.422 247.034 295.733C244.742 311.045 255.845 462.28 255.845 462.28C255.845 462.28 264.423 467.008 278.777 464.215C278.777 464.215 288.062 413.883 290.99 389.94C293.918 365.997 291.232 333.475 291.232 333.475C291.232 333.475 337.408 349.593 365.256 332.033C393.103 314.474 367.7 265.567 367.7 265.567L326.932 270.375Z" fill="#1B255E"/>
<path d="M276.869 270.375C227.523 268.907 199.263 280.467 196.944 295.734C194.625 311 206.436 462.236 206.436 462.236C206.436 462.236 213.599 466.713 228.714 464.716C228.714 464.716 237.999 413.928 240.927 389.985C243.855 366.041 241.169 333.52 241.169 333.52C241.169 333.52 287.345 349.638 315.193 332.078C343.04 314.519 317.637 265.612 317.637 265.612L276.869 270.375Z" fill="#1B255E"/>
<path d="M297.07 22.1575C293.816 29.9838 291.673 38.2269 290.704 46.6471C290.704 46.6471 286.226 54.4819 286.164 57.2846C286.101 60.0872 290.318 61.2692 290.318 61.2692C290.318 61.2692 290.318 76.7419 294.196 81.6309C298.073 86.5199 311.826 86.6542 311.826 86.6542C311.826 86.6542 313.528 91.0059 309.48 108.028H348.091C348.091 108.028 343.533 95.7605 342.718 76.2584C341.903 56.7563 350.956 22.1575 297.07 22.1575Z" fill="#F5B58F"/>
<path d="M352.003 17.1432C351.218 16.2799 350.338 15.5079 349.38 14.842C345.567 12.1377 341.219 10.2814 336.629 9.39784C330.648 8.06367 324.478 7.75028 318.452 6.6131C311.45 5.29684 304.698 2.87922 297.965 0.560099C297.572 0.362984 297.143 0.248568 296.704 0.223926C296.265 0.199284 295.826 0.26494 295.413 0.416833C295.079 0.663191 294.8 0.975511 294.592 1.33441C294.384 1.69331 294.252 2.09112 294.204 2.50315C293.448 5.73148 293.315 9.07431 293.81 12.3527L291.285 10.0515C290.39 13.0153 290.999 16.2119 292.019 19.131C293.04 22.05 294.491 24.79 295.44 27.727C297.365 33.6546 297.177 40.0658 296.335 46.2352C295.986 47.8826 295.955 49.5817 296.246 51.2406C296.667 52.8881 298.037 54.4282 299.702 54.4999C299.789 52.5566 300.299 50.6557 301.197 48.9304C302.218 47.2828 304.251 46.0919 306.104 46.656C307.958 47.2201 308.916 49.208 309.22 51.1331C309.644 53.8234 309.102 56.5769 307.689 58.9053C307.018 59.9977 306.122 61.1438 306.346 62.4064C306.501 63.0648 306.808 63.678 307.241 64.1972L311.513 69.9547C313.357 72.444 315.264 74.9869 317.852 76.6972C320.753 78.6223 324.29 79.3387 327.764 79.5983C331.137 79.9078 334.537 79.6044 337.802 78.7029C339.163 78.3687 340.421 77.7045 341.464 76.7688C342.314 75.8234 342.985 74.7311 343.443 73.5453C345.769 68.5385 347.782 63.3919 349.469 58.1352C352.576 48.1188 353.986 37.6534 353.642 27.1718C353.561 24.602 353.642 21.674 353.033 19.1668C352.85 18.4218 352.498 17.7292 352.003 17.1432Z" fill="#000D44"/>
<path d="M354.967 251.034C359.202 247.909 363.822 244.399 368.21 240.737C378.203 232.347 387.13 223.223 388.24 216.561C390.685 201.679 388.778 157.464 387.596 136.591C387.596 135.329 387.479 134.147 387.408 133.01C386.226 113.311 373.932 105.073 368.604 101.867C365.918 127.503 361.441 184.854 360.984 187.827C360.348 191.713 354.967 251.034 354.967 251.034Z" fill="#5468FF"/>
<path d="M353.642 107.419C353.642 107.419 351.296 97.5693 348.681 95.1427C346.067 92.7162 329.672 92.546 324.442 93.1997C319.213 93.8533 303.561 97.82 301.851 99.0915C300.141 100.363 297.589 107.419 297.589 107.419H353.642Z" fill="#5468FF"/>
<path opacity="0.2" d="M353.642 107.419C353.642 107.419 351.296 97.5693 348.681 95.1427C346.067 92.7162 329.672 92.546 324.442 93.1997C319.213 93.8533 303.561 97.82 301.851 99.0915C300.141 100.363 297.589 107.419 297.589 107.419H353.642Z" fill="#000D44"/>
<path d="M383.424 128.38C385.564 93.3966 348.099 96.7186 348.099 96.7186C300.41 93.7458 278.015 107.464 275.419 127.969C275.231 129.419 275.114 130.986 274.998 132.625C273.78 153.765 280.227 187.872 283.28 213.355C283.334 213.821 283.379 214.313 283.424 214.788C284.319 228.953 276.878 270.384 276.878 270.384C276.878 270.384 296.291 274.297 326.842 274.297C357.394 274.297 369.93 271.423 369.93 271.423C369.93 271.423 364.727 232.472 369.93 205.162C374.693 181.183 382.206 148.68 383.424 128.38Z" fill="#5468FF"/>
<path d="M301.529 149.306L306.991 101.384C306.991 101.384 285.134 99.6377 275.517 107.714C271.935 110.741 263.876 130.359 259.399 150.3C263.724 153.613 275.821 159.254 291.822 162.908C295.905 154.921 299.612 149.02 301.529 149.306Z" fill="#5468FF"/>
<path d="M174.56 215.451C175.395 212.577 176.719 209.87 178.473 207.446C181.347 203.533 190.113 202.968 203.786 204.625C204.726 204.276 238.976 191.489 254.099 189.922C255.648 181.702 258.72 165.898 262.212 150.291C266.537 153.604 274.389 153.336 290.39 156.998C282.627 175.515 273.431 204.15 273.431 204.15C262.83 219.569 223.449 216.919 209.14 215.397L174.56 215.451Z" fill="#F5B58F"/>
<path d="M420.072 496.593C419.588 496.72 419.082 496.747 418.586 496.672C418.09 496.597 417.615 496.421 417.19 496.157C416.764 495.892 416.397 495.543 416.11 495.132C415.824 494.72 415.624 494.255 415.524 493.763L370.377 332.723L383.683 328.712L422.705 491.588C422.968 492.6 422.845 493.674 422.358 494.6C421.871 495.526 421.056 496.236 420.072 496.593Z" fill="white"/>
<path opacity="0.5" d="M420.072 496.593C419.588 496.72 419.082 496.747 418.586 496.672C418.09 496.597 417.615 496.421 417.19 496.157C416.764 495.892 416.397 495.543 416.11 495.132C415.824 494.72 415.624 494.255 415.524 493.763L370.377 332.723L383.683 328.712L422.705 491.588C422.968 492.6 422.845 493.674 422.358 494.6C421.871 495.526 421.056 496.236 420.072 496.593Z" fill="#5468FF"/>
<path d="M230.684 496.593C231.169 496.72 231.674 496.746 232.17 496.671C232.666 496.596 233.141 496.421 233.567 496.156C233.992 495.892 234.36 495.543 234.646 495.131C234.932 494.72 235.132 494.254 235.232 493.763L280.379 332.732L267.073 328.72L228.051 491.596C227.79 492.607 227.915 493.679 228.402 494.603C228.889 495.527 229.702 496.236 230.684 496.593Z" fill="white"/>
<path opacity="0.5" d="M230.684 496.593C231.169 496.72 231.674 496.746 232.17 496.671C232.666 496.596 233.141 496.421 233.567 496.156C233.992 495.892 234.36 495.543 234.646 495.131C234.932 494.72 235.132 494.254 235.232 493.763L280.379 332.732L267.073 328.72L228.051 491.596C227.79 492.607 227.915 493.679 228.402 494.603C228.889 495.527 229.702 496.236 230.684 496.593Z" fill="#5468FF"/>
<path d="M285.966 496.691C286.467 496.749 286.975 496.707 287.46 496.567C287.944 496.427 288.396 496.192 288.789 495.875C289.181 495.558 289.507 495.166 289.746 494.722C289.986 494.278 290.135 493.791 290.184 493.289L316.93 327.556L303.292 325.309L282.823 492.071C282.662 493.096 282.897 494.145 283.48 495.003C284.064 495.861 284.953 496.465 285.966 496.691Z" fill="white"/>
<path opacity="0.5" d="M285.966 496.691C286.467 496.749 286.975 496.707 287.46 496.567C287.944 496.427 288.396 496.192 288.789 495.875C289.181 495.558 289.507 495.166 289.746 494.722C289.986 494.278 290.135 493.791 290.184 493.289L316.93 327.556L303.292 325.309L282.823 492.071C282.662 493.096 282.897 494.145 283.48 495.003C284.064 495.861 284.953 496.465 285.966 496.691Z" fill="#5468FF"/>
<path d="M367.198 496.691C366.697 496.749 366.189 496.707 365.705 496.567C365.22 496.427 364.768 496.192 364.376 495.875C363.983 495.558 363.657 495.166 363.418 494.722C363.178 494.278 363.03 493.791 362.981 493.289L336.262 327.556L349.899 325.309L370.35 492.071C370.511 493.097 370.275 494.147 369.69 495.005C369.104 495.864 368.213 496.467 367.198 496.691Z" fill="white"/>
<path opacity="0.5" d="M367.198 496.691C366.697 496.749 366.189 496.707 365.705 496.567C365.22 496.427 364.768 496.192 364.376 495.875C363.983 495.558 363.657 495.166 363.418 494.722C363.178 494.278 363.03 493.791 362.981 493.289L336.262 327.556L349.899 325.309L370.35 492.071C370.511 493.097 370.275 494.147 369.69 495.005C369.104 495.864 368.213 496.467 367.198 496.691Z" fill="#5468FF"/>
<path d="M433.28 166.122V166.328C433.182 167.009 433.048 167.788 432.86 168.656C432.564 169.883 432.206 171.145 431.785 172.515C429.502 180.037 425.714 190.424 424.89 210.123C424.21 226.563 427.004 248.885 425.786 269.22C424.568 289.555 421.013 317.94 399.765 333.162C395.664 336.156 391.137 338.516 386.334 340.164C382.09 341.655 377.737 342.817 373.314 343.638C366.399 344.922 359.405 345.745 352.38 346.1C347.974 346.351 343.551 346.468 339.199 346.512C330.326 346.584 321.739 346.324 314.181 346.1L308.621 345.957C306.346 345.895 303.803 345.769 301.01 345.545C294.303 345.035 286.271 344.086 277.801 342.859C273.431 342.205 268.954 341.462 264.468 340.665C239.584 336.188 214.996 329.607 211.862 323.831C210.823 322.156 210.401 320.17 210.671 318.217C210.705 317.913 210.768 317.613 210.859 317.322C211.056 316.722 211.337 316.152 211.692 315.629C211.978 315.191 212.311 314.785 212.686 314.421C213.948 313.223 215.499 312.372 217.187 311.951C218.876 311.531 220.644 311.555 222.321 312.021C232.931 314.707 264.566 320.751 278.777 302.727C295.987 280.887 288.501 282.732 295.906 229.535C302.872 179.213 316.957 169.059 342.933 159.004C365.229 150.434 398.288 151.67 416.285 154.231C419.737 154.66 423.153 155.33 426.511 156.237C428.256 156.752 429.819 157.751 431.019 159.119C432.219 160.487 433.006 162.167 433.289 163.964C433.38 164.681 433.377 165.406 433.28 166.122Z" fill="white"/>
<path opacity="0.5" d="M433.28 166.122V166.328C433.182 167.009 433.048 167.788 432.86 168.656C432.564 169.883 432.206 171.145 431.785 172.515C429.502 180.037 425.714 190.424 424.89 210.123C424.21 226.563 427.004 248.885 425.786 269.22C424.568 289.555 421.013 317.94 399.765 333.162C395.664 336.156 391.137 338.516 386.334 340.164C382.09 341.655 377.737 342.817 373.314 343.638C366.399 344.922 359.405 345.745 352.38 346.1C347.974 346.351 343.551 346.468 339.199 346.512C330.326 346.584 321.739 346.324 314.181 346.1L308.621 345.957C306.346 345.895 303.803 345.769 301.01 345.545C294.303 345.035 286.271 344.086 277.801 342.859C273.431 342.205 268.954 341.462 264.468 340.665C239.584 336.188 214.996 329.607 211.862 323.831C210.823 322.156 210.401 320.17 210.671 318.217C210.705 317.913 210.768 317.613 210.859 317.322C211.056 316.722 211.337 316.152 211.692 315.629C211.978 315.191 212.311 314.785 212.686 314.421C213.948 313.223 215.499 312.372 217.187 311.951C218.876 311.531 220.644 311.555 222.321 312.021C232.931 314.707 264.566 320.751 278.777 302.727C295.987 280.887 288.501 282.732 295.906 229.535C302.872 179.213 316.957 169.059 342.933 159.004C365.229 150.434 398.288 151.67 416.285 154.231C419.737 154.66 423.153 155.33 426.511 156.237C428.256 156.752 429.819 157.751 431.019 159.119C432.219 160.487 433.006 162.167 433.289 163.964C433.38 164.681 433.377 165.406 433.28 166.122Z" fill="#5468FF"/>
<path d="M433.28 166.122V166.328C433.182 167.009 433.048 167.788 432.859 168.656C432.564 169.883 432.206 171.145 431.785 172.515C429.502 180.037 425.714 190.424 424.89 210.123C424.21 226.563 427.003 248.885 425.786 269.22C424.568 289.555 421.013 317.94 399.765 333.162C395.664 336.156 391.136 338.516 386.334 340.164C382.09 341.655 377.737 342.817 373.314 343.638C366.399 344.923 359.405 345.745 352.38 346.1C347.974 346.351 343.551 346.468 339.199 346.512C330.326 346.584 321.739 346.324 314.181 346.1L308.621 345.957C306.346 345.895 303.803 345.769 301.01 345.545C294.303 345.035 286.271 344.086 277.801 342.859C273.431 342.205 268.954 341.462 264.468 340.665C239.584 336.188 214.996 329.607 211.862 323.831C210.823 322.156 210.401 320.17 210.671 318.217C210.705 317.913 210.768 317.613 210.859 317.322C211.056 316.722 211.337 316.152 211.692 315.629C212.22 314.859 223.941 319.82 225.123 320.259C253.598 331.156 292.745 323.652 297.527 288.669C301.583 258.869 300.32 230.126 311.128 201.366C332.385 144.722 416.509 160.23 433.325 163.973C433.403 164.688 433.388 165.411 433.28 166.122Z" fill="#5468FF"/>
<path d="M206.866 132.052H137.713C133.05 132.052 129.27 135.832 129.27 140.496V140.504C129.27 145.168 133.05 148.948 137.713 148.948H206.866C211.53 148.948 215.31 145.168 215.31 140.504V140.496C215.31 135.832 211.53 132.052 206.866 132.052Z" fill="#5468FF"/>
<path d="M207.967 135.732H153.356C152.728 135.732 152.219 136.241 152.219 136.869V137.236C152.219 137.864 152.728 138.373 153.356 138.373H207.967C208.595 138.373 209.104 137.864 209.104 137.236V136.869C209.104 136.241 208.595 135.732 207.967 135.732Z" fill="white"/>
<path d="M192.423 142.618H153.365C152.737 142.618 152.228 143.127 152.228 143.755V144.122C152.228 144.75 152.737 145.259 153.365 145.259H192.423C193.051 145.259 193.56 144.75 193.56 144.122V143.755C193.56 143.127 193.051 142.618 192.423 142.618Z" fill="white"/>
<path d="M141.483 135.409H140.131C139.792 135.39 139.454 135.444 139.138 135.567C138.822 135.69 138.536 135.879 138.299 136.122C138.062 136.364 137.88 136.655 137.765 136.974C137.65 137.293 137.605 137.632 137.633 137.97V139.152H136.272C136.243 139.152 136.215 139.158 136.189 139.169C136.163 139.179 136.14 139.195 136.12 139.215C136.1 139.235 136.084 139.259 136.073 139.285C136.062 139.311 136.057 139.339 136.057 139.367V141.077C136.057 141.106 136.062 141.133 136.073 141.16C136.084 141.186 136.1 141.209 136.12 141.229C136.14 141.249 136.163 141.265 136.189 141.276C136.215 141.287 136.243 141.292 136.272 141.292H137.633V145.617C137.633 145.674 137.655 145.729 137.696 145.769C137.736 145.809 137.79 145.832 137.847 145.832H139.638C139.695 145.832 139.75 145.809 139.79 145.769C139.831 145.729 139.853 145.674 139.853 145.617V141.292H141.429C141.486 141.292 141.541 141.27 141.581 141.229C141.621 141.189 141.644 141.134 141.644 141.077V139.367C141.644 139.339 141.639 139.311 141.628 139.285C141.617 139.259 141.601 139.235 141.581 139.215C141.561 139.195 141.538 139.179 141.511 139.168C141.485 139.158 141.457 139.152 141.429 139.152H139.844V138.149C139.844 137.666 139.961 137.424 140.587 137.424H141.483C141.54 137.424 141.594 137.401 141.635 137.361C141.675 137.321 141.698 137.266 141.698 137.209V135.615C141.698 135.558 141.675 135.504 141.635 135.463C141.594 135.423 141.54 135.4 141.483 135.4V135.409Z" fill="white"/>
<path d="M188.734 51.0256C188.734 53.9495 187.867 56.8077 186.242 59.2388C184.618 61.6699 182.309 63.5647 179.608 64.6836C176.906 65.8025 173.934 66.0953 171.066 65.5248C168.199 64.9544 165.564 63.5465 163.497 61.479C161.429 59.4115 160.021 56.7774 159.451 53.9097C158.881 51.042 159.173 48.0696 160.292 45.3683C161.411 42.667 163.306 40.3582 165.737 38.7338C168.168 37.1093 171.026 36.2423 173.95 36.2423C175.894 36.234 177.82 36.6107 179.617 37.3507C181.415 38.0907 183.048 39.1793 184.422 40.5538C185.797 41.9282 186.885 43.5612 187.625 45.3585C188.365 47.1558 188.742 49.0819 188.734 51.0256Z" fill="#5468FF"/>
<path d="M173.852 53.1657C176.27 53.1657 178.231 51.2054 178.231 48.7871C178.231 46.3689 176.27 44.4086 173.852 44.4086C171.434 44.4086 169.474 46.3689 169.474 48.7871C169.474 51.2054 171.434 53.1657 173.852 53.1657Z" fill="white"/>
<path d="M185.448 60.311C184.071 62.0161 182.333 63.3938 180.358 64.3445C178.384 65.2952 176.223 65.795 174.032 65.8079C171.84 65.8208 169.673 65.3463 167.688 64.4188C165.703 63.4914 163.948 62.1341 162.552 60.4453C163.832 58.6013 165.538 57.0924 167.524 56.0461C169.511 54.9997 171.72 54.4466 173.965 54.4335C176.21 54.4203 178.425 54.9474 180.424 55.9704C182.422 56.9934 184.145 58.4821 185.448 60.311Z" fill="white"/>
<path d="M205.495 92.4833H138.062C134.11 92.4833 130.907 95.6864 130.907 99.6376V99.6466C130.907 103.598 134.11 106.801 138.062 106.801H205.495C209.446 106.801 212.65 103.598 212.65 99.6466V99.6376C212.65 95.6864 209.446 92.4833 205.495 92.4833Z" fill="#5468FF"/>
<path d="M140.023 101.661C141.061 101.661 141.903 100.819 141.903 99.7809C141.903 98.7424 141.061 97.9005 140.023 97.9005C138.984 97.9005 138.143 98.7424 138.143 99.7809C138.143 100.819 138.984 101.661 140.023 101.661Z" fill="white"/>
<path d="M146.873 101.661C147.911 101.661 148.753 100.819 148.753 99.7809C148.753 98.7424 147.911 97.9005 146.873 97.9005C145.834 97.9005 144.992 98.7424 144.992 99.7809C144.992 100.819 145.834 101.661 146.873 101.661Z" fill="white"/>
<path d="M153.732 101.661C154.77 101.661 155.612 100.819 155.612 99.7809C155.612 98.7424 154.77 97.9005 153.732 97.9005C152.693 97.9005 151.852 98.7424 151.852 99.7809C151.852 100.819 152.693 101.661 153.732 101.661Z" fill="white"/>
<path d="M160.59 101.661C161.629 101.661 162.471 100.819 162.471 99.7809C162.471 98.7424 161.629 97.9005 160.59 97.9005C159.552 97.9005 158.71 98.7424 158.71 99.7809C158.71 100.819 159.552 101.661 160.59 101.661Z" fill="white"/>
<path d="M167.441 101.661C168.479 101.661 169.321 100.819 169.321 99.7809C169.321 98.7424 168.479 97.9005 167.441 97.9005C166.402 97.9005 165.561 98.7424 165.561 99.7809C165.561 100.819 166.402 101.661 167.441 101.661Z" fill="white"/>
<path d="M174.299 101.661C175.338 101.661 176.18 100.819 176.18 99.7809C176.18 98.7424 175.338 97.9005 174.299 97.9005C173.261 97.9005 172.419 98.7424 172.419 99.7809C172.419 100.819 173.261 101.661 174.299 101.661Z" fill="white"/>
<path d="M205.495 71.9514H138.062C134.11 71.9514 130.907 75.1545 130.907 79.1058V79.1147C130.907 83.066 134.11 86.2691 138.062 86.2691H205.495C209.446 86.2691 212.65 83.066 212.65 79.1147V79.1058C212.65 75.1545 209.446 71.9514 205.495 71.9514Z" fill="#5468FF"/>
<path d="M172.392 77.2255H138.017C137.211 77.2255 136.558 77.8789 136.558 78.685V79.1596C136.558 79.9656 137.211 80.6191 138.017 80.6191H172.392C173.198 80.6191 173.852 79.9656 173.852 79.1596V78.685C173.852 77.8789 173.198 77.2255 172.392 77.2255Z" fill="white"/>
<path d="M198.001 77.2255H179.072C178.266 77.2255 177.612 77.8789 177.612 78.685V79.1596C177.612 79.9656 178.266 80.6191 179.072 80.6191H198.001C198.807 80.6191 199.46 79.9656 199.46 79.1596V78.685C199.46 77.8789 198.807 77.2255 198.001 77.2255Z" fill="white"/>
<path d="M184.776 113.203H160.286C156.854 113.203 154.072 115.985 154.072 119.417C154.072 122.849 156.854 125.632 160.286 125.632H184.776C188.208 125.632 190.99 122.849 190.99 119.417C190.99 115.985 188.208 113.203 184.776 113.203Z" fill="#5468FF"/>
<path d="M160.582 115.155H161.477V121.513H164.521V122.283H160.555L160.582 115.155Z" fill="white"/>
<path d="M170.028 119.686C170.054 120.034 170.007 120.384 169.89 120.713C169.773 121.042 169.589 121.342 169.348 121.595C169.108 121.848 168.817 122.048 168.494 122.182C168.172 122.316 167.825 122.381 167.476 122.372C167.137 122.376 166.802 122.309 166.491 122.175C166.179 122.042 165.899 121.845 165.668 121.597C165.438 121.35 165.261 121.056 165.15 120.737C165.039 120.417 164.995 120.077 165.023 119.74C164.996 119.393 165.043 119.045 165.159 118.717C165.275 118.39 165.458 118.09 165.696 117.837C165.935 117.584 166.224 117.384 166.544 117.249C166.864 117.114 167.209 117.047 167.557 117.053C167.897 117.046 168.235 117.11 168.549 117.242C168.863 117.374 169.146 117.57 169.379 117.819C169.612 118.067 169.791 118.362 169.902 118.683C170.014 119.005 170.057 119.347 170.028 119.686ZM165.963 119.74C165.963 120.859 166.608 121.71 167.521 121.71C168.434 121.71 169.079 120.877 169.079 119.722C169.079 118.826 168.649 117.752 167.548 117.752C166.446 117.752 165.972 118.764 165.972 119.74H165.963Z" fill="white"/>
<path d="M175.616 117.17C175.616 117.537 175.616 117.949 175.616 118.576V121.548C175.669 121.968 175.63 122.394 175.503 122.797C175.377 123.2 175.165 123.571 174.882 123.886C174.361 124.319 173.696 124.54 173.019 124.503C172.425 124.519 171.837 124.373 171.318 124.083L171.551 123.375C172.006 123.645 172.526 123.784 173.055 123.778C174.004 123.778 174.703 123.277 174.703 121.987V121.414C174.539 121.698 174.301 121.932 174.013 122.09C173.726 122.248 173.401 122.324 173.073 122.31C172.764 122.295 172.461 122.218 172.182 122.083C171.903 121.949 171.655 121.759 171.451 121.525C171.248 121.292 171.094 121.02 170.999 120.725C170.904 120.431 170.869 120.12 170.897 119.811C170.865 119.483 170.9 119.151 171 118.836C171.099 118.521 171.261 118.229 171.476 117.978C171.691 117.728 171.954 117.523 172.25 117.376C172.546 117.229 172.869 117.144 173.198 117.125C173.522 117.107 173.844 117.182 174.126 117.341C174.408 117.499 174.639 117.735 174.792 118.021V117.251L175.616 117.17ZM174.649 119.194C174.654 119.051 174.636 118.909 174.595 118.773C174.517 118.489 174.347 118.239 174.113 118.061C173.878 117.883 173.591 117.787 173.297 117.788C172.402 117.788 171.775 118.54 171.775 119.722C171.775 120.725 172.285 121.566 173.288 121.566C173.576 121.565 173.855 121.472 174.087 121.301C174.319 121.131 174.49 120.891 174.577 120.617C174.628 120.455 174.652 120.286 174.649 120.116V119.194Z" fill="white"/>
<path d="M180.406 115.71C180.406 115.864 180.346 116.01 180.237 116.119C180.129 116.227 179.982 116.288 179.829 116.288C179.676 116.288 179.529 116.227 179.42 116.119C179.312 116.01 179.251 115.864 179.251 115.71C179.249 115.633 179.262 115.556 179.291 115.485C179.319 115.413 179.362 115.348 179.416 115.293C179.471 115.239 179.536 115.196 179.608 115.168C179.679 115.139 179.756 115.126 179.833 115.128C179.91 115.126 179.986 115.139 180.058 115.168C180.129 115.196 180.194 115.239 180.247 115.294C180.301 115.348 180.343 115.414 180.371 115.485C180.398 115.557 180.41 115.634 180.406 115.71ZM179.368 122.265V117.143H180.263V122.265H179.368Z" fill="white"/>
<path d="M181.839 118.549C181.839 118.021 181.839 117.591 181.839 117.161H182.618L182.672 118.003C182.844 117.699 183.098 117.449 183.405 117.281C183.712 117.113 184.06 117.035 184.409 117.054C185.116 117.054 186.2 117.474 186.2 119.229V122.283H185.304V119.292C185.304 118.468 185 117.779 184.122 117.779C183.841 117.784 183.569 117.879 183.345 118.05C183.121 118.221 182.957 118.458 182.878 118.728C182.833 118.867 182.812 119.012 182.815 119.158V122.238H181.919L181.839 118.549Z" fill="white"/>
</g>
<defs>
<clipPath id="clip0">
<rect width="505.748" height="496.534" fill="white" transform="translate(0.526367 0.201904)"/>
</clipPath>
</defs>
</svg>
