<svg width="682" height="462" viewBox="0 0 682 462" fill="none" xmlns="http://www.w3.org/2000/svg">
<path d="M692.954 459.43H20.0139C19.434 459.43 18.9639 459.9 18.9639 460.48V460.95C18.9639 461.53 19.434 462 20.0139 462H692.954C693.534 462 694.004 461.53 694.004 460.95V460.48C694.004 459.9 693.534 459.43 692.954 459.43Z" fill="white"/>
<path opacity="0.15" d="M692.954 459.43H20.0139C19.434 459.43 18.9639 459.9 18.9639 460.48V460.95C18.9639 461.53 19.434 462 20.0139 462H692.954C693.534 462 694.004 461.53 694.004 460.95V460.48C694.004 459.9 693.534 459.43 692.954 459.43Z" fill="#5468FF"/>
<path d="M434.424 162.83H494.124C497.903 162.841 501.524 164.346 504.196 167.018C506.868 169.69 508.374 173.311 508.384 177.09V199.68C508.382 203.135 507.12 206.47 504.834 209.06L508.384 225.27L487.924 213.94H434.424C430.645 213.93 427.024 212.424 424.352 209.752C421.68 207.08 420.175 203.459 420.164 199.68V177.09C420.175 173.311 421.68 169.69 424.352 167.018C427.024 164.346 430.645 162.841 434.424 162.83Z" fill="white"/>
<path opacity="0.3" d="M434.424 162.83H494.124C497.903 162.841 501.524 164.346 504.196 167.018C506.868 169.69 508.374 173.311 508.384 177.09V199.68C508.382 203.135 507.12 206.47 504.834 209.06L508.384 225.27L487.924 213.94H434.424C430.645 213.93 427.024 212.424 424.352 209.752C421.68 207.08 420.175 203.459 420.164 199.68V177.09C420.175 173.311 421.68 169.69 424.352 167.018C427.024 164.346 430.645 162.841 434.424 162.83Z" fill="#5468FF"/>
<path d="M433.304 180H495.204C495.509 180 495.81 179.94 496.092 179.824C496.373 179.707 496.629 179.536 496.844 179.321C497.06 179.105 497.231 178.849 497.347 178.568C497.464 178.286 497.524 177.985 497.524 177.68C497.524 177.375 497.464 177.074 497.347 176.792C497.231 176.511 497.06 176.255 496.844 176.04C496.629 175.824 496.373 175.653 496.092 175.537C495.81 175.42 495.509 175.36 495.204 175.36H433.304C432.689 175.36 432.098 175.605 431.663 176.04C431.228 176.475 430.984 177.065 430.984 177.68C430.984 178.295 431.228 178.886 431.663 179.321C432.098 179.756 432.689 180 433.304 180Z" fill="white"/>
<path d="M433.304 190.18H495.204C495.509 190.18 495.81 190.12 496.092 190.003C496.373 189.887 496.629 189.716 496.844 189.501C497.06 189.285 497.231 189.029 497.347 188.748C497.464 188.466 497.524 188.165 497.524 187.86C497.524 187.555 497.464 187.254 497.347 186.972C497.231 186.691 497.06 186.435 496.844 186.22C496.629 186.004 496.373 185.833 496.092 185.717C495.81 185.6 495.509 185.54 495.204 185.54H433.304C432.689 185.54 432.098 185.784 431.663 186.22C431.228 186.655 430.984 187.245 430.984 187.86C430.984 188.475 431.228 189.065 431.663 189.501C432.098 189.936 432.689 190.18 433.304 190.18Z" fill="white"/>
<path d="M433.304 199.94H495.204C495.509 199.94 495.81 199.88 496.092 199.763C496.373 199.647 496.629 199.476 496.844 199.261C497.06 199.045 497.231 198.789 497.347 198.508C497.464 198.226 497.524 197.925 497.524 197.62C497.524 197.315 497.464 197.014 497.347 196.732C497.231 196.451 497.06 196.195 496.844 195.98C496.629 195.764 496.373 195.593 496.092 195.477C495.81 195.36 495.509 195.3 495.204 195.3H433.304C432.689 195.3 432.098 195.544 431.663 195.98C431.228 196.415 430.984 197.005 430.984 197.62C430.984 198.235 431.228 198.825 431.663 199.261C432.098 199.696 432.689 199.94 433.304 199.94Z" fill="white"/>
<path d="M608.884 431.37V349.62H605.134V431.39C595.424 431.76 583.804 434.6 577.924 440.47C576.648 441.668 575.631 443.113 574.933 444.717C574.235 446.321 573.871 448.051 573.864 449.8H576.004C576.015 448.335 576.326 446.888 576.915 445.547C577.505 444.206 578.362 442.999 579.434 442C585.054 436.4 596.514 433.76 605.924 433.53V453.07H608.084V433.51C618.874 433.74 638.734 438.71 638.734 449.79H640.894C640.904 437.33 620.844 431.82 608.884 431.37Z" fill="#5468FF"/>
<path opacity="0.3" d="M608.884 431.37V349.62H605.134V431.39C595.424 431.76 583.804 434.6 577.924 440.47C576.648 441.668 575.631 443.113 574.933 444.717C574.235 446.321 573.871 448.051 573.864 449.8H576.004C576.015 448.335 576.326 446.888 576.915 445.547C577.505 444.206 578.362 442.999 579.434 442C585.054 436.4 596.514 433.76 605.924 433.53V453.07H608.084V433.51C618.874 433.74 638.734 438.71 638.734 449.79H640.894C640.904 437.33 620.844 431.82 608.884 431.37Z" fill="#000D44"/>
<path d="M574.934 458.05C577.867 458.05 580.244 455.673 580.244 452.74C580.244 449.807 577.867 447.43 574.934 447.43C572.001 447.43 569.624 449.807 569.624 452.74C569.624 455.673 572.001 458.05 574.934 458.05Z" fill="#5468FF"/>
<path d="M607.114 458.05C610.046 458.05 612.424 455.673 612.424 452.74C612.424 449.807 610.046 447.43 607.114 447.43C604.181 447.43 601.804 449.807 601.804 452.74C601.804 455.673 604.181 458.05 607.114 458.05Z" fill="#5468FF"/>
<path d="M639.294 458.05C642.227 458.05 644.604 455.673 644.604 452.74C644.604 449.807 642.227 447.43 639.294 447.43C636.361 447.43 633.984 449.807 633.984 452.74C633.984 455.673 636.361 458.05 639.294 458.05Z" fill="#5468FF"/>
<path d="M610.654 321.82V260.9C610.654 255.837 612.665 250.981 616.245 247.401C619.826 243.821 624.681 241.81 629.744 241.81H650.744C655.807 241.81 660.663 243.821 664.243 247.401C667.823 250.981 669.834 255.837 669.834 260.9V329C669.813 336.247 666.925 343.192 661.8 348.316C656.676 353.441 649.731 356.329 642.484 356.35H574.004C573.581 356.35 573.163 356.267 572.772 356.105C572.381 355.943 572.026 355.706 571.727 355.407C571.428 355.108 571.191 354.753 571.029 354.362C570.867 353.972 570.784 353.553 570.784 353.13C570.784 352.707 570.867 352.288 571.029 351.898C571.191 351.507 571.428 351.152 571.727 350.853C572.026 350.554 572.381 350.317 572.772 350.155C573.163 349.993 573.581 349.91 574.004 349.91H582.584C590.03 349.902 597.168 346.939 602.431 341.673C607.694 336.406 610.652 329.266 610.654 321.82Z" fill="#5468FF"/>
<path opacity="0.3" d="M610.654 321.82V260.9C610.654 255.837 612.665 250.981 616.245 247.401C619.826 243.821 624.681 241.81 629.744 241.81H650.744C655.807 241.81 660.663 243.821 664.243 247.401C667.823 250.981 669.834 255.837 669.834 260.9V329C669.813 336.247 666.925 343.192 661.8 348.316C656.676 353.441 649.731 356.329 642.484 356.35H574.004C573.581 356.35 573.163 356.267 572.772 356.105C572.381 355.943 572.026 355.706 571.727 355.407C571.428 355.108 571.191 354.753 571.029 354.362C570.867 353.972 570.784 353.553 570.784 353.13C570.784 352.707 570.867 352.288 571.029 351.898C571.191 351.507 571.428 351.152 571.727 350.853C572.026 350.554 572.381 350.317 572.772 350.155C573.163 349.993 573.581 349.91 574.004 349.91H582.584C590.03 349.902 597.168 346.939 602.431 341.673C607.694 336.406 610.652 329.266 610.654 321.82Z" fill="#000D44"/>
<path d="M535.804 438.86C535.804 442.07 535.314 444.86 532.454 447.61C528.254 451.61 521.734 452.17 517.214 455.81C516.793 456.116 516.451 456.517 516.214 456.98C516.048 457.464 516.03 457.986 516.164 458.48C516.298 458.974 516.576 459.416 516.964 459.75C520.964 463.54 530.044 459.83 534.674 459L552.134 455.89C552.502 455.825 552.853 455.688 553.167 455.485C553.48 455.283 553.751 455.02 553.961 454.711C554.172 454.403 554.319 454.055 554.393 453.689C554.467 453.323 554.467 452.946 554.394 452.58L551.004 436L550.524 433.54C550.336 432.573 549.957 431.654 549.409 430.835C548.861 430.017 548.155 429.316 547.332 428.774C546.51 428.232 545.587 427.859 544.619 427.678C543.651 427.497 542.656 427.512 541.694 427.72C539.979 428.141 538.458 429.133 537.381 430.532C536.303 431.931 535.733 433.655 535.764 435.42C535.794 436.62 535.824 437.76 535.804 438.86Z" fill="#000D44"/>
<path d="M447.004 437C446.186 437.645 445.335 438.245 444.454 438.8C441.634 440.54 436.874 441.09 433.914 439.33C430.724 437.44 427.914 434.82 424.454 433.53C423.196 432.964 421.775 432.871 420.454 433.27C414.874 435.42 422.784 442.86 425.034 444.74L440.384 457.56C441.283 458.438 442.375 459.093 443.574 459.47C448.484 460.59 452.384 456.18 455.294 453.21C457.364 451.09 459.964 448.68 462.074 446.63C463.654 445.09 466.954 440.82 465.924 438.43C465.624 437.874 465.261 437.354 464.844 436.88C464.104 435.88 463.674 434.66 462.844 433.69C460.604 430.95 456.244 431.1 453.084 432.69C450.924 433.929 448.888 435.372 447.004 437Z" fill="#000D44"/>
<path d="M582.804 286.59C582.804 286.51 582.804 286.42 582.864 286.33L582.804 286.59Z" fill="#E6AC8E"/>
<path d="M583.004 285.58C583.004 285.84 582.894 286.08 582.824 286.33L583.024 285.33C583.004 285.44 583.004 285.51 583.004 285.58Z" fill="#E6AC8E"/>
<path d="M562.924 282.63L582.794 286.63C582.109 289.107 580.511 291.232 578.322 292.577C576.133 293.923 573.515 294.389 570.996 293.882C568.477 293.375 566.244 291.932 564.746 289.844C563.248 287.757 562.597 285.179 562.924 282.63Z" fill="#E6AC8E"/>
<path d="M563.004 282C563.584 279.471 565.109 277.26 567.267 275.82C569.425 274.38 572.052 273.82 574.61 274.255C577.167 274.69 579.462 276.086 581.023 278.159C582.583 280.231 583.292 282.822 583.004 285.4L582.804 286.4C582.804 286.48 582.804 286.57 582.744 286.66L562.874 282.66C562.954 282.41 563.004 282.19 563.004 282Z" fill="#E6AC8E"/>
<path d="M571.644 215C573.314 210 576.164 205.4 580.964 203C582.419 202.313 583.923 201.734 585.464 201.27C589.342 199.872 593.334 198.808 597.394 198.09C598.074 197.99 599.004 198.09 599.154 198.73C599.183 199 599.152 199.273 599.064 199.53C598.824 200.6 599.404 201.53 599.264 202.59C599.006 203.971 598.672 205.336 598.264 206.68C597.396 209.433 597.02 212.317 597.154 215.2C597.594 219.5 595.334 223.13 595.334 227.28C595.194 227.96 593.214 237.66 593.154 237.65L568.804 233.54C569.504 227.22 569.654 220.9 571.644 215Z" fill="#5468FF"/>
<path opacity="0.1" d="M571.644 215C573.314 210 576.164 205.4 580.964 203C582.419 202.313 583.923 201.734 585.464 201.27C589.342 199.872 593.334 198.808 597.394 198.09C598.074 197.99 599.004 198.09 599.154 198.73C599.183 199 599.152 199.273 599.064 199.53C598.824 200.6 599.404 201.53 599.264 202.59C599.006 203.971 598.672 205.336 598.264 206.68C597.396 209.433 597.02 212.317 597.154 215.2C597.594 219.5 595.334 223.13 595.334 227.28C595.194 227.96 593.214 237.66 593.154 237.65L568.804 233.54C569.504 227.22 569.654 220.9 571.644 215Z" fill="#000D44"/>
<path d="M502.384 281.09L502.884 289.42L572.544 293.87C572.877 293.886 573.211 293.886 573.544 293.87C575.875 293.743 578.092 292.818 579.821 291.251C581.551 289.683 582.689 287.568 583.044 285.26C583.044 285.26 583.044 285.34 583.044 285.37L596.224 222.72L593.084 237.62L568.734 233.51L563.874 274.43L502.384 281.09ZM583.174 283.6C583.174 283.5 583.174 283.4 583.174 283.3C583.174 283.41 583.174 283.51 583.174 283.61V283.6ZM583.104 284.88C583.104 284.68 583.104 284.48 583.164 284.27C583.154 284.48 583.134 284.69 583.104 284.89V284.88Z" fill="#F5B58F"/>
<path d="M505.004 323.69C506.885 322 509.043 320.647 511.384 319.69C515.012 318.238 518.868 317.44 522.774 317.33H523.104C529.964 316.33 537.104 316.18 543.424 315.53L588.544 310.82C591.264 310.54 593.994 310.25 596.714 309.99C596.944 309.99 597.164 309.94 597.384 309.93C607.454 309.62 616.144 318.93 616.794 330.68C617.444 342.43 609.794 352.24 599.714 352.55C599.484 352.55 599.264 352.55 599.034 352.55L552.864 352.8C546.994 352.8 541.134 353.31 535.264 353.53C536.884 361.27 546.264 392.27 547.974 403.8L552.524 433.8L533.334 437.32L520.334 399.64L501.684 345.7C499.004 337.91 498.344 329.81 505.004 323.69Z" fill="#1B255E"/>
<path d="M450.164 432.79L510.004 348.56L511.344 346.88C512.282 345.454 513.346 344.115 514.524 342.88C515.574 341.56 516.424 340.51 516.524 340.43C517.765 339.16 519.261 338.168 520.914 337.52L521.394 337.18C531.694 330.31 569.904 320.57 582.534 316.77L597.744 288.44L652.744 288.31V331.19C652.715 335.766 651.187 340.205 648.394 343.83C645.329 348.081 640.803 351.051 635.684 352.17C635.424 352.23 635.164 352.25 634.904 352.31L541.414 370.77L465.004 446.71C460.294 443.2 454.674 436.6 450.164 432.79Z" fill="#1B255E"/>
<path d="M583.314 207C583.844 206.37 584.404 205.76 584.964 205.15C585.962 204.024 587.056 202.986 588.234 202.05C594.964 196.96 604.614 197.43 612.584 197.17C621.474 196.88 630.404 197.29 638.734 200.72C647.884 204.48 656.064 211.72 659.844 221C663.844 230.74 658.244 242.88 657.164 253C655.077 272.407 653.551 291.863 652.584 311.37C643.154 310.93 633.714 310.86 624.284 310.37C612.724 309.76 599.694 309.26 588.604 305.06C587.464 290.89 584.674 276.81 582.884 262.71C581.714 253.5 581.124 244.03 579.364 234.91C577.794 226.79 577.114 215.91 582.034 208.68C582.434 208.08 582.864 207.52 583.314 207Z" fill="#5468FF"/>
<path d="M551.444 293C550.324 294.32 548.164 293.59 549.294 292.26C553.294 287.6 555.594 285.8 561.224 283.75C561.337 283.69 561.458 283.646 561.584 283.62C561.707 283.578 561.835 283.551 561.964 283.54C562.724 283.38 563.444 283.247 564.124 283.14C562.246 282.502 560.23 282.391 558.294 282.82C556.714 283.11 555.594 281.64 556.634 281.11C561.114 278.83 566.574 280.87 570.944 282.89C571.075 282.947 571.194 283.028 571.294 283.13C572.49 283.353 573.669 283.657 574.824 284.04C576.676 284.552 578.457 285.295 580.124 286.25L640.004 276.14L636.284 228.8C636.146 226.935 636.471 225.065 637.232 223.356C637.993 221.648 639.165 220.155 640.644 219.01C642.356 217.731 644.406 216.983 646.539 216.858C648.672 216.734 650.795 217.239 652.644 218.31C655.434 219.937 657.612 222.435 658.844 225.42C660.483 228.862 661.386 232.609 661.494 236.42L661.414 244.13L661.224 262.01L661.004 284.27C661.004 284.34 661.004 284.41 661.004 284.48C661.004 284.74 661.004 285 661.004 285.25V285.51C660.791 288.027 659.649 290.374 657.8 292.094C655.952 293.815 653.529 294.787 651.004 294.82H580.394C579.762 294.876 579.126 294.876 578.494 294.82C573.894 294.33 574.024 294.82 570.074 295.26H570.004C566.693 296.109 563.688 297.873 561.334 300.35C560.134 301.6 557.934 300.84 559.054 299.5C561.269 296.835 564.12 294.771 567.344 293.5C567.094 293.23 566.844 292.95 566.594 292.65C565.87 292.976 565.177 293.368 564.524 293.82C561.958 295.437 559.623 297.395 557.584 299.64C556.434 300.95 553.894 300.41 555.034 299.11C557.874 295.88 561.034 292.49 564.894 290.4L564.524 289.85C559.766 290.72 555.545 293.438 552.784 297.41C551.784 298.82 548.994 298.67 550.044 297.3C554.044 292.01 558.044 288.81 562.704 287.39C562.414 287.03 562.124 286.67 561.874 286.32C557.204 288 554.924 288.86 551.444 293Z" fill="#F5B58F"/>
<path d="M612.294 212C613.67 211.751 614.98 211.226 616.147 210.457C617.314 209.687 618.313 208.689 619.083 207.522C619.853 206.356 620.379 205.045 620.628 203.67C620.878 202.294 620.846 200.883 620.534 199.52L615.434 175.69L596.644 179.08L600.204 203.19C600.389 204.576 600.852 205.91 601.568 207.112C602.283 208.314 603.234 209.358 604.364 210.182C605.494 211.005 606.78 211.591 608.143 211.904C609.506 212.216 610.918 212.249 612.294 212Z" fill="#F5B58F"/>
<path d="M604.004 192.24C605.757 192.653 607.574 192.716 609.351 192.425C611.128 192.133 612.83 191.493 614.359 190.541C615.888 189.59 617.213 188.345 618.259 186.879C619.305 185.413 620.051 183.755 620.454 182L625.074 162.15L597.164 155.66L593.844 175.81C593.013 179.336 593.616 183.048 595.521 186.129C597.427 189.21 600.478 191.408 604.004 192.24Z" fill="#F5B58F"/>
<path d="M595.864 159.63C597.734 160.544 599.713 161.216 601.754 161.63C604.624 162.38 607.534 162.97 610.384 163.8C613.234 164.63 614.164 165.08 615.714 167.57C617.264 170.06 616.654 175.21 616.364 178.04C616.074 180.87 616.234 185.98 618.224 188.04C620.144 183.8 623.984 176.04 625.534 171.61C626.364 169.25 630.114 162.11 629.244 159.27C628.584 157.12 627.674 154.64 625.794 153.47C623.124 151.8 619.844 149.69 617.154 148.07C614.643 146.365 611.737 145.332 608.714 145.07C605.274 144.79 599.364 148.48 596.784 150.07C594.884 151.24 592.994 152.74 593.024 155.18C593.035 156.113 593.307 157.024 593.809 157.81C594.311 158.597 595.022 159.227 595.864 159.63Z" fill="#000D44"/>
<path d="M619.053 178.23C619.423 176.637 618.432 175.046 616.84 174.676C615.248 174.306 613.657 175.297 613.287 176.889C612.916 178.481 613.907 180.072 615.499 180.442C617.092 180.813 618.683 179.822 619.053 178.23Z" fill="#F5B58F"/>
<path d="M636.834 236.2L635.654 226C635.134 221.46 633.794 216.56 635.334 212.11C635.896 210.289 637.115 208.742 638.754 207.77C640.157 207.102 641.72 206.842 643.264 207.02C644.634 207.12 646.864 207.19 648.034 207.87C651.787 210.015 654.983 213.014 657.362 216.624C659.74 220.235 661.234 224.354 661.724 228.65C661.926 230.359 661.963 232.084 661.834 233.8C661.704 235.51 661.504 235.53 659.934 235.49C652.284 235.33 644.494 236 636.834 236.2Z" fill="#5468FF"/>
<path opacity="0.1" d="M636.834 236.2L635.654 226C635.134 221.46 633.794 216.56 635.334 212.11C635.896 210.289 637.115 208.742 638.754 207.77C640.157 207.102 641.72 206.842 643.264 207.02C644.634 207.12 646.864 207.19 648.034 207.87C651.787 210.015 654.983 213.014 657.362 216.624C659.74 220.235 661.234 224.354 661.724 228.65C661.926 230.359 661.963 232.084 661.834 233.8C661.704 235.51 661.504 235.53 659.934 235.49C652.284 235.33 644.494 236 636.834 236.2Z" fill="#000D44"/>
<path d="M480.244 295C484.764 288.5 491.964 285.62 499.424 285.94C500.664 285.99 500.424 288.68 499.234 288.62C492.784 288.3 486.784 290.41 482.594 295.62C481.504 297 479.244 296.46 480.244 295Z" fill="#E6AC8E"/>
<path d="M476.134 293.14C483.134 284.89 489.644 282.14 499.354 283.88C501.064 284.19 500.354 286.71 498.694 286.5C490.694 285.5 483.844 287.18 478.864 293.41C477.774 294.76 475.004 294.46 476.134 293.14Z" fill="#E6AC8E"/>
<path d="M475.264 289C478.454 286.06 481.974 283.08 486.174 281.69C489.974 280.44 493.094 280.78 496.894 281.58C498.594 281.94 497.964 284.05 496.284 283.7C492.284 282.87 489.094 282.87 485.284 284.53C482.479 285.826 479.928 287.614 477.754 289.81C476.454 291 474.004 290.15 475.264 289Z" fill="#E6AC8E"/>
<path d="M488.634 278.84C490.354 278.68 490.634 280.52 488.864 280.78C483.784 281.55 482.984 281.51 478.254 284.85C476.844 285.85 475.144 284.96 476.564 283.96C481.674 280.36 482.404 279.41 488.634 278.84Z" fill="#E6AC8E"/>
<path d="M490.004 292.17C493.104 292 495.334 290.63 497.784 287.06C498.784 285.63 501.904 287.16 500.784 288.46C497.574 292.05 493.624 294.66 488.604 294.37C486.844 294.28 488.264 292.27 490.004 292.17Z" fill="#E6AC8E"/>
<path d="M506.074 282.59C503.564 280.35 492.144 278.31 488.354 278.87C486.144 279.2 486.354 283.36 487.774 285.52C489.194 287.68 489.954 289.52 491.594 289.37C492.984 289.21 494.754 290.31 495.864 290.26C497.864 290.17 499.204 289.06 502.194 289.38C507.164 289.91 510.934 286.93 506.074 282.59Z" fill="#E6AC8E"/>
<path d="M473.524 313.19H671.834V308.14H473.524V313.19Z" fill="white"/>
<path opacity="0.5" d="M473.524 313.19H671.834V308.14H473.524V313.19Z" fill="#5468FF"/>
<path d="M676.654 302.21V304.39V308.65V459.98H671.874V308.65H473.494V459.98H468.714V308.65V304.39V302.21H676.654Z" fill="white"/>
<path opacity="0.3" d="M676.654 302.21V304.39V308.65V459.98H671.874V308.65H473.494V459.98H468.714V308.65V304.39V302.21H676.654Z" fill="#5468FF"/>
<path d="M471.974 302.41H555.494V299.5H471.974V302.41Z" fill="#5468FF"/>
<path opacity="0.3" d="M471.974 302.41H555.494V299.5H471.974V302.41Z" fill="#000D44"/>
<path d="M486.264 302.41H569.444C569.444 302.028 569.368 301.649 569.222 301.296C569.076 300.943 568.862 300.623 568.591 300.352C568.321 300.082 568 299.868 567.647 299.721C567.294 299.575 566.916 299.5 566.534 299.5H486.264V302.41Z" fill="#5468FF"/>
<path opacity="0.3" d="M486.264 302.41H569.444C569.444 302.028 569.368 301.649 569.222 301.296C569.076 300.943 568.862 300.623 568.591 300.352C568.321 300.082 568 299.868 567.647 299.721C567.294 299.575 566.916 299.5 566.534 299.5H486.264V302.41Z" fill="#000D44"/>
<path d="M472.004 299.5H555.124L540.304 255.6C540.024 254.841 539.514 254.189 538.845 253.734C538.176 253.279 537.383 253.043 536.574 253.06H461.614C461.029 253.028 460.445 253.136 459.91 253.375C459.375 253.615 458.906 253.979 458.541 254.437C458.176 254.895 457.925 255.434 457.811 256.009C457.697 256.583 457.722 257.177 457.884 257.74L472.004 299.5Z" fill="#5468FF"/>
<path d="M501.724 275.74C501.907 276.598 502.413 277.353 503.137 277.85C503.86 278.347 504.747 278.547 505.614 278.41C506.499 278.408 507.348 278.059 507.98 277.438C508.612 276.818 508.975 275.975 508.994 275.09C508.892 274.14 508.438 273.262 507.722 272.629C507.006 271.997 506.079 271.654 505.124 271.67C505.012 271.667 504.901 271.694 504.804 271.75C504.696 271.72 504.582 271.72 504.474 271.75C503.605 271.961 502.845 272.485 502.338 273.221C501.831 273.957 501.612 274.853 501.724 275.74ZM504.794 272.81L504.954 272.75H505.084C505.549 272.747 506.009 272.861 506.419 273.081C506.829 273.301 507.178 273.62 507.434 274.01C508.524 275.92 506.994 277.23 505.374 277.3C504.803 277.327 504.243 277.138 503.806 276.771C503.368 276.404 503.085 275.885 503.013 275.318C502.941 274.752 503.086 274.179 503.418 273.714C503.749 273.249 504.244 272.926 504.804 272.81H504.794Z" fill="white"/>
<path d="M375.454 0H144.324C135.62 0 128.564 7.05599 128.564 15.76V442.3C128.564 451.004 135.62 458.06 144.324 458.06H375.454C384.158 458.06 391.214 451.004 391.214 442.3V15.76C391.214 7.05599 384.158 0 375.454 0Z" fill="#5468FF"/>
<path d="M362.654 13.1499H318.894V18.3499C318.894 20.9305 317.869 23.4053 316.044 25.2301C314.219 27.0548 311.744 28.0799 309.164 28.0799H210.614C208.033 28.0799 205.558 27.0548 203.734 25.2301C201.909 23.4053 200.884 20.9305 200.884 18.3499V13.1499H157.134C155.131 13.1486 153.147 13.5421 151.296 14.3081C149.446 15.074 147.764 16.1972 146.347 17.6136C144.931 19.0299 143.808 20.7116 143.042 22.5624C142.276 24.4132 141.882 26.3969 141.884 28.3999V429.66C141.884 433.702 143.489 437.578 146.347 440.436C149.206 443.294 153.082 444.9 157.124 444.9H362.654C366.696 444.9 370.572 443.294 373.43 440.436C376.288 437.578 377.894 433.702 377.894 429.66V28.3999C377.895 26.3977 377.502 24.4149 376.737 22.5647C375.971 20.7146 374.849 19.0334 373.434 17.6171C372.018 16.2009 370.338 15.0774 368.488 14.3109C366.639 13.5444 364.656 13.1499 362.654 13.1499Z" fill="white"/>
<path opacity="0.05" d="M362.654 13.1499H318.894V18.3499C318.894 20.9305 317.869 23.4053 316.044 25.2301C314.219 27.0548 311.744 28.0799 309.164 28.0799H210.614C208.033 28.0799 205.558 27.0548 203.734 25.2301C201.909 23.4053 200.884 20.9305 200.884 18.3499V13.1499H157.134C155.131 13.1486 153.147 13.5421 151.296 14.3081C149.446 15.074 147.764 16.1972 146.347 17.6136C144.931 19.0299 143.808 20.7116 143.042 22.5624C142.276 24.4132 141.882 26.3969 141.884 28.3999V429.66C141.884 433.702 143.489 437.578 146.347 440.436C149.206 443.294 153.082 444.9 157.124 444.9H362.654C366.696 444.9 370.572 443.294 373.43 440.436C376.288 437.578 377.894 433.702 377.894 429.66V28.3999C377.895 26.3977 377.502 24.4149 376.737 22.5647C375.971 20.7146 374.849 19.0334 373.434 17.6171C372.018 16.2009 370.338 15.0774 368.488 14.3109C366.639 13.5444 364.656 13.1499 362.654 13.1499Z" fill="#5468FF"/>
<path d="M253.214 61.5801H68.3141C66.7441 61.5801 65.4541 63.2401 65.4541 65.2801V183.5C65.4541 185.5 66.7441 187.2 68.3141 187.2H253.214C254.784 187.2 256.074 185.54 256.074 183.5V65.2801C256.074 63.2401 254.794 61.5801 253.214 61.5801Z" fill="white"/>
<path opacity="0.5" d="M253.214 61.5801H68.3141C66.7441 61.5801 65.4541 63.2401 65.4541 65.2801V183.5C65.4541 185.5 66.7441 187.2 68.3141 187.2H253.214C254.784 187.2 256.074 185.54 256.074 183.5V65.2801C256.074 63.2401 254.794 61.5801 253.214 61.5801Z" fill="#5468FF"/>
<path d="M323.514 54.6299V172.85C323.511 173.83 323.121 174.77 322.427 175.463C321.734 176.157 320.794 176.547 319.814 176.55H80.3938C79.4134 176.547 78.4738 176.157 77.7805 175.463C77.0872 174.77 76.6965 173.83 76.6938 172.85V54.6299C76.6965 53.6494 77.0872 52.7099 77.7805 52.0165C78.4738 51.3232 79.4134 50.9326 80.3938 50.9299H319.804C320.786 50.9299 321.728 51.3194 322.424 52.013C323.119 52.7066 323.511 53.6477 323.514 54.6299Z" fill="white"/>
<path opacity="0.2" d="M323.514 54.6299V172.85C323.511 173.83 323.121 174.77 322.427 175.463C321.734 176.157 320.794 176.547 319.814 176.55H80.3938C79.4134 176.547 78.4738 176.157 77.7805 175.463C77.0872 174.77 76.6965 173.83 76.6938 172.85V54.6299C76.6965 53.6494 77.0872 52.7099 77.7805 52.0165C78.4738 51.3232 79.4134 50.9326 80.3938 50.9299H319.804C320.786 50.9299 321.728 51.3194 322.424 52.013C323.119 52.7066 323.511 53.6477 323.514 54.6299Z" fill="#5468FF"/>
<path d="M323.504 54.6299V172.85C323.504 174.85 321.574 176.55 319.204 176.55H200.104V50.9299H319.204C321.574 50.9299 323.504 52.5899 323.504 54.6299Z" fill="#5468FF"/>
<path d="M258.564 96.81H216.434C215.724 96.8073 215.044 96.5241 214.542 96.0221C214.04 95.5201 213.757 94.8399 213.754 94.13C213.757 93.42 214.04 92.7399 214.542 92.2378C215.044 91.7358 215.724 91.4526 216.434 91.45H258.574C259.284 91.4526 259.964 91.7358 260.466 92.2378C260.968 92.7399 261.251 93.42 261.254 94.13C261.251 94.8417 260.967 95.5233 260.462 96.0256C259.958 96.5279 259.276 96.81 258.564 96.81Z" fill="white"/>
<path d="M248.324 99.5H215.954C214.739 99.5 213.754 100.485 213.754 101.7V102.67C213.754 103.885 214.739 104.87 215.954 104.87H248.324C249.539 104.87 250.524 103.885 250.524 102.67V101.7C250.524 100.485 249.539 99.5 248.324 99.5Z" fill="white"/>
<path d="M217.004 66.7499C217.46 66.1317 218.055 65.6292 218.741 65.283C219.428 64.9367 220.185 64.7563 220.954 64.7563C221.722 64.7563 222.48 64.9367 223.166 65.283C223.852 65.6292 224.447 66.1317 224.904 66.7499C225.884 68.1999 226.407 69.9099 226.407 71.6599C226.407 73.4099 225.884 75.1199 224.904 76.5699C224.445 77.1845 223.849 77.6835 223.163 78.0272C222.477 78.3709 221.721 78.5499 220.954 78.5499C220.187 78.5499 219.43 78.3709 218.745 78.0272C218.059 77.6835 217.463 77.1845 217.004 76.5699C216.024 75.1235 215.501 73.4167 215.501 71.6699C215.501 69.9231 216.024 68.2164 217.004 66.7699V66.7499ZM223.874 67.6599C223.562 67.1705 223.132 66.7677 222.623 66.4886C222.115 66.2095 221.544 66.0631 220.964 66.0631C220.384 66.0631 219.813 66.2095 219.304 66.4886C218.795 66.7677 218.365 67.1705 218.054 67.6599C217.258 68.838 216.858 70.2392 216.914 71.6599C216.863 73.0772 217.254 74.4752 218.034 75.6599C218.351 76.1471 218.786 76.547 219.298 76.823C219.809 77.099 220.382 77.2423 220.964 77.2399C221.543 77.2436 222.113 77.1006 222.622 76.8243C223.131 76.5481 223.561 76.1475 223.874 75.6599C224.625 74.4611 225.024 73.0748 225.024 71.6599C225.024 70.245 224.625 68.8587 223.874 67.6599Z" fill="white"/>
<path d="M237.254 66.4099C238.229 67.7339 238.707 69.3589 238.604 70.9999C238.684 75.1499 236.434 78.5699 232.814 78.5399C231.811 78.57 230.824 78.283 229.994 77.7199V76.3699C230.784 76.9281 231.727 77.2285 232.694 77.2299C235.854 77.2299 237.164 74.3599 237.224 71.5399C236.841 72.0835 236.346 72.5399 235.774 72.8792C235.202 73.2184 234.564 73.4328 233.903 73.5083C233.242 73.5839 232.573 73.5188 231.939 73.3175C231.305 73.1161 230.72 72.783 230.224 72.3399C229.817 71.9433 229.497 71.4666 229.283 70.9399C229.07 70.4132 228.968 69.848 228.984 69.2799C228.965 68.6803 229.07 68.0831 229.292 67.5257C229.514 66.9683 229.848 66.4625 230.274 66.0399C230.701 65.6214 231.208 65.2933 231.765 65.0751C232.321 64.8569 232.916 64.7531 233.514 64.7699C234.223 64.729 234.931 64.8562 235.581 65.1413C236.231 65.4263 236.804 65.861 237.254 66.4099ZM231.334 66.9799C231.03 67.2743 230.792 67.6297 230.635 68.0226C230.478 68.4155 230.406 68.8372 230.424 69.2599C230.406 69.6712 230.48 70.0814 230.641 70.4603C230.802 70.8392 231.046 71.1774 231.354 71.4499C231.996 72.0068 232.825 72.2998 233.674 72.2699C234.459 72.2693 235.222 72.0092 235.844 71.5299C236.479 71.0721 236.952 70.4242 237.194 69.6799C236.964 67.3999 235.714 66.0599 233.634 66.0599C233.207 66.0537 232.783 66.1337 232.388 66.2952C231.993 66.4567 231.634 66.6964 231.334 66.9999V66.9799Z" fill="white"/>
<path d="M241.424 69.64C241.564 69.4995 241.742 69.4037 241.936 69.3646C242.13 69.3256 242.332 69.345 242.515 69.4205C242.698 69.496 242.854 69.6242 242.964 69.7888C243.075 69.9534 243.133 70.1469 243.133 70.345C243.133 70.543 243.075 70.7366 242.964 70.9012C242.854 71.0657 242.698 71.1939 242.515 71.2694C242.332 71.3449 242.13 71.3644 241.936 71.3253C241.742 71.2863 241.564 71.1904 241.424 71.05C241.238 70.8626 241.133 70.6092 241.133 70.345C241.133 70.0808 241.238 69.8273 241.424 69.64ZM241.424 76.72C241.564 76.5795 241.742 76.4837 241.936 76.4446C242.13 76.4056 242.332 76.425 242.515 76.5005C242.698 76.576 242.854 76.7042 242.964 76.8688C243.075 77.0334 243.133 77.2269 243.133 77.425C243.133 77.623 243.075 77.8166 242.964 77.9812C242.854 78.1457 242.698 78.2739 242.515 78.3494C242.332 78.4249 242.13 78.4444 241.936 78.4053C241.742 78.3663 241.564 78.2704 241.424 78.13C241.238 77.9426 241.133 77.6892 241.133 77.425C241.133 77.1608 241.238 76.9073 241.424 76.72Z" fill="white"/>
<path d="M248.004 78.3V66.5L245.004 68.21V66.86L248.144 64.98H249.384V78.3H248.004Z" fill="white"/>
<path d="M254.244 66.7499C254.7 66.1317 255.296 65.6292 255.982 65.283C256.668 64.9367 257.425 64.7563 258.194 64.7563C258.962 64.7563 259.72 64.9367 260.406 65.283C261.092 65.6292 261.688 66.1317 262.144 66.7499C263.124 68.1999 263.647 69.9099 263.647 71.6599C263.647 73.4099 263.124 75.1199 262.144 76.5699C261.685 77.1845 261.089 77.6835 260.403 78.0272C259.717 78.3709 258.961 78.5499 258.194 78.5499C257.427 78.5499 256.67 78.3709 255.985 78.0272C255.299 77.6835 254.703 77.1845 254.244 76.5699C253.265 75.1235 252.741 73.4167 252.741 71.6699C252.741 69.9231 253.265 68.2164 254.244 66.7699V66.7499ZM261.114 67.6599C260.802 67.1705 260.372 66.7677 259.864 66.4886C259.355 66.2095 258.784 66.0631 258.204 66.0631C257.624 66.0631 257.053 66.2095 256.544 66.4886C256.036 66.7677 255.606 67.1705 255.294 67.6599C254.498 68.838 254.099 70.2392 254.154 71.6599C254.103 73.0772 254.494 74.4752 255.274 75.6599C255.591 76.1471 256.026 76.547 256.538 76.823C257.05 77.099 257.622 77.2423 258.204 77.2399C258.783 77.2436 259.353 77.1006 259.862 76.8243C260.371 76.5481 260.802 76.1475 261.114 75.6599C261.866 74.4611 262.264 73.0748 262.264 71.6599C262.264 70.245 261.866 68.8587 261.114 67.6599Z" fill="white"/>
<path d="M271.844 78.3V65H277.434C280.094 65 281.694 66.48 281.694 68.69C281.694 70.9 280.094 72.44 277.434 72.44H273.244V78.32L271.844 78.3ZM273.254 71.14H277.344C279.224 71.14 280.344 70.25 280.344 68.7C280.344 67.15 279.264 66.25 277.344 66.25H273.254V71.14Z" fill="white"/>
<path d="M284.504 78.3V65H285.894L290.704 71.45L295.514 65H296.884V78.3H295.504V67.11L291.144 72.93H290.284L285.884 67.11V78.3H284.504Z" fill="white"/>
<path d="M137.944 66.49C131.473 66.49 125.266 69.0607 120.691 73.6366C116.115 78.2125 113.544 84.4187 113.544 90.89C113.544 104.37 137.944 134.33 137.944 134.33C137.944 134.33 162.344 104.33 162.344 90.89C162.344 84.4187 159.773 78.2125 155.197 73.6366C150.621 69.0607 144.415 66.49 137.944 66.49ZM137.944 102.05C135.687 102.05 133.481 101.381 131.605 100.127C129.729 98.8733 128.266 97.0913 127.402 95.0064C126.539 92.9215 126.313 90.6273 126.753 88.414C127.193 86.2007 128.28 84.1676 129.876 82.5719C131.472 80.9762 133.505 79.8895 135.718 79.4492C137.931 79.009 140.225 79.2349 142.31 80.0985C144.395 80.9621 146.177 82.4246 147.431 84.3009C148.685 86.1773 149.354 88.3833 149.354 90.64C149.354 93.6661 148.152 96.5683 146.012 98.7081C143.872 100.848 140.97 102.05 137.944 102.05Z" fill="#5468FF"/>
<path d="M291.684 145.44H234.634C230.077 145.44 226.384 149.134 226.384 153.69V157.36C226.384 161.916 230.077 165.61 234.634 165.61H291.684C296.24 165.61 299.934 161.916 299.934 157.36V153.69C299.934 149.134 296.24 145.44 291.684 145.44Z" fill="white"/>
<path d="M263.004 159.94C262.803 159.948 262.604 159.9 262.428 159.803C262.252 159.707 262.105 159.564 262.004 159.39L259.064 154.39C258.99 154.264 258.941 154.125 258.921 153.98C258.901 153.835 258.909 153.687 258.946 153.546C258.982 153.404 259.047 153.271 259.135 153.154C259.223 153.038 259.333 152.939 259.459 152.865C259.585 152.791 259.725 152.742 259.869 152.722C260.014 152.702 260.162 152.71 260.303 152.747C260.445 152.783 260.578 152.848 260.695 152.936C260.812 153.024 260.91 153.134 260.984 153.26L262.864 156.48L266.414 149.18C266.547 148.915 266.779 148.713 267.061 148.619C267.342 148.526 267.649 148.547 267.914 148.68C268.179 148.813 268.381 149.045 268.475 149.326C268.569 149.608 268.547 149.915 268.414 150.18L264.004 159.31C263.914 159.499 263.772 159.658 263.595 159.769C263.418 159.881 263.213 159.94 263.004 159.94Z" fill="#5468FF"/>
<path d="M263.004 162.52C261.635 162.52 260.297 162.114 259.159 161.354C258.021 160.593 257.135 159.513 256.611 158.248C256.087 156.984 255.95 155.592 256.217 154.25C256.484 152.908 257.143 151.675 258.111 150.707C259.079 149.739 260.312 149.08 261.654 148.813C262.996 148.546 264.388 148.683 265.652 149.207C266.917 149.73 267.997 150.617 268.758 151.755C269.518 152.893 269.924 154.231 269.924 155.6C269.924 156.509 269.745 157.409 269.397 158.248C269.049 159.088 268.54 159.851 267.897 160.493C267.255 161.136 266.492 161.645 265.652 161.993C264.813 162.341 263.913 162.52 263.004 162.52ZM263.004 149.52C261.796 149.52 260.614 149.878 259.609 150.55C258.605 151.221 257.822 152.175 257.359 153.292C256.897 154.408 256.776 155.637 257.011 156.822C257.247 158.007 257.829 159.096 258.684 159.95C259.538 160.805 260.627 161.387 261.812 161.623C262.997 161.858 264.226 161.737 265.342 161.275C266.459 160.812 267.413 160.029 268.084 159.024C268.756 158.02 269.114 156.838 269.114 155.63C269.117 154.826 268.961 154.029 268.655 153.286C268.349 152.542 267.899 151.866 267.332 151.297C266.764 150.727 266.089 150.275 265.347 149.967C264.604 149.659 263.808 149.5 263.004 149.5V149.52Z" fill="#5468FF"/>
<path d="M432.344 232.09H288.184C286.964 232.09 285.954 233.75 285.954 235.79V354C285.954 356 286.954 357.7 288.184 357.7H432.344C433.574 357.7 434.574 356.03 434.574 354V235.79C434.574 233.75 433.574 232.09 432.344 232.09Z" fill="white"/>
<path opacity="0.5" d="M432.344 232.09H288.184C286.964 232.09 285.954 233.75 285.954 235.79V354C285.954 356 286.954 357.7 288.184 357.7H432.344C433.574 357.7 434.574 356.03 434.574 354V235.79C434.574 233.75 433.574 232.09 432.344 232.09Z" fill="#5468FF"/>
<path d="M426.524 226.71V344.93C426.521 345.91 426.131 346.85 425.437 347.543C424.744 348.237 423.804 348.627 422.824 348.63H183.414C182.433 348.627 181.494 348.237 180.8 347.543C180.107 346.85 179.717 345.91 179.714 344.93V226.71C179.717 225.73 180.107 224.79 180.8 224.097C181.494 223.403 182.433 223.013 183.414 223.01H422.824C423.804 223.013 424.744 223.403 425.437 224.097C426.131 224.79 426.521 225.73 426.524 226.71Z" fill="#5468FF"/>
<path d="M426.524 226.71V344.93C426.521 345.91 426.13 346.85 425.437 347.543C424.744 348.237 423.804 348.627 422.824 348.63H316.344V223H422.824C423.806 223.003 424.747 223.395 425.441 224.09C426.134 224.786 426.524 225.728 426.524 226.71Z" fill="white"/>
<path opacity="0.2" d="M426.524 226.71V344.93C426.521 345.91 426.13 346.85 425.437 347.543C424.744 348.237 423.804 348.627 422.824 348.63H316.344V223H422.824C423.806 223.003 424.747 223.395 425.441 224.09C426.134 224.786 426.524 225.728 426.524 226.71Z" fill="#5468FF"/>
<path d="M370.624 311.43C369.579 311.422 368.553 311.141 367.65 310.615C366.747 310.088 365.997 309.335 365.474 308.43L349.734 281.53C349.134 280.179 349.054 278.654 349.509 277.247C349.963 275.841 350.922 274.652 352.199 273.908C353.477 273.165 354.984 272.919 356.432 273.218C357.88 273.518 359.166 274.341 360.044 275.53L370.134 292.79L389.134 253.68C389.424 252.894 389.876 252.177 390.459 251.576C391.043 250.975 391.747 250.503 392.524 250.191C393.301 249.878 394.135 249.731 394.973 249.761C395.81 249.79 396.632 249.994 397.386 250.361C398.139 250.727 398.808 251.247 399.348 251.887C399.889 252.528 400.289 253.274 400.523 254.079C400.758 254.883 400.821 255.728 400.709 256.558C400.597 257.388 400.313 258.186 399.874 258.9L376.004 308.06C375.529 309.031 374.801 309.856 373.896 310.447C372.992 311.039 371.944 311.375 370.864 311.42L370.624 311.43Z" fill="#5468FF"/>
<path d="M370.624 325.27C363.294 325.27 356.129 323.096 350.035 319.024C343.94 314.952 339.19 309.164 336.385 302.392C333.58 295.62 332.846 288.169 334.276 280.98C335.706 273.791 339.236 267.187 344.419 262.005C349.602 256.822 356.205 253.292 363.394 251.862C370.583 250.432 378.034 251.166 384.806 253.971C391.578 256.776 397.366 261.526 401.438 267.62C405.51 273.715 407.684 280.88 407.684 288.21C407.671 298.035 403.762 307.453 396.815 314.401C389.868 321.348 380.449 325.257 370.624 325.27ZM370.624 255.49C364.153 255.49 357.827 257.409 352.446 261.004C347.065 264.6 342.871 269.71 340.395 275.689C337.918 281.667 337.27 288.246 338.533 294.593C339.795 300.94 342.911 306.77 347.487 311.346C352.063 315.922 357.894 319.039 364.241 320.301C370.588 321.564 377.167 320.916 383.145 318.439C389.124 315.963 394.234 311.769 397.83 306.388C401.425 301.007 403.344 294.681 403.344 288.21C403.336 279.534 399.887 271.215 393.752 265.079C387.618 258.943 379.3 255.491 370.624 255.48V255.49Z" fill="#5468FF"/>
<path d="M211.834 243.52C209.207 243.52 206.64 244.299 204.456 245.758C202.272 247.217 200.57 249.291 199.565 251.718C198.559 254.145 198.296 256.815 198.809 259.391C199.321 261.967 200.586 264.333 202.443 266.19C204.301 268.048 206.667 269.312 209.243 269.825C211.819 270.337 214.489 270.074 216.916 269.069C219.342 268.064 221.416 266.362 222.876 264.178C224.335 261.994 225.114 259.427 225.114 256.8C225.114 253.278 223.715 249.9 221.224 247.41C218.734 244.919 215.356 243.52 211.834 243.52ZM221.024 257.22H211.834C211.722 257.22 211.615 257.176 211.537 257.097C211.458 257.018 211.414 256.911 211.414 256.8V246.91C211.414 246.797 211.458 246.689 211.538 246.609C211.618 246.53 211.726 246.485 211.839 246.485C211.951 246.485 212.06 246.53 212.139 246.609C212.219 246.689 212.264 246.797 212.264 246.91V256.37H221.004C221.116 256.37 221.225 256.415 221.304 256.495C221.384 256.574 221.429 256.682 221.429 256.795C221.429 256.908 221.384 257.016 221.304 257.096C221.225 257.175 221.116 257.22 221.004 257.22H221.024Z" fill="white"/>
<path d="M280.144 251.85H238.004C237.294 251.847 236.614 251.564 236.112 251.062C235.61 250.56 235.326 249.88 235.324 249.17C235.326 248.46 235.61 247.78 236.112 247.278C236.614 246.776 237.294 246.493 238.004 246.49H280.144C280.854 246.493 281.534 246.776 282.036 247.278C282.538 247.78 282.821 248.46 282.824 249.17C282.821 249.88 282.538 250.56 282.036 251.062C281.534 251.564 280.854 251.847 280.144 251.85Z" fill="white"/>
<path d="M269.894 254.54H237.524C236.309 254.54 235.324 255.525 235.324 256.74V257.71C235.324 258.925 236.309 259.91 237.524 259.91H269.894C271.109 259.91 272.094 258.925 272.094 257.71V256.74C272.094 255.525 271.109 254.54 269.894 254.54Z" fill="white"/>
<path d="M210.504 294.9C207.338 294.913 204.307 296.176 202.068 298.415C199.83 300.653 198.567 303.685 198.554 306.85C198.554 313.45 210.504 328.12 210.504 328.12C210.504 328.12 222.454 313.45 222.454 306.85C222.441 303.685 221.177 300.653 218.939 298.415C216.701 296.176 213.669 294.913 210.504 294.9ZM210.504 312.31C209.398 312.31 208.317 311.982 207.398 311.368C206.479 310.754 205.762 309.881 205.339 308.859C204.916 307.838 204.805 306.714 205.021 305.629C205.237 304.545 205.769 303.549 206.551 302.767C207.333 301.985 208.329 301.453 209.413 301.237C210.498 301.022 211.621 301.132 212.643 301.555C213.664 301.979 214.537 302.695 215.152 303.614C215.766 304.534 216.094 305.614 216.094 306.72C216.095 307.455 215.951 308.183 215.671 308.862C215.391 309.542 214.979 310.159 214.46 310.679C213.941 311.199 213.324 311.612 212.645 311.893C211.966 312.175 211.239 312.32 210.504 312.32V312.31Z" fill="white"/>
<path d="M276.934 303.61H234.804C234.094 303.607 233.414 303.324 232.912 302.822C232.41 302.32 232.127 301.64 232.124 300.93C232.127 300.22 232.41 299.54 232.912 299.038C233.414 298.536 234.094 298.253 234.804 298.25H276.944C277.654 298.253 278.334 298.536 278.836 299.038C279.338 299.54 279.621 300.22 279.624 300.93C279.621 301.642 279.337 302.323 278.833 302.826C278.328 303.328 277.646 303.61 276.934 303.61Z" fill="white"/>
<path d="M266.684 306.3H234.314C233.099 306.3 232.114 307.285 232.114 308.5V309.47C232.114 310.685 233.099 311.67 234.314 311.67H266.684C267.899 311.67 268.884 310.685 268.884 309.47V308.5C268.884 307.285 267.899 306.3 266.684 306.3Z" fill="white"/>
<path d="M37.084 439.52C37.084 439.52 36.884 447.86 36.724 449.98C36.564 452.1 29.794 452.26 29.014 451.16C28.234 450.06 27.834 440.3 27.834 440.3" fill="#F5B58F"/>
<path d="M27.214 453C27.2946 454.951 27.5018 456.895 27.834 458.82H35.634L36.014 457.52C37.4226 458.241 38.9575 458.682 40.534 458.82H47.114C51.934 458.82 54.674 458.21 54.794 457.36C55.304 453.82 49.544 453.98 48.044 453.98C43.734 453.98 39.044 451.98 38.044 449.78C37.304 448.19 37.634 447.78 36.744 448.09C36.4541 448.18 36.1857 448.329 35.9553 448.527C35.7249 448.725 35.5373 448.967 35.404 449.24C35.0401 449.987 34.4528 450.602 33.7234 451C32.9941 451.398 32.1589 451.559 31.334 451.46C30.3414 451.328 29.4166 450.883 28.694 450.19C28.1954 450.458 27.7882 450.868 27.5245 451.369C27.2608 451.869 27.1527 452.438 27.214 453Z" fill="#000D44"/>
<path d="M64.4538 437.28C63.8209 439.871 63.026 442.419 62.0738 444.91C61.1438 446.83 54.7938 444.47 54.4738 443.15C54.1538 441.83 57.4038 432.62 57.4038 432.62" fill="#F5B58F"/>
<path d="M52.124 444.22C51.304 446.28 50.124 450.22 50.124 450.22L56.004 453.8L57.164 452.92C57.9771 454.197 59.0339 455.301 60.274 456.17C62.1148 457.221 64.0801 458.038 66.124 458.6C71.524 459.83 75.694 459.24 76.124 458.49C77.914 455.39 70.754 453.68 69.354 453.12C67.7352 452.471 66.3225 451.396 65.266 450.008C64.2095 448.621 63.5487 446.973 63.354 445.24C63.254 443.49 63.704 443.24 62.774 443.19C62.4708 443.168 62.1663 443.208 61.8791 443.307C61.5919 443.407 61.3281 443.565 61.104 443.77C60.4891 444.328 59.716 444.68 58.8917 444.779C58.0675 444.877 57.2331 444.717 56.504 444.32C55.6237 443.832 54.9228 443.075 54.504 442.16C53.9484 442.23 53.426 442.463 53.0025 442.83C52.579 443.197 52.2734 443.68 52.124 444.22Z" fill="#000D44"/>
<path d="M22.8039 247.88C20.0039 245.81 16.9439 243.49 14.0439 241.06C7.4239 235.51 1.5239 229.47 0.783896 225.06C-0.836104 215.21 0.433897 185.95 1.2139 172.14C1.2139 171.31 1.2939 170.52 1.3439 169.79C2.1239 156.74 9.1439 150.95 12.6539 148.79C14.4439 165.79 18.4839 204.06 18.8139 206.03C19.2439 208.61 22.8039 247.88 22.8039 247.88Z" fill="#5468FF"/>
<path d="M22.8139 247.88C20.0039 245.81 17.0039 243.48 14.0039 241.06C13.7539 230.27 10.5439 215.2 6.00387 196.34C0.633867 172.56 4.00387 168.19 4.00387 168.19L14.7839 169.83C16.5739 186.62 18.5239 204.75 18.7839 206.09C19.2539 208.61 22.8139 247.88 22.8139 247.88Z" fill="#5468FF"/>
<path opacity="0.1" d="M22.8139 247.88C20.0039 245.81 17.0039 243.48 14.0039 241.06C13.7539 230.27 10.5439 215.2 6.00387 196.34C0.633867 172.56 4.00387 168.19 4.00387 168.19L14.7839 169.83C16.5739 186.62 18.5239 204.75 18.7839 206.09C19.2539 208.61 22.8139 247.88 22.8139 247.88Z" fill="#000D44"/>
<path d="M49.7639 299.11C50.0939 281.28 49.7639 263.46 48.7039 245.64L33.3539 247.07L25.6839 247.79C23.4139 248 19.5639 247.61 17.5239 248.55C14.5239 249.94 13.1539 256.55 12.5239 259.72C11.6002 264.275 11.2941 268.934 11.6139 273.57C12.1239 282.23 14.2739 290.7 16.0639 299.19C19.8065 316.812 21.8691 334.749 22.2239 352.76C22.4339 364.9 21.8139 377.05 22.0039 389.19C22.3139 408.3 24.6439 427.32 27.0939 446.27C30.7003 446.966 34.4162 446.853 37.9739 445.94C43.4039 397.15 48.8739 348.14 49.7639 299.11Z" fill="#1B255E"/>
<path d="M86.7541 332.31C88.7541 336.62 89.6141 342.22 90.7541 346.85C92.1719 351.719 92.8032 356.782 92.6241 361.85C92.2341 367.64 90.2041 373.18 88.2041 378.62L65.2041 441.13C61.4645 440.959 57.7964 440.044 54.4141 438.44C55.3441 413.31 57.5041 387.5 68.6141 364.94C70.2041 361.72 72.0541 358.48 74.9741 356.39C76.3056 355.61 77.57 354.72 78.7541 353.73C79.8587 352.478 80.6989 351.015 81.2241 349.43C83.4341 344 84.2941 337.56 86.7541 332.31Z" fill="#1B255E"/>
<path d="M71.2138 246.25C71.2138 246.25 88.0938 324.42 90.3038 345.48C91.2438 354.41 81.8538 369.16 73.1938 361.09C62.8538 351.45 46.1138 307.32 40.9138 299.52C35.7138 291.72 16.2638 284.58 29.5438 245" fill="#1B255E"/>
<path d="M29.5241 141.25C29.5241 141.25 31.8341 133.43 30.8241 127.65C29.8141 121.87 26.3441 111.48 27.6441 103.65C28.9441 95.82 38.7641 89.36 49.1541 90.37C59.5441 91.38 62.5841 101.37 64.3141 107.12C66.0441 112.87 65.7541 121.7 65.3141 126.46C64.8741 131.22 62.3141 134.98 60.5541 135.99C58.7941 137 52.3041 135.67 51.1641 136.91C50.0241 138.15 49.1641 145.52 49.1641 145.52" fill="#F5B58F"/>
<path d="M24.6138 147.43C24.6138 147.43 25.1938 142.87 26.9238 141.25C28.6538 139.63 40.2038 139.63 43.6738 140.07C47.1438 140.51 55.6738 144.49 56.8138 145.33C57.9538 146.17 55.7138 150.56 55.7138 150.56L24.6138 147.43Z" fill="#5468FF"/>
<path opacity="0.15" d="M24.6138 147.43C24.6138 147.43 25.1938 142.87 26.9238 141.25C28.6538 139.63 40.2038 139.63 43.6738 140.07C47.1438 140.51 55.6738 144.49 56.8138 145.33C57.9538 146.17 55.7138 150.56 55.7138 150.56L24.6138 147.43Z" fill="#000D44"/>
<path d="M145.314 102.13C145.234 101.31 144.174 101.7 143.894 102.38C143.831 102.57 143.781 102.764 143.744 102.96C143.844 101.61 143.914 100.51 143.894 100.24C143.814 99.4601 142.834 99.7501 142.504 100.35C142.504 99.8101 142.504 99.35 142.504 99.22C142.424 98.22 141.354 98.63 141.074 99.45C140.963 99.9047 140.88 100.366 140.824 100.83C140.838 100.577 140.838 100.323 140.824 100.07C140.744 99.2501 139.824 99.46 139.524 100.13C139.386 100.652 139.289 101.183 139.234 101.72C139.104 102.54 138.864 103.42 138.744 104.25C138.623 105.042 138.446 105.824 138.214 106.59C137.2 107.853 135.901 108.857 134.424 109.52L132.174 108.3C131.84 110.021 131.659 111.768 131.634 113.52C131.784 114.73 132.634 116.25 132.564 116.98C132.326 117.897 132.015 118.793 131.634 119.66L137.844 122.24C137.844 122.24 138.674 118.53 139.514 117.67C141.038 116.065 142.454 114.362 143.754 112.57C144.125 111.563 144.436 110.534 144.684 109.49L145.124 107.17L145.324 104.91C145.324 104.91 145.344 102.4 145.314 102.13Z" fill="#F5B58F"/>
<path d="M138.954 120.84C138.954 120.84 136.854 132.99 134.784 142.71C133.144 150.21 131.094 158.04 127.534 165.11C127.534 165.16 127.534 165.24 127.484 165.29C125.484 169.73 121.624 175.16 119.024 175.72C116.424 176.28 107.304 175.67 107.304 175.67C101.644 176 87.4339 174.13 75.3039 172.51L74.7439 172.43C69.1139 171.67 63.9639 170.99 60.4239 170.61C58.7925 170.466 57.2554 169.783 56.0539 168.67C54.9917 167.701 54.2724 166.413 54.0039 165C54.0039 165 54.0039 165 54.0039 164.95C53.1939 161.04 55.7739 157.95 59.1039 155.61C59.2582 155.501 59.4184 155.401 59.5839 155.31C55.4639 151.22 51.2539 146.75 51.2539 146.75C51.2539 146.75 62.8639 147.31 69.3539 147.75C73.7739 148.05 103.924 156.11 107.534 157.24C107.814 157.34 108.064 157.44 108.314 157.52C108.314 157.52 108.764 157.57 109.454 157.72C109.654 157.77 109.904 157.87 110.164 157.95C111.273 155.022 112.748 152.247 114.554 149.69C121.014 140.6 131.554 118.58 131.554 118.58L137.414 120.32H137.494L138.954 120.84Z" fill="#5468FF"/>
<path d="M30.0038 131.41C30.0038 131.41 44.4438 132.64 47.1838 131.41C49.9238 130.18 53.8938 127.51 54.2538 122.6C54.6138 117.69 53.6038 116.18 55.4838 113.43C57.3638 110.68 59.0238 111.63 59.3138 114.22C59.6038 116.81 59.7138 121.51 60.3938 121.86C61.3138 122.33 62.3938 119.02 62.0538 114.01C61.7438 109.66 61.2638 106.29 59.9638 103.4V103.31C59.5184 102.354 59.348 101.293 59.4717 100.245C59.5953 99.1981 60.0081 98.2059 60.6638 97.3799C61.1262 96.7969 61.5568 96.1893 61.9538 95.5599C64.8438 91.0499 63.2538 84.0199 55.6038 84.0499C43.9338 84.0499 31.6038 86.0499 28.4938 93.1799C27.6418 94.8744 26.4545 96.3782 25.0038 97.5999C23.9038 98.5999 22.8538 100.72 22.7838 104.91C22.6438 113.91 28.4138 124.83 28.8438 127.65C29.2738 130.47 28.5138 130.76 30.0038 131.41Z" fill="#000D44"/>
<path d="M70.0837 237.47C70.6137 241.99 74.5737 248.98 71.8737 249.97C70.7837 250.35 66.3737 250.1 60.9637 249.64H60.8137C60.7137 249.64 60.6337 249.64 60.5637 249.64C55.7637 249.24 50.2837 248.71 45.6937 248.35C27.3337 247.57 17.9737 251.23 16.1237 250.19C15.2437 249.66 15.2137 248.07 15.4937 246.43C16.1739 242.408 16.2749 238.31 15.7937 234.26C15.3437 230.85 14.7037 226.79 13.7937 222.14C10.7937 206.06 4.79369 181.49 3.94369 166.72C2.53369 143.57 27.3237 145.72 27.3237 145.72C58.8837 143.72 73.7037 152.84 75.4237 166.4C75.5537 167.4 75.6237 168.4 75.7037 169.48C76.5137 183.48 72.2437 206.04 70.2237 222.91C69.7603 227.75 69.7135 232.622 70.0837 237.47Z" fill="#5468FF"/>
</svg>
