<svg width="486" height="341" viewBox="0 0 486 341" fill="none" xmlns="http://www.w3.org/2000/svg">
<path d="M66.0243 25.3246H450.3C451.915 25.3246 453.463 25.9659 454.604 27.1074C455.746 28.2489 456.387 29.7971 456.387 31.4114V273.898H59.9375V31.4114C59.9375 29.7971 60.5788 28.2489 61.7203 27.1074C62.8618 25.9659 64.41 25.3246 66.0243 25.3246Z" fill="white"/>
<path d="M66.0243 25.3246H450.3C451.915 25.3246 453.463 25.9659 454.604 27.1074C455.746 28.2489 456.387 29.7971 456.387 31.4114V273.898H59.9375V31.4114C59.9375 29.7971 60.5788 28.2489 61.7203 27.1074C62.8618 25.9659 64.41 25.3246 66.0243 25.3246Z" fill="#5468FF"/>
<path d="M70.8125 37.4644H444.89V290.034H70.8125V37.4644Z" fill="#5468FF"/>
<path d="M70.8125 37.4644H444.89V290.034H70.8125V37.4644Z" fill="#5468FF"/>
<path d="M70.8125 37.4644H444.89V290.034H70.8125V37.4644Z" fill="white"/>
<path d="M30.7285 273.898H485.591V290.616C485.591 292.444 484.865 294.197 483.573 295.489C482.28 296.782 480.528 297.508 478.7 297.508H37.6269C35.7992 297.508 34.0462 296.782 32.7538 295.489C31.4614 294.197 30.7353 292.444 30.7353 290.616V273.898H30.7285Z" fill="white"/>
<path d="M30.7285 273.898H485.591V290.616C485.591 292.444 484.865 294.197 483.573 295.489C482.28 296.782 480.528 297.508 478.7 297.508H37.6269C35.7992 297.508 34.0462 296.782 32.7538 295.489C31.4614 294.197 30.7353 292.444 30.7353 290.616V273.898H30.7285Z" fill="#5468FF"/>
<path d="M91.3595 51.2816H425.71C426.549 51.2816 427.354 51.615 427.948 52.2086C428.541 52.8022 428.875 53.6073 428.875 54.4467V253.101H88.1943V54.4467C88.1943 53.6073 88.5278 52.8022 89.1214 52.2086C89.715 51.615 90.52 51.2816 91.3595 51.2816Z" fill="white"/>
<path d="M91.3595 51.2816H425.71C426.549 51.2816 427.354 51.615 427.948 52.2086C428.541 52.8022 428.875 53.6073 428.875 54.4467V253.101H88.1943V54.4467C88.1943 53.6073 88.5278 52.8022 89.1214 52.2086C89.715 51.615 90.52 51.2816 91.3595 51.2816Z" fill="white"/>
<path opacity="0.2" d="M91.3595 51.2816H425.71C426.549 51.2816 427.354 51.615 427.948 52.2086C428.541 52.8022 428.875 53.6073 428.875 54.4467V253.101H88.1943V54.4467C88.1943 53.6073 88.5278 52.8022 89.1214 52.2086C89.715 51.615 90.52 51.2816 91.3595 51.2816Z" fill="#5468FF"/>
<path d="M88.1943 67.8445H151.166V253.101H88.1943V67.8445Z" fill="white"/>
<path opacity="0.5" d="M88.1943 67.8445H151.166V253.101H88.1943V67.8445Z" fill="#5468FF"/>
<path d="M91.3595 51.2816H425.71C426.549 51.2816 427.354 51.615 427.948 52.2086C428.541 52.8022 428.875 53.6073 428.875 54.4467V62.9751H88.1943V54.4467C88.1943 53.6073 88.5278 52.8022 89.1214 52.2086C89.715 51.615 90.52 51.2816 91.3595 51.2816Z" fill="white"/>
<path opacity="0.5" d="M91.3595 51.2816H425.71C426.549 51.2816 427.354 51.615 427.948 52.2086C428.541 52.8022 428.875 53.6073 428.875 54.4467V62.9751H88.1943V54.4467C88.1943 53.6073 88.5278 52.8022 89.1214 52.2086C89.715 51.615 90.52 51.2816 91.3595 51.2816Z" fill="#5468FF"/>
<path d="M102.77 59.9586C104.552 59.9586 105.996 58.5143 105.996 56.7326C105.996 54.9509 104.552 53.5066 102.77 53.5066C100.988 53.5066 99.5439 54.9509 99.5439 56.7326C99.5439 58.5143 100.988 59.9586 102.77 59.9586Z" fill="white"/>
<path d="M111.649 59.9586C113.431 59.9586 114.875 58.5143 114.875 56.7326C114.875 54.9509 113.431 53.5066 111.649 53.5066C109.867 53.5066 108.423 54.9509 108.423 56.7326C108.423 58.5143 109.867 59.9586 111.649 59.9586Z" fill="white"/>
<path d="M120.529 59.9586C122.31 59.9586 123.755 58.5143 123.755 56.7326C123.755 54.9509 122.31 53.5066 120.529 53.5066C118.747 53.5066 117.303 54.9509 117.303 56.7326C117.303 58.5143 118.747 59.9586 120.529 59.9586Z" fill="white"/>
<path d="M112.008 115.856C120.924 115.856 128.152 108.628 128.152 99.7124C128.152 90.7965 120.924 83.5688 112.008 83.5688C103.092 83.5688 95.8643 90.7965 95.8643 99.7124C95.8643 108.628 103.092 115.856 112.008 115.856Z" fill="white"/>
<path d="M95.8643 123.931H139.46V128.774H95.8643V123.931Z" fill="white"/>
<path d="M95.8643 135.239H123.309V140.082H95.8643V135.239Z" fill="white"/>
<path d="M95.8643 156.225H139.46V161.068H95.8643V156.225Z" fill="white"/>
<path d="M95.8643 177.218H139.46V182.061H95.8643V177.218Z" fill="white"/>
<path d="M95.8643 188.52H139.46V193.362H95.8643V188.52Z" fill="white"/>
<path d="M95.8643 167.527H123.309V172.369H95.8643V167.527Z" fill="white"/>
<path d="M276.642 80.7689C277.86 80.2328 278.894 79.351 279.615 78.2329C280.336 77.1149 280.714 75.8096 280.7 74.4791C280.7 70.7256 277.873 67.6686 274.35 67.6484C270.826 67.6281 267.959 70.6647 267.945 74.4115C267.915 75.7532 268.285 77.0735 269.007 78.2044C269.73 79.3353 270.773 80.2256 272.003 80.7621C262.19 82.2432 262.636 92.9358 262.636 92.9358L285.84 93.044C285.84 93.044 286.368 82.2365 276.642 80.7689Z" fill="#5468FF"/>
<path d="M294.329 95.2285H256.029C255.428 95.2285 254.94 95.7159 254.94 96.3173V97.9067C254.94 98.508 255.428 98.9955 256.029 98.9955H294.329C294.93 98.9955 295.418 98.508 295.418 97.9067V96.3173C295.418 95.7159 294.93 95.2285 294.329 95.2285Z" fill="#5468FF"/>
<path d="M247.709 140.221L228.157 140.132C227.582 140.129 227.113 140.594 227.111 141.169L227.102 143.056C227.099 143.631 227.564 144.099 228.139 144.102L247.691 144.191C248.266 144.193 248.734 143.729 248.737 143.154L248.746 141.267C248.748 140.692 248.284 140.223 247.709 140.221Z" fill="#5468FF"/>
<path d="M271.527 155.58L233.897 155.409C233.359 155.406 232.921 155.84 232.918 156.378L232.91 158.143C232.908 158.681 233.342 159.119 233.88 159.122L271.51 159.292C272.048 159.295 272.486 158.861 272.488 158.323L272.496 156.558C272.498 156.02 272.064 155.582 271.527 155.58Z" fill="#5468FF"/>
<path d="M247.702 108.657L228.15 108.569C227.575 108.566 227.106 109.03 227.104 109.605L227.095 111.492C227.092 112.068 227.557 112.536 228.132 112.539L247.684 112.627C248.259 112.63 248.728 112.166 248.73 111.59L248.739 109.704C248.741 109.128 248.277 108.66 247.702 108.657Z" fill="#5468FF"/>
<path d="M271.528 124.009L233.898 123.839C233.36 123.836 232.922 124.27 232.919 124.808L232.911 126.573C232.909 127.111 233.343 127.549 233.881 127.552L271.511 127.722C272.049 127.725 272.487 127.291 272.489 126.753L272.497 124.988C272.499 124.45 272.065 124.012 271.528 124.009Z" fill="#5468FF"/>
<path d="M247.769 174.429L228.339 174.341C227.753 174.338 227.275 174.811 227.273 175.398L227.264 177.23C227.262 177.817 227.735 178.294 228.321 178.297L247.752 178.385C248.338 178.388 248.816 177.915 248.818 177.328L248.826 175.495C248.829 174.909 248.356 174.431 247.769 174.429Z" fill="#5468FF"/>
<path d="M236.785 191.867C236.79 190.851 236.022 190.024 235.069 190.019C234.117 190.015 233.341 190.835 233.336 191.851C233.331 192.867 234.099 193.694 235.052 193.698C236.004 193.703 236.78 192.883 236.785 191.867Z" fill="#5468FF"/>
<path d="M242.127 191.887C242.132 190.871 241.363 190.044 240.411 190.04C239.458 190.035 238.682 190.855 238.678 191.871C238.673 192.887 239.441 193.714 240.394 193.719C241.346 193.723 242.122 192.903 242.127 191.887Z" fill="#5468FF"/>
<path d="M246.189 190.839C246.189 189.823 245.417 189 244.465 189C243.512 189 242.74 189.823 242.74 190.839C242.74 191.855 243.512 192.679 244.465 192.679C245.417 192.679 246.189 191.855 246.189 190.839Z" fill="#5468FF"/>
<path d="M252.808 191.942C252.813 190.926 252.045 190.099 251.093 190.094C250.14 190.09 249.364 190.91 249.359 191.926C249.354 192.942 250.123 193.769 251.075 193.773C252.028 193.778 252.804 192.958 252.808 191.942Z" fill="#5468FF"/>
<path d="M258.174 191.977C258.179 190.961 257.411 190.134 256.458 190.129C255.506 190.125 254.73 190.945 254.725 191.961C254.721 192.977 255.489 193.804 256.441 193.808C257.394 193.813 258.17 192.993 258.174 191.977Z" fill="#5468FF"/>
<path d="M262.197 190.968C262.197 189.952 261.425 189.128 260.473 189.128C259.52 189.128 258.748 189.952 258.748 190.968C258.748 191.984 259.52 192.807 260.473 192.807C261.425 192.807 262.197 191.984 262.197 190.968Z" fill="#5468FF"/>
<path d="M268.855 192.031C268.86 191.015 268.091 190.188 267.139 190.184C266.186 190.179 265.41 191 265.406 192.015C265.401 193.031 266.17 193.859 267.122 193.863C268.075 193.867 268.85 193.047 268.855 192.031Z" fill="#5468FF"/>
<path d="M274.196 192.052C274.2 191.036 273.432 190.209 272.48 190.204C271.527 190.2 270.751 191.02 270.747 192.036C270.742 193.052 271.51 193.879 272.463 193.883C273.415 193.888 274.191 193.068 274.196 192.052Z" fill="#5468FF"/>
<path d="M279.514 192.058C279.518 191.042 278.75 190.214 277.798 190.21C276.845 190.206 276.069 191.025 276.064 192.041C276.06 193.057 276.828 193.885 277.78 193.889C278.733 193.894 279.509 193.074 279.514 192.058Z" fill="#5468FF"/>
<path d="M308.261 244.674L229.166 244.309C228.347 244.309 227.685 243.416 227.691 242.32L227.779 221.625C227.779 220.53 228.456 219.644 229.267 219.65L308.362 220.016C309.181 220.016 309.844 220.908 309.837 222.004L309.749 242.699C309.749 243.795 309.073 244.681 308.261 244.674Z" fill="#5468FF"/>
<path d="M251.038 233.907L251.288 233.407C251.818 233.902 252.518 234.175 253.243 234.171C254.352 234.171 254.839 233.691 254.839 233.082C254.839 231.384 251.187 232.406 251.2 230.113C251.2 229.2 251.877 228.415 253.392 228.422C254.045 228.418 254.683 228.611 255.224 228.977L255.008 229.498C254.53 229.169 253.965 228.988 253.385 228.977C252.303 228.977 251.816 229.477 251.816 230.093C251.816 231.79 255.468 230.769 255.454 233.041C255.454 233.954 254.778 234.732 253.236 234.725C252.425 234.747 251.637 234.454 251.038 233.907Z" fill="#5468FF"/>
<path d="M256.84 228.483H257.469V234.685H256.84V228.483Z" fill="#5468FF"/>
<path d="M264.353 228.517V234.719H263.839L260.045 229.667V234.698H259.416V228.497H259.93L263.731 233.549V228.517H264.353Z" fill="#5468FF"/>
<path d="M270.448 231.648H271.05V233.995C270.447 234.518 269.67 234.795 268.873 234.773C268.036 234.768 267.235 234.432 266.647 233.837C266.058 233.242 265.73 232.438 265.734 231.601C265.739 230.764 266.076 229.963 266.67 229.375C267.265 228.786 268.07 228.458 268.906 228.463C269.316 228.447 269.725 228.52 270.104 228.677C270.483 228.833 270.824 229.069 271.104 229.369L270.712 229.782C270.483 229.54 270.206 229.349 269.898 229.222C269.59 229.095 269.259 229.034 268.927 229.044C268.524 229.05 268.128 229.15 267.771 229.337C267.414 229.523 267.106 229.791 266.872 230.119C266.638 230.447 266.484 230.825 266.422 231.223C266.361 231.621 266.394 232.028 266.519 232.411C266.644 232.794 266.857 233.142 267.141 233.427C267.425 233.713 267.773 233.927 268.155 234.054C268.537 234.181 268.944 234.215 269.343 234.156C269.741 234.096 270.12 233.944 270.448 233.711V231.648Z" fill="#5468FF"/>
<path d="M274.986 232.122V228.571H275.615V232.095C275.615 233.562 276.292 234.238 277.421 234.245C278.551 234.252 279.247 233.569 279.254 232.108V228.585H279.863V232.135C279.863 233.914 278.936 234.84 277.421 234.84C275.906 234.84 274.98 233.9 274.986 232.122Z" fill="#5468FF"/>
<path d="M286.395 230.749C286.395 232.101 285.469 232.859 283.96 232.852H282.364V234.807H281.735V228.605H283.954C285.489 228.584 286.402 229.416 286.395 230.749ZM285.766 230.749C285.766 229.754 285.144 229.186 283.96 229.18H282.385V232.284H283.96C285.137 232.284 285.766 231.723 285.766 230.742V230.749Z" fill="#5468FF"/>
<path d="M76.7715 56.2592C76.7715 56.2592 84.1163 61.9132 88.6543 76.7854C93.1924 91.6576 93.0572 114.355 98.9546 117.216C104.852 120.076 128.942 125.96 128.76 134.671C128.577 143.382 106.536 140.555 94.0378 134.543C81.5395 128.53 80.1869 88.8103 80.1869 88.8103L76.7715 56.2592Z" fill="#5468FF"/>
<path d="M140.433 123.275C140.433 123.275 131.817 137.37 122.605 139.115C121.927 139.238 121.227 139.126 120.621 138.798C120.015 138.469 119.539 137.944 119.271 137.309L116.965 131.898C116.965 131.898 130.254 121.125 140.433 123.275Z" fill="#F5B58F"/>
<path d="M115.361 136.288L115.956 136.923C116.108 137.087 116.307 137.198 116.526 137.242C116.744 137.285 116.971 137.259 117.174 137.167C121.029 135.402 139.736 126.833 143.043 124.993C143.194 124.91 143.323 124.79 143.417 124.645C143.512 124.5 143.569 124.334 143.584 124.161L144.646 112.664C144.671 112.386 144.586 112.109 144.409 111.893L143.611 110.919L142.346 123.255L115.361 136.288Z" fill="#000D44"/>
<path d="M115.348 136.112L116.059 124.614C116.127 124.325 116.262 124.055 116.452 123.827C116.642 123.598 116.882 123.416 117.154 123.296L142.699 110.987C143.274 110.709 143.72 110.845 143.693 111.298L142.983 122.795C142.915 123.085 142.78 123.355 142.59 123.584C142.4 123.812 142.159 123.994 141.887 124.114L116.322 136.416C115.761 136.7 115.315 136.558 115.348 136.112Z" fill="#000D44"/>
<path d="M120.475 132.122L120.989 123.755C121.058 123.466 121.192 123.196 121.383 122.968C121.573 122.739 121.813 122.557 122.085 122.437L141.022 113.286C141.597 113.009 142.043 113.144 142.016 113.597L141.502 121.936C141.434 122.226 141.299 122.495 141.109 122.724C140.919 122.953 140.678 123.135 140.406 123.255L121.47 132.406C120.888 132.703 120.442 132.548 120.475 132.122Z" fill="white"/>
<path opacity="0.05" d="M120.475 132.122L120.989 123.755C121.058 123.466 121.192 123.196 121.383 122.968C121.573 122.739 121.813 122.557 122.085 122.437L141.022 113.286C141.597 113.009 142.043 113.144 142.016 113.597L141.502 121.936C141.434 122.226 141.299 122.495 141.109 122.724C140.919 122.953 140.678 123.135 140.406 123.255L121.47 132.406C120.888 132.703 120.442 132.548 120.475 132.122Z" fill="#5468FF"/>
<path d="M118.094 130.438C117.201 130.87 116.518 130.654 116.558 129.964C116.665 129.518 116.872 129.103 117.166 128.751C117.459 128.399 117.83 128.12 118.249 127.935C119.142 127.502 119.825 127.719 119.784 128.409C119.678 128.854 119.47 129.269 119.177 129.621C118.884 129.973 118.513 130.253 118.094 130.438Z" fill="white"/>
<path opacity="0.05" d="M118.094 130.438C117.201 130.87 116.518 130.654 116.558 129.964C116.665 129.518 116.872 129.103 117.166 128.751C117.459 128.399 117.83 128.12 118.249 127.935C119.142 127.502 119.825 127.719 119.784 128.409C119.678 128.854 119.47 129.269 119.177 129.621C118.884 129.973 118.513 130.253 118.094 130.438Z" fill="#5468FF"/>
<path d="M121.733 121.395C121.733 121.395 121.206 116.756 124.438 115.559C127.671 114.361 133.312 115.559 133.312 115.559C134.915 117.885 130.735 118.703 125.615 119.271L121.733 121.395Z" fill="#F5B58F"/>
<path d="M127.962 132.196C127.962 132.196 130.336 134.299 131.729 133.021C133.122 131.743 132.696 127.293 132.446 125.744C132.196 124.195 130.417 127.381 130.275 129.017C130.156 129.831 129.955 130.631 129.673 131.405L127.962 132.196Z" fill="#F5B58F"/>
<path d="M132.879 129.484C132.879 129.484 135.415 131.587 137.065 130.066C138.716 128.544 138.215 123.269 137.917 121.429C137.62 119.589 135.375 123.363 135.341 125.318C135.307 127.272 134.448 127.874 134.448 127.874L132.879 129.484Z" fill="#F5B58F"/>
<path d="M135.496 128.192C135.496 128.192 137.735 130.045 139.196 128.706C140.656 127.367 140.21 122.7 139.946 121.077C139.682 119.454 137.701 122.788 137.674 124.513C137.647 126.238 136.883 126.772 136.883 126.772L135.496 128.192Z" fill="#F5B58F"/>
<path d="M129.99 131.702C129.99 131.702 132.526 133.806 134.177 132.284C135.827 130.762 135.326 125.487 135.029 123.647C134.731 121.808 132.486 125.582 132.452 127.536C132.418 129.491 131.559 130.093 131.559 130.093L129.99 131.702Z" fill="#F5B58F"/>
<path d="M36.8761 294.295L31.7158 298.597L37.6336 307.977L42.7939 303.676L36.8761 294.295Z" fill="#F5B58F"/>
<path d="M37.0035 339.811L15.4561 305.684C15.876 305.031 16.4263 304.472 17.0724 304.041C19.8251 302.012 25.0192 300.017 28.2114 298.63C28.5833 298.468 28.935 298.319 29.2394 298.171C29.6696 297.97 30.0874 297.745 30.4906 297.494C32.8644 296 33.7842 298.353 33.7842 298.353C32.5736 303.946 40.1281 304.656 39.8711 307.991C39.8711 307.991 39.7831 309.418 39.0595 313.672C38.3358 317.926 39.6276 323.553 40.4594 328.51C41.5348 334.915 40.3309 337.688 39.0459 338.885C38.5018 339.434 37.7749 339.763 37.0035 339.811Z" fill="#000D44"/>
<path d="M37.0035 339.811L15.4561 305.684C15.876 305.031 16.4263 304.472 17.0724 304.041L39.0798 338.932C38.5198 339.471 37.7803 339.784 37.0035 339.811Z" fill="#000D44"/>
<path d="M99.3197 233.86V234.09L98.7381 235.165C96.0328 240.089 84.3596 261.095 69.8594 280.87C67.7696 283.724 65.6189 286.545 63.4344 289.291C62.474 290.499 61.5046 291.689 60.5262 292.862C56.2925 297.954 52.7418 301.079 48.6975 303.683C48.2714 303.96 47.8385 304.23 47.3922 304.501C46.5535 305.015 45.6879 305.509 44.7884 306.009L43.4831 306.685C43.4831 306.685 37.0107 299.828 34.0146 293.159C34.0146 293.159 34.8668 291.806 36.233 289.548L37.0986 288.141C38.0184 286.626 39.1276 284.854 40.2706 282.913C45.5391 274.188 52.6404 262.211 55.2915 256.652C57.2326 252.594 59.5388 248.076 62.1223 243.632C62.6138 242.785 63.1143 241.944 63.6238 241.11L63.7996 240.819C67.3029 235.077 71.2391 229.633 75.297 225.622L66.2073 170.834L65.6324 167.391L86.2059 160.216L87.3827 159.81L92.2792 158.099C92.2792 158.099 92.6647 159.905 93.2599 163.002L93.4831 164.179C96.1613 178.26 102.12 213.455 99.3197 233.86Z" fill="#1B255E"/>
<path d="M31.8708 144.417C31.8708 144.417 30.2679 159.08 33.5751 167.263C36.8823 175.446 80.1056 171.402 91.1431 164.091C95.6744 161.095 86.1586 133.237 86.1586 133.237L31.8708 144.417Z" fill="#1B255E"/>
<path d="M49.3135 313.861L50.3753 322.559L61.4669 322.606L62.1499 313.455L49.3135 313.861Z" fill="#F5B58F"/>
<path d="M63.8874 163.191L63.3193 312.448L63.1502 314.815L46.6617 314.781C46.4926 313.706 46.1003 311.961 45.5863 309.715L45.2346 308.18C43.1245 299.043 39.5062 283.461 38.9111 269.928C38.0589 250.599 38.4106 225.561 38.4106 225.561C36.5846 211.196 33.7508 180.072 32.3238 164.145C32.29 163.766 32.2561 163.401 32.2291 163.036C31.7557 157.686 31.4648 154.318 31.4648 154.318C34.1228 153.223 38.9043 154 44.0376 155.475L45.1467 155.799C51.5494 157.849 57.8099 160.318 63.8874 163.191Z" fill="#1B255E"/>
<path d="M65.6321 337.471V337.762C65.6321 338.208 65.6321 338.607 65.578 338.946C65.5307 339.696 65.4766 340.163 65.4766 340.163L40.4529 340.068C40.3829 339.27 40.3829 338.466 40.4529 337.667C40.6287 335.118 41.4877 331.087 44.9504 328.436C49.6846 324.797 47.8586 325.555 48.8392 323.898C48.9474 323.715 49.8131 320.888 49.901 320.692C50.7194 318.967 51.4701 318.149 55.9473 318.169C61.8853 318.169 62.3993 321.077 63.0283 322.592C63.4287 323.747 63.754 324.926 64.0022 326.123C64.151 326.758 64.2998 327.428 64.4418 328.118C64.8003 329.842 65.1181 331.641 65.3616 333.075C65.5761 334.53 65.6666 336.001 65.6321 337.471Z" fill="#000D44"/>
<path d="M65.598 337.735C65.5574 339.155 65.4424 340.136 65.4424 340.136L40.4187 340.041C40.3487 339.243 40.3487 338.439 40.4187 337.641L65.598 337.735Z" fill="#000D44"/>
<path d="M31.1068 157.26L29.6865 165.626C29.6865 165.626 45.4988 169.224 55.4812 166.702C65.4636 164.179 89.5405 161.873 93.6525 161.717L91.0554 150.578C91.0554 150.578 60.1545 160.189 31.1068 157.26Z" fill="#5468FF"/>
<path opacity="0.3" d="M31.1068 157.26L29.6865 165.626C29.6865 165.626 45.4988 169.224 55.4812 166.702C65.4636 164.179 89.5405 161.873 93.6525 161.717L91.0554 150.578C91.0554 150.578 60.1545 160.189 31.1068 157.26Z" fill="#000D44"/>
<path d="M89.8179 147.636C89.8179 147.636 49.7935 160.912 32.588 154.142C32.588 154.142 27.1775 152.445 25.0674 141.854C24.9998 141.509 24.9321 141.177 24.8713 140.785C23.9785 135.55 23.8636 128.307 25.4191 118.325C27.2857 106.347 24.7901 100.22 23.7553 88.2828C23.7193 87.8635 23.6832 87.4351 23.6471 86.9978C23.5389 85.706 23.4375 84.3466 23.336 82.9061C22.2336 67.1479 17.2492 60.3915 25.1147 55.7452C32.9803 51.0989 43.2806 47.5483 43.2806 47.5483C43.2806 47.5483 52.0321 50.3618 58.2136 47.6024C58.2136 47.6024 67.5874 52.2419 74.7969 54.8998C82.0064 57.5578 79.5311 76.6299 81.7968 87.5929C84.0624 98.556 87.8836 107.287 91.2652 125.467C94.3965 142.104 89.8179 147.636 89.8179 147.636Z" fill="#5468FF"/>
<path d="M59.1394 57.0099C59.021 57.0198 58.9036 56.9822 58.8129 56.9055C58.7222 56.8287 58.6657 56.7191 58.6558 56.6007C58.646 56.4824 58.6835 56.3649 58.7603 56.2742C58.837 56.1835 58.9466 56.127 59.065 56.1172C63.2244 55.3868 65.2668 51.4709 65.2871 51.4303C65.3138 51.3779 65.3505 51.3313 65.3951 51.293C65.4398 51.2548 65.4916 51.2258 65.5475 51.2076C65.6034 51.1894 65.6623 51.1823 65.7209 51.1869C65.7795 51.1915 65.8366 51.2075 65.889 51.2342C65.9414 51.2608 65.9881 51.2975 66.0263 51.3422C66.0645 51.3869 66.0936 51.4386 66.1118 51.4945C66.13 51.5504 66.137 51.6093 66.1324 51.6679C66.1279 51.7266 66.1118 51.7837 66.0852 51.8361C65.9973 52.0119 63.8128 56.1916 59.2206 56.9964L59.1394 57.0099Z" fill="#5468FF"/>
<path opacity="0.2" d="M59.1394 57.0099C59.021 57.0198 58.9036 56.9822 58.8129 56.9055C58.7222 56.8287 58.6657 56.7191 58.6558 56.6007C58.646 56.4824 58.6835 56.3649 58.7603 56.2742C58.837 56.1835 58.9466 56.127 59.065 56.1172C63.2244 55.3868 65.2668 51.4709 65.2871 51.4303C65.3138 51.3779 65.3505 51.3313 65.3951 51.293C65.4398 51.2548 65.4916 51.2258 65.5475 51.2076C65.6034 51.1894 65.6623 51.1823 65.7209 51.1869C65.7795 51.1915 65.8366 51.2075 65.889 51.2342C65.9414 51.2608 65.9881 51.2975 66.0263 51.3422C66.0645 51.3869 66.0936 51.4386 66.1118 51.4945C66.13 51.5504 66.137 51.6093 66.1324 51.6679C66.1279 51.7266 66.1118 51.7837 66.0852 51.8361C65.9973 52.0119 63.8128 56.1916 59.2206 56.9964L59.1394 57.0099Z" fill="#000D44"/>
<path d="M45.0459 79.4704L45.8507 88.7021L72.2879 86.707L70.6377 78.0975L45.0459 79.4704Z" fill="#5468FF"/>
<path opacity="0.1" d="M45.0459 79.4704L45.8507 88.7021L72.2879 86.707L70.6377 78.0975L45.0459 79.4704Z" fill="#000D44"/>
<path d="M96.7085 116.938C96.6619 116.823 96.572 116.731 96.4581 116.682C96.3443 116.633 96.2156 116.63 96.0999 116.674C96.066 116.674 95.782 116.803 95.3559 116.992C94.045 116.556 92.6787 116.308 91.298 116.255C91.1831 116.269 91.0772 116.324 91.0003 116.411C90.9235 116.498 90.8811 116.609 90.8811 116.725C90.8811 116.841 90.9235 116.953 91.0003 117.039C91.0772 117.126 91.1831 117.181 91.298 117.195C92.2269 117.242 93.1489 117.38 94.0506 117.608C92.9293 118.179 91.8571 118.842 90.8449 119.589C89.7222 113.949 87.186 105.387 85.5358 99.7937C85.1368 98.441 84.7919 97.2778 84.5416 96.4121C83.074 91.2788 81.3629 78.7197 81.3494 78.5979C81.3288 78.4463 81.2488 78.3092 81.127 78.2166C81.0053 78.124 80.8517 78.0836 80.7002 78.1042C80.5486 78.1248 80.4114 78.2048 80.3188 78.3266C80.2262 78.4483 80.1858 78.6019 80.2064 78.7535C80.2741 79.2742 81.9446 91.5155 83.4392 96.7299C83.6895 97.6024 84.0344 98.7589 84.4334 100.112C86.4624 107.071 89.9319 118.717 90.2497 123.302C90.2599 123.447 90.324 123.582 90.4293 123.681C90.5346 123.78 90.6733 123.835 90.8178 123.837H90.8584C90.934 123.832 91.0078 123.812 91.0756 123.778C91.1434 123.744 91.2038 123.697 91.2535 123.64C91.3031 123.583 91.341 123.516 91.3649 123.444C91.3888 123.373 91.3982 123.297 91.3927 123.221C91.318 122.345 91.1984 121.474 91.0343 120.611C92.6996 119.361 94.5178 118.329 96.4448 117.54C96.5581 117.494 96.6489 117.405 96.6981 117.292C96.7473 117.18 96.751 117.053 96.7085 116.938Z" fill="#5468FF"/>
<path opacity="0.2" d="M96.7085 116.938C96.6619 116.823 96.572 116.731 96.4581 116.682C96.3443 116.633 96.2156 116.63 96.0999 116.674C96.066 116.674 95.782 116.803 95.3559 116.992C94.045 116.556 92.6787 116.308 91.298 116.255C91.1831 116.269 91.0772 116.324 91.0003 116.411C90.9235 116.498 90.8811 116.609 90.8811 116.725C90.8811 116.841 90.9235 116.953 91.0003 117.039C91.0772 117.126 91.1831 117.181 91.298 117.195C92.2269 117.242 93.1489 117.38 94.0506 117.608C92.9293 118.179 91.8571 118.842 90.8449 119.589C89.7222 113.949 87.186 105.387 85.5358 99.7937C85.1368 98.441 84.7919 97.2778 84.5416 96.4121C83.074 91.2788 81.3629 78.7197 81.3494 78.5979C81.3288 78.4463 81.2488 78.3092 81.127 78.2166C81.0053 78.124 80.8517 78.0836 80.7002 78.1042C80.5486 78.1248 80.4114 78.2048 80.3188 78.3266C80.2262 78.4483 80.1858 78.6019 80.2064 78.7535C80.2741 79.2742 81.9446 91.5155 83.4392 96.7299C83.6895 97.6024 84.0344 98.7589 84.4334 100.112C86.4624 107.071 89.9319 118.717 90.2497 123.302C90.2599 123.447 90.324 123.582 90.4293 123.681C90.5346 123.78 90.6733 123.835 90.8178 123.837H90.8584C90.934 123.832 91.0078 123.812 91.0756 123.778C91.1434 123.744 91.2038 123.697 91.2535 123.64C91.3031 123.583 91.341 123.516 91.3649 123.444C91.3888 123.373 91.3982 123.297 91.3927 123.221C91.318 122.345 91.1984 121.474 91.0343 120.611C92.6996 119.361 94.5178 118.329 96.4448 117.54C96.5581 117.494 96.6489 117.405 96.6981 117.292C96.7473 117.18 96.751 117.053 96.7085 116.938Z" fill="#000D44"/>
<path d="M91.8605 142.097C91.8605 142.097 93.5445 147.332 91.1233 150.842C91.1233 150.842 55.1636 163.171 31.0935 157.267C31.0935 157.267 28.9361 154.643 28.3477 149.28C28.3477 149.28 57.294 156.591 91.8605 142.097Z" fill="#5468FF"/>
<path opacity="0.15" d="M91.8605 142.097C91.8605 142.097 93.5445 147.332 91.1233 150.842C91.1233 150.842 55.1636 163.171 31.0935 157.267C31.0935 157.267 28.9361 154.643 28.3477 149.28C28.3477 149.28 57.294 156.591 91.8605 142.097Z" fill="#000D44"/>
<path d="M55.0015 66.1808C61.6565 66.1808 63.7936 60.2495 63.7936 60.1819C63.8313 60.0724 63.8239 59.9525 63.7732 59.8485C63.7481 59.797 63.7131 59.751 63.6701 59.713C63.6272 59.6751 63.5773 59.6459 63.5231 59.6273C63.4137 59.5896 63.2938 59.597 63.1898 59.6477C63.0858 59.6984 63.0062 59.7884 62.9685 59.8978C62.3264 61.6225 61.1335 63.0874 59.5746 64.0656C58.0157 65.0437 56.1778 65.4805 54.3455 65.3083C47.5417 64.8552 38.7902 60.3306 38.7293 60.2833C38.6271 60.2295 38.5077 60.2185 38.3973 60.2527C38.287 60.287 38.1948 60.3637 38.141 60.4659C38.0871 60.5682 38.0762 60.6876 38.1104 60.7979C38.1446 60.9083 38.2213 61.0005 38.3236 61.0543C38.6888 61.2437 47.2983 65.7141 54.2846 66.174C54.5213 66.174 54.7783 66.1808 55.0015 66.1808Z" fill="#5468FF"/>
<path opacity="0.2" d="M55.0015 66.1808C61.6565 66.1808 63.7936 60.2495 63.7936 60.1819C63.8313 60.0724 63.8239 59.9525 63.7732 59.8485C63.7481 59.797 63.7131 59.751 63.6701 59.713C63.6272 59.6751 63.5773 59.6459 63.5231 59.6273C63.4137 59.5896 63.2938 59.597 63.1898 59.6477C63.0858 59.6984 63.0062 59.7884 62.9685 59.8978C62.3264 61.6225 61.1335 63.0874 59.5746 64.0656C58.0157 65.0437 56.1778 65.4805 54.3455 65.3083C47.5417 64.8552 38.7902 60.3306 38.7293 60.2833C38.6271 60.2295 38.5077 60.2185 38.3973 60.2527C38.287 60.287 38.1948 60.3637 38.141 60.4659C38.0871 60.5682 38.0762 60.6876 38.1104 60.7979C38.1446 60.9083 38.2213 61.0005 38.3236 61.0543C38.6888 61.2437 47.2983 65.7141 54.2846 66.174C54.5213 66.174 54.7783 66.1808 55.0015 66.1808Z" fill="#000D44"/>
<path d="M81.4518 120.042C81.4518 120.042 86.558 130.14 84.8334 137.978C84.8334 137.978 65.6396 146.892 43.0033 142.253C43.2928 135.978 43.1821 129.691 42.6719 123.431C42.6719 123.431 67.4994 119.772 81.4518 120.042Z" fill="#5468FF"/>
<path d="M58.5444 44.4846L58.1386 48.4342C57.6233 48.6863 57.1221 48.9663 56.6372 49.2729C51.8556 53.2767 45.62 48.8738 42.4346 45.6952L43.8819 33.1292L56.8063 43.1319L58.5444 44.4846Z" fill="#F5B58F"/>
<path d="M40.7101 22.9845C39.4791 21.4936 38.6192 19.7321 38.201 17.8445C37.7411 15.0919 40.5681 13.3064 40.5681 13.3064C40.1773 12.633 39.9939 11.8593 40.0408 11.0821C40.0877 10.3049 40.3629 9.55889 40.8318 8.9374C42.597 6.23213 46.8781 6.50266 46.8781 6.50266C46.8781 6.50266 45.938 4.22347 48.7921 2.66119C51.6461 1.0989 54.5746 3.62155 54.5746 3.62155C54.9134 2.79557 55.4823 2.08429 56.2136 1.57233C56.945 1.06036 57.8081 0.769273 58.7001 0.733683C61.845 0.591657 62.5213 3.72976 62.5213 3.72976C62.5213 3.72976 69.1898 0.875709 72.1723 5.17708C76.5413 11.4803 67.0526 15.031 67.0526 15.031C52.0249 9.95863 41.4202 23.742 41.4202 23.742L40.7101 22.9845Z" fill="#000D44"/>
<path d="M63.8943 11.9268C63.8943 11.9268 74.384 17.9392 67.3368 25.9062C67.3368 25.9062 63.4074 14.517 63.8943 11.9268Z" fill="#000D44"/>
<path d="M65.2736 27.482C65.2736 27.482 67.7895 25.0608 68.7837 27.8404C69.7779 30.6201 68.2562 35.8886 64.9287 34.6577L65.2736 27.482Z" fill="#EFAB89"/>
<path d="M66.7143 37.0248C66.7143 37.0248 65.8892 45.1947 57.3946 44.3019C48.9001 43.4092 43.8683 36.1861 43.6113 35.8615L43.6925 34.1369L44.1253 25.1757L44.3553 20.3874C44.3553 20.3874 44.1591 11.7035 52.4711 10.9731C58.5579 10.4388 64.0293 12.0011 66.5249 15.3962C67.4818 16.6978 67.9834 18.2785 67.9519 19.8937L67.3365 28.4761L67.1877 30.5795L66.7143 37.0248Z" fill="#F5B58F"/>
<path d="M66.5178 15.3895C66.4348 15.652 66.2802 15.8862 66.0714 16.0658C64.2454 17.6281 60.4039 16.6136 56.9006 15.1257C55.8639 14.7069 54.7354 14.5677 53.6281 14.722C52.5207 14.8763 51.4733 15.3187 50.5906 16.0049C51.2669 19.5691 47.8041 19.5015 48.264 22.2C48.5056 24.2423 48.4464 26.309 48.0882 28.3341L45.9916 27.8337C45.6602 26.5554 44.6999 25.1284 42.3463 24.3574C39.8236 24.5603 40.2091 19.3933 41.8999 15.4436C41.8999 15.4436 44.4699 10.7094 52.7818 9.95188C58.8349 9.45817 64.0154 11.9944 66.5178 15.3895Z" fill="#000D44"/>
<path d="M45.695 26.995C45.695 26.995 42.8815 22.2608 40.1357 25.4733C37.87 28.1109 40.812 35.8953 45.0052 33.7649L45.695 26.995Z" fill="#EFAB89"/>
<path d="M42.4218 45.1541C42.4218 45.1541 50.1859 50.896 52.4448 50.8824C50.4289 52.9993 47.7386 54.3481 44.8363 54.6969C38.7494 55.2717 28.4424 53.9056 28.4424 53.9056C28.4424 53.9056 36.0442 48.0081 42.4218 45.1541Z" fill="#5468FF"/>
<path d="M41.7651 59.4447C35.4821 59.4447 30.8223 55.1974 30.6262 55.0148C30.5365 54.9341 30.4826 54.821 30.4762 54.7005C30.4699 54.58 30.5117 54.462 30.5924 54.3723C30.6731 54.2826 30.7861 54.2287 30.9066 54.2223C31.0271 54.216 31.1452 54.2578 31.2349 54.3385C31.2822 54.379 36.03 58.6939 42.1303 58.5249C42.2496 58.5249 42.364 58.5723 42.4483 58.6566C42.5327 58.7409 42.5801 58.8553 42.5801 58.9746C42.5801 59.0939 42.5327 59.2083 42.4483 59.2926C42.364 59.377 42.2496 59.4244 42.1303 59.4244L41.7651 59.4447Z" fill="#5468FF"/>
<path opacity="0.2" d="M41.7651 59.4447C35.4821 59.4447 30.8223 55.1974 30.6262 55.0148C30.5365 54.9341 30.4826 54.821 30.4762 54.7005C30.4699 54.58 30.5117 54.462 30.5924 54.3723C30.6731 54.2826 30.7861 54.2287 30.9066 54.2223C31.0271 54.216 31.1452 54.2578 31.2349 54.3385C31.2822 54.379 36.03 58.6939 42.1303 58.5249C42.2496 58.5249 42.364 58.5723 42.4483 58.6566C42.5327 58.7409 42.5801 58.8553 42.5801 58.9746C42.5801 59.0939 42.5327 59.2083 42.4483 59.2926C42.364 59.377 42.2496 59.4244 42.1303 59.4244L41.7651 59.4447Z" fill="#000D44"/>
<path d="M58.5654 45.3435C58.5654 45.3435 57.0301 49.7801 52.4785 50.8758C52.7939 52.0713 53.5523 53.102 54.5998 53.7589C55.6473 54.4158 56.9054 54.6496 58.119 54.4129C60.8062 54.0819 63.3272 52.9346 65.342 51.126C65.342 51.126 62.2175 45.357 58.5654 45.3435Z" fill="#5468FF"/>
<path opacity="0.15" d="M42.4218 45.1541C42.4218 45.1541 50.1859 50.896 52.4448 50.8824C50.4289 52.9993 47.7386 54.3481 44.8363 54.6969C38.7494 55.2717 28.4424 53.9056 28.4424 53.9056C28.4424 53.9056 36.0442 48.0081 42.4218 45.1541Z" fill="#000D44"/>
<path opacity="0.15" d="M58.5654 45.3435C58.5654 45.3435 57.0301 49.7801 52.4785 50.8758C52.7939 52.0713 53.5523 53.102 54.5998 53.7589C55.6473 54.4158 56.9054 54.6496 58.119 54.4129C60.8062 54.0819 63.3272 52.9346 65.342 51.126C65.342 51.126 62.2175 45.357 58.5654 45.3435Z" fill="#000D44"/>
<path d="M42.9351 142.828C42.9351 142.828 23.863 145.296 11.1483 137.079C3.92524 132.412 -1.25533 124.303 0.266377 110.337C0.266377 110.128 0.313717 109.911 0.340769 109.702C4.09432 78.8481 18.3172 62.3122 23.3355 57.3345C24.059 56.6078 24.9415 56.0591 25.9133 55.7317C26.8851 55.4042 27.9196 55.307 28.9354 55.4476C34.6638 56.293 38.2347 64.7267 27.3461 104.054C23.2882 123.444 42.0221 125.798 42.0221 125.798L42.9351 142.828Z" fill="#5468FF"/>
<path d="M38.702 75.3787C38.571 75.2909 38.4106 75.2587 38.2559 75.2891C38.1012 75.3196 37.9649 75.4102 37.8769 75.541L35.8412 78.6047C36.2353 76.4993 36.4996 74.3716 36.6325 72.2338C36.6405 72.0759 36.5856 71.9214 36.4797 71.804C36.3738 71.6867 36.2256 71.6163 36.0677 71.6082C35.9099 71.6001 35.7553 71.6551 35.638 71.761C35.5207 71.8669 35.4502 72.0151 35.4422 72.1729C34.8199 84.4683 26.3728 107.45 26.2848 107.679C26.2549 107.753 26.2401 107.833 26.2413 107.912C26.2425 107.992 26.2597 108.071 26.2919 108.144C26.3241 108.216 26.3706 108.282 26.4287 108.337C26.4868 108.391 26.5552 108.434 26.63 108.461C26.7048 108.489 26.7843 108.501 26.864 108.498C26.9436 108.494 27.0217 108.474 27.0936 108.44C27.1654 108.405 27.2297 108.357 27.2825 108.297C27.3352 108.237 27.3754 108.168 27.4008 108.092C27.4684 107.909 32.676 93.7406 35.2528 81.6008L38.8914 76.1902C38.9723 76.0571 38.9978 75.8975 38.9624 75.7458C38.927 75.594 38.8335 75.4622 38.702 75.3787Z" fill="#5468FF"/>
<path opacity="0.2" d="M38.702 75.3787C38.571 75.2909 38.4106 75.2587 38.2559 75.2891C38.1012 75.3196 37.9649 75.4102 37.8769 75.541L35.8412 78.6047C36.2353 76.4993 36.4996 74.3716 36.6325 72.2338C36.6405 72.0759 36.5856 71.9214 36.4797 71.804C36.3738 71.6867 36.2256 71.6163 36.0677 71.6082C35.9099 71.6001 35.7553 71.6551 35.638 71.761C35.5207 71.8669 35.4502 72.0151 35.4422 72.1729C34.8199 84.4683 26.3728 107.45 26.2848 107.679C26.2549 107.753 26.2401 107.833 26.2413 107.912C26.2425 107.992 26.2597 108.071 26.2919 108.144C26.3241 108.216 26.3706 108.282 26.4287 108.337C26.4868 108.391 26.5552 108.434 26.63 108.461C26.7048 108.489 26.7843 108.501 26.864 108.498C26.9436 108.494 27.0217 108.474 27.0936 108.44C27.1654 108.405 27.2297 108.357 27.2825 108.297C27.3352 108.237 27.3754 108.168 27.4008 108.092C27.4684 107.909 32.676 93.7406 35.2528 81.6008L38.8914 76.1902C38.9723 76.0571 38.9978 75.8975 38.9624 75.7458C38.927 75.594 38.8335 75.4622 38.702 75.3787Z" fill="#000D44"/>
<path d="M43.5101 142.692C43.4703 142.54 43.3719 142.41 43.2363 142.33C43.1006 142.25 42.9389 142.227 42.7865 142.266C41.6568 142.534 40.5116 142.73 39.3575 142.855C37.8155 138.256 38.4648 126.704 38.6407 124.026C39.9369 124.056 41.2282 123.857 42.4551 123.438C42.5863 123.37 42.6878 123.257 42.7399 123.119C42.792 122.981 42.791 122.828 42.7371 122.691C42.6832 122.553 42.5802 122.441 42.4481 122.375C42.316 122.31 42.1643 122.295 42.0222 122.335C41.9478 122.335 34.5828 125.142 29.3954 117.276C29.351 117.212 29.2943 117.156 29.2284 117.113C29.1626 117.07 29.0889 117.041 29.0117 117.026C28.9344 117.012 28.8551 117.013 28.7782 117.029C28.7013 117.045 28.6284 117.076 28.5635 117.121C28.4987 117.165 28.4433 117.222 28.4004 117.288C28.3574 117.354 28.3279 117.427 28.3135 117.505C28.299 117.582 28.3 117.661 28.3162 117.738C28.3324 117.815 28.3636 117.888 28.408 117.953C31.35 122.389 34.9277 123.681 37.4571 123.972C37.2745 126.677 36.632 137.972 38.1334 142.99C34.0675 143.35 29.97 143.021 26.0138 142.016C25.9178 141.99 25.8168 141.989 25.7204 142.013C25.6239 142.037 25.535 142.085 25.4621 142.153C25.3891 142.22 25.3345 142.305 25.3033 142.4C25.272 142.494 25.2652 142.595 25.2834 142.692C25.3008 142.806 25.3511 142.912 25.428 142.997C25.5049 143.083 25.6051 143.144 25.7163 143.173C31.4067 144.629 37.3618 144.712 43.0908 143.416C43.2418 143.375 43.3705 143.276 43.449 143.14C43.5275 143.005 43.5494 142.844 43.5101 142.692Z" fill="#5468FF"/>
<path opacity="0.2" d="M43.5101 142.692C43.4703 142.54 43.3719 142.41 43.2363 142.33C43.1006 142.25 42.9389 142.227 42.7865 142.266C41.6568 142.534 40.5116 142.73 39.3575 142.855C37.8155 138.256 38.4648 126.704 38.6407 124.026C39.9369 124.056 41.2282 123.857 42.4551 123.438C42.5863 123.37 42.6878 123.257 42.7399 123.119C42.792 122.981 42.791 122.828 42.7371 122.691C42.6832 122.553 42.5802 122.441 42.4481 122.375C42.316 122.31 42.1643 122.295 42.0222 122.335C41.9478 122.335 34.5828 125.142 29.3954 117.276C29.351 117.212 29.2943 117.156 29.2284 117.113C29.1626 117.07 29.0889 117.041 29.0117 117.026C28.9344 117.012 28.8551 117.013 28.7782 117.029C28.7013 117.045 28.6284 117.076 28.5635 117.121C28.4987 117.165 28.4433 117.222 28.4004 117.288C28.3574 117.354 28.3279 117.427 28.3135 117.505C28.299 117.582 28.3 117.661 28.3162 117.738C28.3324 117.815 28.3636 117.888 28.408 117.953C31.35 122.389 34.9277 123.681 37.4571 123.972C37.2745 126.677 36.632 137.972 38.1334 142.99C34.0675 143.35 29.97 143.021 26.0138 142.016C25.9178 141.99 25.8168 141.989 25.7204 142.013C25.6239 142.037 25.535 142.085 25.4621 142.153C25.3891 142.22 25.3345 142.305 25.3033 142.4C25.272 142.494 25.2652 142.595 25.2834 142.692C25.3008 142.806 25.3511 142.912 25.428 142.997C25.5049 143.083 25.6051 143.144 25.7163 143.173C31.4067 144.629 37.3618 144.712 43.0908 143.416C43.2418 143.375 43.3705 143.276 43.449 143.14C43.5275 143.005 43.5494 142.844 43.5101 142.692Z" fill="#000D44"/>
<path opacity="0.15" d="M81.4518 120.042C81.4518 120.042 86.558 130.14 84.8334 137.978C84.8334 137.978 65.6396 146.892 43.0033 142.253C43.2928 135.978 43.1821 129.691 42.6719 123.431C42.6719 123.431 67.4994 119.772 81.4518 120.042Z" fill="#000D44"/>
<path d="M311.832 119.021C312.177 119.021 312.507 119.158 312.751 119.402C312.994 119.645 313.131 119.975 313.131 120.32V131.256C313.131 131.6 312.994 131.931 312.751 132.174C312.507 132.418 312.177 132.554 311.832 132.554H228.537C228.193 132.554 227.863 132.418 227.619 132.174C227.376 131.931 227.239 131.6 227.239 131.256V120.32C227.239 119.975 227.376 119.645 227.619 119.402C227.863 119.158 228.193 119.021 228.537 119.021H311.832ZM311.832 118.345H228.537C228.014 118.345 227.511 118.553 227.141 118.923C226.771 119.294 226.562 119.796 226.562 120.32V131.256C226.562 131.78 226.771 132.282 227.141 132.652C227.511 133.023 228.014 133.231 228.537 133.231H311.832C312.356 133.231 312.858 133.023 313.229 132.652C313.599 132.282 313.807 131.78 313.807 131.256V120.32C313.807 119.796 313.599 119.294 313.229 118.923C312.858 118.553 312.356 118.345 311.832 118.345Z" fill="#5468FF"/>
<path d="M311.832 150.132C312.003 150.132 312.172 150.165 312.329 150.231C312.487 150.296 312.63 150.392 312.751 150.512C312.871 150.633 312.967 150.776 313.032 150.933C313.097 151.091 313.131 151.26 313.131 151.43V162.366C313.131 162.711 312.994 163.041 312.751 163.285C312.507 163.528 312.177 163.665 311.832 163.665H228.537C228.193 163.665 227.863 163.528 227.619 163.285C227.376 163.041 227.239 162.711 227.239 162.366V151.43C227.239 151.26 227.272 151.091 227.338 150.933C227.403 150.776 227.499 150.633 227.619 150.512C227.74 150.392 227.883 150.296 228.04 150.231C228.198 150.165 228.367 150.132 228.537 150.132H311.832ZM311.832 149.456H228.537C228.014 149.456 227.511 149.664 227.141 150.034C226.771 150.404 226.562 150.907 226.562 151.43V162.366C226.562 162.626 226.614 162.883 226.713 163.122C226.812 163.362 226.958 163.579 227.141 163.763C227.324 163.946 227.542 164.092 227.782 164.191C228.021 164.29 228.278 164.341 228.537 164.341H311.832C312.092 164.341 312.349 164.29 312.588 164.191C312.828 164.092 313.045 163.946 313.229 163.763C313.412 163.579 313.558 163.362 313.657 163.122C313.756 162.883 313.807 162.626 313.807 162.366V151.43C313.807 150.907 313.599 150.404 313.229 150.034C312.858 149.664 312.356 149.456 311.832 149.456Z" fill="#5468FF"/>
<path d="M311.832 184.624C312.003 184.624 312.172 184.658 312.329 184.723C312.487 184.788 312.63 184.884 312.751 185.004C312.871 185.125 312.967 185.268 313.032 185.426C313.097 185.583 313.131 185.752 313.131 185.922V196.858C313.131 197.203 312.994 197.533 312.751 197.777C312.507 198.02 312.177 198.157 311.832 198.157H228.537C228.193 198.157 227.863 198.02 227.619 197.777C227.376 197.533 227.239 197.203 227.239 196.858V185.922C227.239 185.752 227.272 185.583 227.338 185.426C227.403 185.268 227.499 185.125 227.619 185.004C227.74 184.884 227.883 184.788 228.04 184.723C228.198 184.658 228.367 184.624 228.537 184.624H311.832ZM311.832 183.948H228.537C228.014 183.948 227.511 184.156 227.141 184.526C226.771 184.896 226.562 185.399 226.562 185.922V196.858C226.562 197.382 226.771 197.885 227.141 198.255C227.511 198.625 228.014 198.833 228.537 198.833H311.832C312.356 198.833 312.858 198.625 313.229 198.255C313.599 197.885 313.807 197.382 313.807 196.858V185.922C313.807 185.399 313.599 184.896 313.229 184.526C312.858 184.156 312.356 183.948 311.832 183.948Z" fill="#5468FF"/>
</svg>
