<svg width="522" height="355" viewBox="0 0 522 355" fill="none" xmlns="http://www.w3.org/2000/svg">
<path d="M200.02 107.691L233.111 0.27832H359.554L321.938 110.868L200.02 107.691Z" fill="white"/>
<path opacity="0.5" d="M200.02 107.691L233.111 0.27832H359.554L321.938 110.868L200.02 107.691Z" fill="#5468FF"/>
<path d="M297.466 32.4593H521.355L474.224 178.399H250.327L297.466 32.4593Z" fill="white"/>
<path d="M521.355 32.4593L514.873 52.5357L474.224 178.399H250.327L297.466 32.4593H521.355Z" fill="#5468FF"/>
<path d="M226.269 22.4775H352.004L359.554 0.27832H233.111L226.269 22.4775Z" fill="#5468FF"/>
<path d="M243.629 15.1936C246.372 14.663 248.239 12.3897 247.799 10.1162C247.359 7.84263 244.779 6.42977 242.036 6.96046C239.293 7.49115 237.426 9.76442 237.866 12.038C238.306 14.3115 240.886 15.7243 243.629 15.1936Z" fill="white"/>
<path d="M260.38 15.35C263.123 14.8193 264.99 12.5461 264.55 10.2725C264.11 7.99901 261.53 6.58616 258.787 7.11685C256.044 7.64754 254.177 9.92081 254.617 12.1943C255.057 14.4679 257.637 15.8807 260.38 15.35Z" fill="white"/>
<path d="M276.229 16.0091C278.972 15.4784 280.839 13.2051 280.399 10.9316C279.96 8.65807 277.379 7.24522 274.636 7.7759C271.894 8.30659 270.027 10.5799 270.466 12.8534C270.906 15.1269 273.486 16.5398 276.229 16.0091Z" fill="white"/>
<path d="M521.355 32.4593L514.874 52.5357H291.301L297.466 32.4593H521.355Z" fill="#5468FF"/>
<path opacity="0.2" d="M521.355 32.4593L514.874 52.5357H291.301L297.466 32.4593H521.355Z" fill="#000D44"/>
<path d="M309.468 47.5432C312.211 47.0125 314.078 44.7393 313.638 42.4657C313.198 40.1922 310.618 38.7793 307.875 39.31C305.132 39.8407 303.265 42.114 303.705 44.3875C304.145 46.6611 306.725 48.0739 309.468 47.5432Z" fill="#FFFFFE"/>
<path d="M326.221 47.6997C328.964 47.169 330.831 44.8958 330.391 42.6222C329.951 40.3487 327.371 38.9358 324.628 39.4665C321.885 39.9972 320.018 42.2705 320.458 44.544C320.897 46.8176 323.478 48.2304 326.221 47.6997Z" fill="#FFFFFE"/>
<path d="M342.07 48.3736C344.813 47.843 346.68 45.5697 346.24 43.2961C345.8 41.0226 343.22 39.6098 340.477 40.1405C337.734 40.6711 335.867 42.9444 336.307 45.2179C336.747 47.4915 339.327 48.9043 342.07 48.3736Z" fill="#FFFFFE"/>
<path d="M412.609 80.6291C408.604 91.5142 396.312 100.344 385.148 100.344C373.984 100.344 368.188 91.5142 372.193 80.6291C376.198 69.7441 388.498 60.9291 399.661 60.9367C410.825 60.9442 416.621 69.7516 412.609 80.6291Z" fill="white"/>
<path d="M412.609 80.6291C408.604 91.5142 396.312 100.344 385.148 100.344C373.984 100.344 368.188 91.5142 372.193 80.6291C376.198 69.7441 388.498 60.9291 399.661 60.9367C410.825 60.9442 416.621 69.7516 412.609 80.6291Z" fill="white"/>
<path d="M409.026 80.6292C405.729 89.5796 395.619 96.8288 386.443 96.8213C377.267 96.8137 372.494 89.557 375.791 80.6141C379.088 71.6712 389.198 64.4145 398.374 64.422C407.55 64.4295 412.316 71.6787 409.026 80.6292Z" fill="#5468FF"/>
<path d="M400.95 74.4941C399.7 77.8815 395.876 80.6216 392.406 80.6216C388.935 80.6216 387.136 77.874 388.378 74.4865C389.62 71.0991 393.452 68.359 396.922 68.359C400.393 68.359 402.192 71.1066 400.95 74.4941Z" fill="white"/>
<path d="M400.95 74.4941C399.7 77.8815 395.876 80.6216 392.406 80.6216C388.935 80.6216 387.136 77.874 388.378 74.4865C389.62 71.0991 393.452 68.359 396.922 68.359C400.393 68.359 402.192 71.1066 400.95 74.4941Z" fill="white"/>
<path d="M382.484 81.9314L401.348 81.939L398.126 90.7012L379.262 90.6862L382.484 81.9314Z" fill="white"/>
<path d="M382.484 81.9314L401.348 81.939L398.126 90.7012L379.262 90.6862L382.484 81.9314Z" fill="white"/>
<path d="M380.42 167.521H350.49C348.525 167.521 347.479 165.971 348.231 164.059L348.457 163.441C348.853 162.468 349.516 161.626 350.37 161.013C351.224 160.401 352.233 160.042 353.282 159.979H383.213C385.177 159.979 386.224 161.529 385.471 163.441L385.245 164.059C384.849 165.032 384.186 165.874 383.332 166.487C382.479 167.1 381.469 167.458 380.42 167.521Z" fill="white"/>
<path d="M380.42 167.521H350.49C348.525 167.521 347.479 165.971 348.231 164.059L348.457 163.441C348.853 162.468 349.516 161.626 350.37 161.013C351.224 160.401 352.233 160.042 353.282 159.979H383.213C385.177 159.979 386.224 161.529 385.471 163.441L385.245 164.059C384.849 165.032 384.186 165.874 383.332 166.487C382.479 167.1 381.469 167.458 380.42 167.521Z" fill="white"/>
<path d="M413.67 112.554H357.754C355.79 112.554 354.743 111.003 355.496 109.091L355.722 108.474C356.118 107.501 356.781 106.659 357.634 106.046C358.488 105.433 359.498 105.075 360.547 105.011H416.463C418.428 105.011 419.474 106.562 418.721 108.474L418.495 109.091C418.1 110.065 417.437 110.907 416.583 111.519C415.729 112.132 414.719 112.491 413.67 112.554Z" fill="white"/>
<path d="M413.67 112.554H357.754C355.79 112.554 354.743 111.003 355.496 109.091L355.722 108.474C356.118 107.501 356.781 106.659 357.634 106.046C358.488 105.433 359.498 105.075 360.547 105.011H416.463C418.428 105.011 419.474 106.562 418.721 108.474L418.495 109.091C418.1 110.065 417.437 110.907 416.583 111.519C415.729 112.132 414.719 112.491 413.67 112.554Z" fill="white"/>
<path d="M426.492 130.5L331.936 130.455C329.919 130.455 328.872 128.859 329.595 126.894L329.828 126.262C330.235 125.263 330.916 124.4 331.792 123.771C332.669 123.142 333.705 122.774 334.782 122.709L429.337 122.747C431.354 122.747 432.401 124.343 431.678 126.307L431.445 126.94C431.039 127.94 430.359 128.805 429.482 129.435C428.606 130.065 427.569 130.434 426.492 130.5Z" fill="white"/>
<path d="M426.492 130.5L331.936 130.455C329.919 130.455 328.872 128.859 329.595 126.894L329.828 126.262C330.235 125.263 330.916 124.4 331.792 123.771C332.669 123.142 333.705 122.774 334.782 122.709L429.337 122.747C431.354 122.747 432.401 124.343 431.678 126.307L431.445 126.94C431.039 127.94 430.359 128.805 429.482 129.435C428.606 130.065 427.569 130.434 426.492 130.5Z" fill="white"/>
<path d="M357.875 121.151H332.778C332.627 121.163 332.476 121.134 332.341 121.068C332.205 121.002 332.089 120.9 332.006 120.774C331.923 120.648 331.875 120.502 331.868 120.351C331.861 120.2 331.894 120.05 331.965 119.916L332.048 119.698C332.18 119.344 332.41 119.035 332.711 118.807C333.012 118.579 333.372 118.441 333.749 118.411H358.854C359.005 118.399 359.156 118.427 359.291 118.493C359.427 118.56 359.543 118.661 359.626 118.787C359.709 118.914 359.757 119.06 359.764 119.211C359.771 119.362 359.738 119.512 359.667 119.645L359.584 119.864C359.452 120.219 359.221 120.529 358.918 120.757C358.615 120.985 358.253 121.122 357.875 121.151Z" fill="white"/>
<path d="M357.875 121.151H332.778C332.627 121.163 332.476 121.134 332.341 121.068C332.205 121.002 332.089 120.9 332.006 120.774C331.923 120.648 331.875 120.502 331.868 120.351C331.861 120.2 331.894 120.05 331.965 119.916L332.048 119.698C332.18 119.344 332.41 119.035 332.711 118.807C333.012 118.579 333.372 118.441 333.749 118.411H358.854C359.005 118.399 359.156 118.427 359.291 118.493C359.427 118.56 359.543 118.661 359.626 118.787C359.709 118.914 359.757 119.06 359.764 119.211C359.771 119.362 359.738 119.512 359.667 119.645L359.584 119.864C359.452 120.219 359.221 120.529 358.918 120.757C358.615 120.985 358.253 121.122 357.875 121.151Z" fill="white"/>
<path d="M373.887 127.677L335.744 127.662L336.535 125.509L374.677 125.524L373.887 127.677Z" fill="white"/>
<path d="M418.565 152.978L323.309 152.933C321.487 152.933 320.539 151.495 321.194 149.718L321.404 149.146C321.775 148.237 322.396 147.452 323.196 146.883C323.995 146.314 324.941 145.984 325.921 145.932L421.177 145.977C422.998 145.977 423.947 147.415 423.292 149.192L423.081 149.764C422.711 150.673 422.09 151.458 421.29 152.027C420.49 152.596 419.545 152.926 418.565 152.978Z" fill="white"/>
<path d="M418.565 152.978L323.309 152.933C321.487 152.933 320.539 151.495 321.194 149.718L321.404 149.146C321.775 148.237 322.396 147.452 323.196 146.883C323.995 146.314 324.941 145.984 325.921 145.932L421.177 145.977C422.998 145.977 423.947 147.415 423.292 149.192L423.081 149.764C422.711 150.673 422.09 151.458 421.29 152.027C420.49 152.596 419.545 152.926 418.565 152.978Z" fill="white"/>
<path d="M349.348 144.329H324.243C324.092 144.341 323.941 144.312 323.805 144.246C323.67 144.18 323.554 144.078 323.471 143.952C323.388 143.826 323.34 143.679 323.333 143.529C323.326 143.378 323.359 143.228 323.43 143.094L323.513 142.876C323.654 142.528 323.891 142.228 324.196 142.009C324.501 141.791 324.862 141.663 325.236 141.641H350.311C350.462 141.629 350.613 141.658 350.749 141.724C350.885 141.79 351 141.892 351.083 142.018C351.166 142.144 351.214 142.29 351.221 142.441C351.228 142.592 351.195 142.742 351.124 142.876L351.041 143.094C350.902 143.437 350.67 143.735 350.371 143.953C350.071 144.171 349.717 144.301 349.348 144.329Z" fill="white"/>
<path d="M349.348 144.329H324.243C324.092 144.341 323.941 144.312 323.805 144.246C323.67 144.18 323.554 144.078 323.471 143.952C323.388 143.826 323.34 143.679 323.333 143.529C323.326 143.378 323.359 143.228 323.43 143.094L323.513 142.876C323.654 142.528 323.891 142.228 324.196 142.009C324.501 141.791 324.862 141.663 325.236 141.641H350.311C350.462 141.629 350.613 141.658 350.749 141.724C350.885 141.79 351 141.892 351.083 142.018C351.166 142.144 351.214 142.29 351.221 142.441C351.228 142.592 351.195 142.742 351.124 142.876L351.041 143.094C350.902 143.437 350.67 143.735 350.371 143.953C350.071 144.171 349.717 144.301 349.348 144.329Z" fill="white"/>
<path d="M329.421 150.833H327.208L328.006 148.68H330.212L329.421 150.833Z" fill="#FFFFFE"/>
<path d="M332.628 150.84H330.415L331.213 148.68H333.419L332.628 150.84Z" fill="#FFFFFE"/>
<path d="M335.834 150.84H333.621L334.412 148.68H336.625L335.834 150.84Z" fill="#FFFFFE"/>
<path d="M339.042 150.84H336.829L337.62 148.687H339.833L339.042 150.84Z" fill="#FFFFFE"/>
<path d="M342.247 150.84H340.034L340.825 148.687H343.038L342.247 150.84Z" fill="#FFFFFE"/>
<path d="M345.455 150.84H343.242L344.033 148.687H346.246L345.455 150.84Z" fill="#FFFFFE"/>
<path d="M257.509 231.191L275.034 255.415L329.135 175.734C330.025 174.768 330.578 173.541 330.714 172.234C330.85 170.928 330.56 169.613 329.888 168.485C326.35 162.508 320.486 151.171 323.67 146.482C328.096 139.963 332.049 144.622 335.541 155.327L349.558 123.462C350.112 122.201 351.132 121.204 352.404 120.678C353.677 120.152 355.103 120.138 356.386 120.639C357.671 121.139 358.713 122.118 359.293 123.37C359.872 124.622 359.945 126.05 359.495 127.354L353.947 143.455C356.815 144.757 359.382 146.641 361.483 148.988C363.585 151.335 365.175 154.094 366.152 157.089C367.13 160.083 367.474 163.249 367.162 166.383C366.851 169.518 365.89 172.554 364.342 175.298L350.913 199.093L300.824 287.626C298.58 291.689 295.378 295.143 291.498 297.689C287.617 300.234 283.173 301.795 278.553 302.234C273.932 302.674 269.274 301.98 264.983 300.212C260.691 298.445 256.896 295.657 253.926 292.09L217.07 259.856L257.509 231.191Z" fill="#F5B58F"/>
<path opacity="0.2" d="M296.773 315.132H278.85V351.837H296.773V315.132Z" fill="#5468FF"/>
<path opacity="0.5" d="M296.773 315.132H278.85V351.837H296.773V315.132Z" fill="#5468FF"/>
<path d="M278.85 315.132H242.966V351.837H278.85V315.132Z" fill="white"/>
<path opacity="0.2" d="M278.85 315.132H242.966V351.837H278.85V315.132Z" fill="#5468FF"/>
<path d="M292.436 329.187H283.32V346.591H292.436V329.187Z" fill="white"/>
<path d="M272.534 335.721H253.993V347.118H272.534V335.721Z" fill="white"/>
<path d="M115.386 181.847L122.68 150.185L151.857 152.044L158.06 181.847H115.386Z" fill="#F5B58F"/>
<path d="M26.0322 221.081L49.0896 204.317L88.2337 184.173C88.2337 184.173 149.381 169.87 194.374 184.173C194.374 184.173 205.862 185.415 262.974 234.766L226.345 272.631L204.62 252.148C204.62 252.148 192.831 281.325 224.801 350.264H139.738L26.0322 221.081Z" fill="#5468FF"/>
<path d="M126.407 200.004H146.581C146.581 200.004 145.339 280.708 190.347 350.264H147.816C147.816 350.264 116.779 198.453 126.407 200.004Z" fill="#5468FF"/>
<path opacity="0.5" d="M126.407 200.004H146.581C146.581 200.004 145.339 280.708 190.347 350.264H147.816C147.816 350.264 116.779 198.453 126.407 200.004Z" fill="#000D44"/>
<path d="M136.727 147.392C136.727 147.392 151.917 172.836 167.071 157.352C168.482 155.881 169.263 153.917 169.246 151.879V141.182H171.264C171.63 141.182 171.992 141.093 172.316 140.922C172.641 140.751 172.919 140.504 173.127 140.202C173.334 139.899 173.465 139.551 173.507 139.186C173.55 138.822 173.503 138.453 173.371 138.111C172.293 135.122 171.018 132.207 169.555 129.386L169.713 114.022L132.466 115.573L136.727 147.392Z" fill="#F5B58F"/>
<path d="M146.422 141.34C146.422 141.34 136.169 132.841 141.762 126.134C146.422 120.549 150.298 124.734 150.298 124.734C150.298 124.734 158.526 115.701 169.622 121.474C169.622 121.474 184.903 125.201 181.802 104.868C181.802 104.868 187.711 84.3704 168.388 81.7432C163.446 80.9976 158.633 79.5687 154.085 77.4976C151.631 76.4286 148.379 76.2104 144.547 78.7999C139.12 82.5171 132.84 84.7988 126.293 85.4318C124.591 85.5369 122.941 86.0553 121.485 86.942C120.029 87.8287 118.811 89.057 117.937 90.5205C115.31 95.0087 111.727 98.8637 107.443 101.812C104.726 103.589 102.738 106.517 104.364 111.289C107.006 118.642 108.573 126.336 109.017 134.136C109.37 142.831 112.321 152.511 123.575 153.016C144.254 153.911 146.422 141.34 146.422 141.34Z" fill="#000D44"/>
<path d="M1.02496 200.004H129.508C129.508 200.004 121.468 255.874 172.657 350.264H41.9757C41.9757 350.264 -7.6846 272.014 1.02496 200.004Z" fill="#5468FF"/>
<path opacity="0.3" d="M1.02496 200.004H129.508C129.508 200.004 121.468 255.874 172.657 350.264H41.9757C41.9757 350.264 -7.6846 272.014 1.02496 200.004Z" fill="#000D44"/>
<path d="M390.298 351.107H29.9237C28.9093 351.107 28.0869 351.93 28.0869 352.944C28.0869 353.958 28.9093 354.781 29.9237 354.781H390.298C391.312 354.781 392.134 353.958 392.134 352.944C392.134 351.93 391.312 351.107 390.298 351.107Z" fill="white"/>
<path opacity="0.5" d="M390.298 351.107H29.9237C28.9093 351.107 28.0869 351.93 28.0869 352.944C28.0869 353.958 28.9093 354.781 29.9237 354.781H390.298C391.312 354.781 392.134 353.958 392.134 352.944C392.134 351.93 391.312 351.107 390.298 351.107Z" fill="#5468FF"/>
<path d="M376.281 316.246H367.399L369.574 302.38H322.797L329.331 351.115H361.926L362.837 345.318H369.883C370.326 345.318 370.756 345.17 371.105 344.897C371.454 344.624 371.702 344.243 371.81 343.813L378.171 318.723C378.245 318.433 378.252 318.129 378.192 317.836C378.132 317.542 378.006 317.266 377.825 317.028C377.643 316.79 377.41 316.596 377.142 316.46C376.875 316.325 376.581 316.252 376.281 316.246ZM376.966 319.694L371.102 342.842C370.995 343.272 370.747 343.653 370.398 343.926C370.048 344.199 369.618 344.347 369.175 344.347H362.995L367.256 317.248H375.047C375.345 317.251 375.639 317.321 375.906 317.453C376.173 317.585 376.407 317.776 376.591 318.011C376.775 318.246 376.903 318.519 376.967 318.811C377.03 319.102 377.028 319.404 376.959 319.694H376.966Z" fill="white"/>
<path opacity="0.5" d="M376.281 316.246H367.399L369.574 302.38H322.797L329.331 351.115H361.926L362.837 345.318H369.883C370.326 345.318 370.756 345.17 371.105 344.897C371.454 344.624 371.702 344.243 371.81 343.813L378.171 318.723C378.245 318.433 378.252 318.129 378.192 317.836C378.132 317.542 378.006 317.266 377.825 317.028C377.643 316.79 377.41 316.596 377.142 316.46C376.875 316.325 376.581 316.252 376.281 316.246ZM376.966 319.694L371.102 342.842C370.995 343.272 370.747 343.653 370.398 343.926C370.048 344.199 369.618 344.347 369.175 344.347H362.995L367.256 317.248H375.047C375.345 317.251 375.639 317.321 375.906 317.453C376.173 317.585 376.407 317.776 376.591 318.011C376.775 318.246 376.903 318.519 376.967 318.811C377.03 319.102 377.028 319.404 376.959 319.694H376.966Z" fill="#5468FF"/>
</svg>
